Aleo-RegularItalic.ufo
<glyph name="exclam" format="1">
  <advance width="357"/>
  <unicode hex="0021"/>
  <note>
    exclam
  </note>
  <outline>
    <contour>
      <point x="237" y="430" type="curve" smooth="yes"/>
      <point x="272" y="716" type="line"/>
      <point x="188" y="716" type="line"/>
      <point x="153" y="430" type="line" smooth="yes"/>
      <point x="151" y="415"/>
      <point x="149" y="400"/>
      <point x="148" y="386" type="curve" smooth="yes"/>
      <point x="147" y="372"/>
      <point x="146" y="357"/>
      <point x="145" y="343" type="curve" smooth="yes"/>
      <point x="144" y="329"/>
      <point x="143" y="314"/>
      <point x="143" y="299" type="curve" smooth="yes"/>
      <point x="143" y="284"/>
      <point x="142" y="267"/>
      <point x="142" y="250" type="curve"/>
      <point x="203" y="250" type="line"/>
      <point x="207" y="267"/>
      <point x="211" y="284"/>
      <point x="214" y="299" type="curve" smooth="yes"/>
      <point x="217" y="314"/>
      <point x="220" y="329"/>
      <point x="223" y="343" type="curve" smooth="yes"/>
      <point x="226" y="357"/>
      <point x="229" y="372"/>
      <point x="231" y="386" type="curve" smooth="yes"/>
      <point x="233" y="400"/>
      <point x="235" y="415"/>
    </contour>
    <contour>
      <point x="85" y="55" type="curve" smooth="yes"/>
      <point x="84" y="46"/>
      <point x="85" y="38"/>
      <point x="87" y="30" type="curve" smooth="yes"/>
      <point x="89" y="22"/>
      <point x="92" y="16"/>
      <point x="97" y="10" type="curve" smooth="yes"/>
      <point x="102" y="4"/>
      <point x="108" y="0"/>
      <point x="115" y="-3" type="curve" smooth="yes"/>
      <point x="122" y="-6"/>
      <point x="130" y="-8"/>
      <point x="139" y="-8" type="curve" smooth="yes"/>
      <point x="148" y="-8"/>
      <point x="156" y="-6"/>
      <point x="164" y="-3" type="curve" smooth="yes"/>
      <point x="172" y="0"/>
      <point x="180" y="4"/>
      <point x="186" y="10" type="curve" smooth="yes"/>
      <point x="192" y="16"/>
      <point x="198" y="22"/>
      <point x="202" y="30" type="curve" smooth="yes"/>
      <point x="206" y="38"/>
      <point x="209" y="46"/>
      <point x="210" y="55" type="curve" smooth="yes"/>
      <point x="211" y="64"/>
      <point x="210" y="72"/>
      <point x="208" y="80" type="curve" smooth="yes"/>
      <point x="206" y="88"/>
      <point x="202" y="93"/>
      <point x="197" y="99" type="curve" smooth="yes"/>
      <point x="192" y="105"/>
      <point x="186" y="110"/>
      <point x="179" y="113" type="curve" smooth="yes"/>
      <point x="172" y="116"/>
      <point x="164" y="118"/>
      <point x="155" y="118" type="curve" smooth="yes"/>
      <point x="146" y="118"/>
      <point x="138" y="116"/>
      <point x="130" y="113" type="curve" smooth="yes"/>
      <point x="122" y="110"/>
      <point x="114" y="105"/>
      <point x="108" y="99" type="curve" smooth="yes"/>
      <point x="102" y="93"/>
      <point x="97" y="88"/>
      <point x="93" y="80" type="curve" smooth="yes"/>
      <point x="89" y="72"/>
      <point x="86" y="64"/>
    </contour>
  </outline>
</glyph>
<glyph name="quotedbl" format="1">
  <advance width="401"/>
  <unicode hex="0022"/>
  <note>
    quotedbl
  </note>
  <outline>
    <contour>
      <point x="148" y="572" type="line"/>
      <point x="165" y="716" type="line"/>
      <point x="88" y="716" type="line"/>
      <point x="70" y="572" type="line"/>
      <point x="69" y="494" type="line"/>
      <point x="70" y="483"/>
      <point x="72" y="475"/>
      <point x="76" y="469" type="curve" smooth="yes"/>
      <point x="80" y="463"/>
      <point x="86" y="460"/>
      <point x="95" y="460" type="curve" smooth="yes"/>
      <point x="105" y="460"/>
      <point x="113" y="463"/>
      <point x="118" y="469" type="curve" smooth="yes"/>
      <point x="123" y="475"/>
      <point x="128" y="483"/>
      <point x="130" y="494" type="curve"/>
    </contour>
    <contour>
      <point x="314" y="572" type="line"/>
      <point x="332" y="716" type="line"/>
      <point x="254" y="716" type="line"/>
      <point x="237" y="572" type="line"/>
      <point x="235" y="494" type="line"/>
      <point x="236" y="483"/>
      <point x="238" y="475"/>
      <point x="242" y="469" type="curve" smooth="yes"/>
      <point x="246" y="463"/>
      <point x="252" y="460"/>
      <point x="261" y="460" type="curve" smooth="yes"/>
      <point x="271" y="460"/>
      <point x="280" y="463"/>
      <point x="285" y="469" type="curve" smooth="yes"/>
      <point x="290" y="475"/>
      <point x="295" y="483"/>
      <point x="297" y="494" type="curve" smooth="yes"/>
    </contour>
  </outline>
</glyph>
<glyph name="numbersign" format="1">
  <advance width="634"/>
  <unicode hex="0023"/>
  <note>
    numbersign
  </note>
  <outline>
    <contour>
      <point x="334" y="0" type="line"/>
      <point x="402" y="212" type="line"/>
      <point x="521" y="212" type="line"/>
      <point x="529" y="240" type="line"/>
      <point x="530" y="242"/>
      <point x="530" y="244"/>
      <point x="530" y="246" type="curve" smooth="yes"/>
      <point x="530" y="248"/>
      <point x="531" y="249"/>
      <point x="531" y="251" type="curve"/>
      <point x="532" y="261"/>
      <point x="531" y="267"/>
      <point x="527" y="271" type="curve" smooth="yes"/>
      <point x="523" y="275"/>
      <point x="517" y="277"/>
      <point x="509" y="277" type="curve" smooth="yes"/>
      <point x="420" y="277" type="line"/>
      <point x="472" y="440" type="line"/>
      <point x="541" y="440" type="line" smooth="yes"/>
      <point x="554" y="440"/>
      <point x="563" y="443"/>
      <point x="570" y="447" type="curve" smooth="yes"/>
      <point x="577" y="451"/>
      <point x="582" y="458"/>
      <point x="585" y="468" type="curve" smooth="yes"/>
      <point x="596" y="506" type="line"/>
      <point x="490" y="506" type="line"/>
      <point x="548" y="683" type="line"/>
      <point x="549" y="685"/>
      <point x="549" y="687"/>
      <point x="549" y="690" type="curve"/>
      <point x="550" y="698"/>
      <point x="549" y="704"/>
      <point x="544" y="709" type="curve" smooth="yes"/>
      <point x="539" y="714"/>
      <point x="532" y="716"/>
      <point x="524" y="716" type="curve" smooth="yes"/>
      <point x="484" y="716" type="line"/>
      <point x="416" y="506" type="line"/>
      <point x="293" y="506" type="line"/>
      <point x="361" y="716" type="line"/>
      <point x="321" y="716" type="line" smooth="yes"/>
      <point x="311" y="716"/>
      <point x="302" y="714"/>
      <point x="294" y="708" type="curve" smooth="yes"/>
      <point x="286" y="702"/>
      <point x="280" y="694"/>
      <point x="277" y="684" type="curve" smooth="yes"/>
      <point x="219" y="505" type="line"/>
      <point x="140" y="505" type="line" smooth="yes"/>
      <point x="127" y="505"/>
      <point x="118" y="503"/>
      <point x="111" y="498" type="curve" smooth="yes"/>
      <point x="104" y="493"/>
      <point x="100" y="487"/>
      <point x="97" y="477" type="curve" smooth="yes"/>
      <point x="86" y="440" type="line"/>
      <point x="202" y="440" type="line"/>
      <point x="149" y="277" type="line"/>
      <point x="47" y="277" type="line"/>
      <point x="40" y="248" type="line"/>
      <point x="39" y="246"/>
      <point x="38" y="244"/>
      <point x="38" y="242" type="curve" smooth="yes"/>
      <point x="38" y="240"/>
      <point x="37" y="239"/>
      <point x="37" y="237" type="curve"/>
      <point x="36" y="228"/>
      <point x="37" y="221"/>
      <point x="41" y="217" type="curve" smooth="yes"/>
      <point x="45" y="213"/>
      <point x="51" y="211"/>
      <point x="59" y="211" type="curve" smooth="yes"/>
      <point x="132" y="211" type="line"/>
      <point x="63" y="0" type="line"/>
      <point x="103" y="0" type="line" smooth="yes"/>
      <point x="113" y="0"/>
      <point x="121" y="3"/>
      <point x="129" y="8" type="curve" smooth="yes"/>
      <point x="137" y="13"/>
      <point x="144" y="22"/>
      <point x="148" y="34" type="curve" smooth="yes"/>
      <point x="205" y="211" type="line"/>
      <point x="329" y="211" type="line"/>
      <point x="272" y="38" type="line"/>
      <point x="271" y="36"/>
      <point x="271" y="35"/>
      <point x="271" y="34" type="curve" smooth="yes"/>
      <point x="271" y="33"/>
      <point x="270" y="31"/>
      <point x="270" y="30" type="curve"/>
      <point x="269" y="21"/>
      <point x="270" y="14"/>
      <point x="275" y="8" type="curve" smooth="yes"/>
      <point x="280" y="2"/>
      <point x="286" y="0"/>
      <point x="294" y="0" type="curve" smooth="yes"/>
    </contour>
    <contour>
      <point x="346" y="277" type="line"/>
      <point x="223" y="277" type="line"/>
      <point x="275" y="440" type="line"/>
      <point x="399" y="440" type="line"/>
    </contour>
  </outline>
</glyph>
<glyph name="dollar" format="1">
  <advance width="625"/>
  <unicode hex="0024"/>
  <note>
    dollar
  </note>
  <outline>
    <contour>
      <point x="235" y="-6" type="curve"/>
      <point x="214" y="-119" type="line"/>
      <point x="247" y="-119" type="line" smooth="yes"/>
      <point x="254" y="-119"/>
      <point x="260" y="-117"/>
      <point x="265" y="-112" type="curve" smooth="yes"/>
      <point x="270" y="-107"/>
      <point x="274" y="-101"/>
      <point x="275" y="-95" type="curve" smooth="yes"/>
      <point x="292" y="-7" type="line"/>
      <point x="328" y="-5"/>
      <point x="361" y="3"/>
      <point x="390" y="15" type="curve" smooth="yes"/>
      <point x="419" y="27"/>
      <point x="444" y="44"/>
      <point x="466" y="64" type="curve" smooth="yes"/>
      <point x="488" y="84"/>
      <point x="505" y="107"/>
      <point x="518" y="133" type="curve" smooth="yes"/>
      <point x="531" y="159"/>
      <point x="540" y="188"/>
      <point x="544" y="218" type="curve" smooth="yes"/>
      <point x="548" y="249"/>
      <point x="545" y="274"/>
      <point x="536" y="294" type="curve" smooth="yes"/>
      <point x="527" y="314"/>
      <point x="514" y="332"/>
      <point x="497" y="346" type="curve" smooth="yes"/>
      <point x="480" y="360"/>
      <point x="460" y="370"/>
      <point x="438" y="379" type="curve" smooth="yes"/>
      <point x="416" y="388"/>
      <point x="393" y="396"/>
      <point x="370" y="403" type="curve"/>
      <point x="416" y="645" type="line"/>
      <point x="432" y="643"/>
      <point x="446" y="639"/>
      <point x="458" y="633" type="curve" smooth="yes"/>
      <point x="470" y="627"/>
      <point x="481" y="623"/>
      <point x="490" y="617" type="curve"/>
      <point x="499" y="612"/>
      <point x="507" y="606"/>
      <point x="513" y="602" type="curve" smooth="yes"/>
      <point x="519" y="598"/>
      <point x="524" y="596"/>
      <point x="529" y="596" type="curve" smooth="yes"/>
      <point x="538" y="596"/>
      <point x="546" y="601"/>
      <point x="554" y="611" type="curve" smooth="yes"/>
      <point x="580" y="644" type="line"/>
      <point x="562" y="663"/>
      <point x="542" y="680"/>
      <point x="518" y="694" type="curve" smooth="yes"/>
      <point x="494" y="708"/>
      <point x="464" y="716"/>
      <point x="430" y="720" type="curve"/>
      <point x="450" y="820" type="line"/>
      <point x="417" y="820" type="line" smooth="yes"/>
      <point x="410" y="820"/>
      <point x="403" y="817"/>
      <point x="398" y="812" type="curve" smooth="yes"/>
      <point x="393" y="807"/>
      <point x="390" y="801"/>
      <point x="389" y="795" type="curve" smooth="yes"/>
      <point x="375" y="723" type="line"/>
      <point x="340" y="722"/>
      <point x="308" y="716"/>
      <point x="280" y="704" type="curve" smooth="yes"/>
      <point x="252" y="692"/>
      <point x="228" y="678"/>
      <point x="208" y="660" type="curve" smooth="yes"/>
      <point x="188" y="642"/>
      <point x="171" y="621"/>
      <point x="159" y="598" type="curve" smooth="yes"/>
      <point x="147" y="575"/>
      <point x="139" y="550"/>
      <point x="136" y="526" type="curve" smooth="yes"/>
      <point x="132" y="494"/>
      <point x="134" y="468"/>
      <point x="142" y="446" type="curve" smooth="yes"/>
      <point x="150" y="424"/>
      <point x="162" y="406"/>
      <point x="178" y="392" type="curve" smooth="yes"/>
      <point x="194" y="378"/>
      <point x="214" y="367"/>
      <point x="235" y="358" type="curve" smooth="yes"/>
      <point x="256" y="349"/>
      <point x="279" y="341"/>
      <point x="301" y="334" type="curve"/>
      <point x="249" y="68" type="line"/>
      <point x="227" y="71"/>
      <point x="208" y="76"/>
      <point x="193" y="84" type="curve" smooth="yes"/>
      <point x="178" y="92"/>
      <point x="165" y="100"/>
      <point x="154" y="108" type="curve" smooth="yes"/>
      <point x="143" y="116"/>
      <point x="134" y="123"/>
      <point x="127" y="129" type="curve" smooth="yes"/>
      <point x="120" y="135"/>
      <point x="113" y="139"/>
      <point x="107" y="139" type="curve" smooth="yes"/>
      <point x="102" y="139"/>
      <point x="98" y="137"/>
      <point x="93" y="135" type="curve" smooth="yes"/>
      <point x="88" y="133"/>
      <point x="85" y="130"/>
      <point x="82" y="126" type="curve" smooth="yes"/>
      <point x="51" y="85" type="line"/>
      <point x="72" y="60"/>
      <point x="98" y="40"/>
      <point x="129" y="24" type="curve" smooth="yes"/>
      <point x="160" y="8"/>
      <point x="195" y="-2"/>
    </contour>
    <contour>
      <point x="457" y="204" type="curve" smooth="yes"/>
      <point x="455" y="185"/>
      <point x="450" y="168"/>
      <point x="442" y="152" type="curve" smooth="yes"/>
      <point x="434" y="136"/>
      <point x="424" y="124"/>
      <point x="411" y="112" type="curve" smooth="yes"/>
      <point x="398" y="100"/>
      <point x="383" y="91"/>
      <point x="365" y="83" type="curve" smooth="yes"/>
      <point x="347" y="75"/>
      <point x="328" y="70"/>
      <point x="306" y="68" type="curve"/>
      <point x="353" y="318" type="line"/>
      <point x="369" y="313"/>
      <point x="383" y="306"/>
      <point x="397" y="300" type="curve" smooth="yes"/>
      <point x="411" y="294"/>
      <point x="422" y="287"/>
      <point x="432" y="278" type="curve" smooth="yes"/>
      <point x="442" y="269"/>
      <point x="449" y="258"/>
      <point x="454" y="246" type="curve" smooth="yes"/>
      <point x="459" y="234"/>
      <point x="459" y="221"/>
    </contour>
    <contour>
      <point x="221" y="535" type="curve" smooth="yes"/>
      <point x="223" y="549"/>
      <point x="226" y="563"/>
      <point x="233" y="575" type="curve" smooth="yes"/>
      <point x="240" y="587"/>
      <point x="249" y="598"/>
      <point x="260" y="608" type="curve" smooth="yes"/>
      <point x="271" y="618"/>
      <point x="285" y="626"/>
      <point x="302" y="633" type="curve" smooth="yes"/>
      <point x="319" y="640"/>
      <point x="338" y="644"/>
      <point x="360" y="646" type="curve"/>
      <point x="317" y="421" type="line"/>
      <point x="302" y="426"/>
      <point x="289" y="432"/>
      <point x="276" y="439" type="curve" smooth="yes"/>
      <point x="263" y="446"/>
      <point x="253" y="453"/>
      <point x="244" y="462" type="curve" smooth="yes"/>
      <point x="235" y="471"/>
      <point x="228" y="482"/>
      <point x="224" y="494" type="curve" smooth="yes"/>
      <point x="220" y="506"/>
      <point x="219" y="519"/>
    </contour>
  </outline>
</glyph>
<glyph name="percent" format="1">
  <advance width="785"/>
  <unicode hex="0025"/>
  <note>
    percent
  </note>
  <outline>
    <contour>
      <point x="377" y="544" type="curve" smooth="yes"/>
      <point x="381" y="573"/>
      <point x="379" y="598"/>
      <point x="374" y="620" type="curve" smooth="yes"/>
      <point x="369" y="642"/>
      <point x="359" y="661"/>
      <point x="347" y="676" type="curve" smooth="yes"/>
      <point x="335" y="691"/>
      <point x="320" y="704"/>
      <point x="301" y="712" type="curve" smooth="yes"/>
      <point x="282" y="720"/>
      <point x="262" y="724"/>
      <point x="240" y="724" type="curve" smooth="yes"/>
      <point x="217" y="724"/>
      <point x="196" y="720"/>
      <point x="176" y="712" type="curve" smooth="yes"/>
      <point x="156" y="704"/>
      <point x="137" y="691"/>
      <point x="121" y="676" type="curve" smooth="yes"/>
      <point x="105" y="661"/>
      <point x="92" y="642"/>
      <point x="81" y="620" type="curve" smooth="yes"/>
      <point x="70" y="598"/>
      <point x="63" y="573"/>
      <point x="59" y="544" type="curve" smooth="yes"/>
      <point x="56" y="516"/>
      <point x="57" y="490"/>
      <point x="62" y="468" type="curve" smooth="yes"/>
      <point x="67" y="446"/>
      <point x="77" y="427"/>
      <point x="89" y="412" type="curve" smooth="yes"/>
      <point x="101" y="397"/>
      <point x="117" y="386"/>
      <point x="135" y="378" type="curve" smooth="yes"/>
      <point x="153" y="370"/>
      <point x="173" y="366"/>
      <point x="196" y="366" type="curve" smooth="yes"/>
      <point x="217" y="366"/>
      <point x="238" y="370"/>
      <point x="258" y="378" type="curve" smooth="yes"/>
      <point x="278" y="386"/>
      <point x="297" y="397"/>
      <point x="313" y="412" type="curve" smooth="yes"/>
      <point x="329" y="427"/>
      <point x="343" y="446"/>
      <point x="354" y="468" type="curve" smooth="yes"/>
      <point x="365" y="490"/>
      <point x="374" y="516"/>
    </contour>
    <contour>
      <point x="307" y="544" type="curve" smooth="yes"/>
      <point x="304" y="522"/>
      <point x="300" y="503"/>
      <point x="293" y="488" type="curve" smooth="yes"/>
      <point x="286" y="473"/>
      <point x="279" y="461"/>
      <point x="270" y="451" type="curve" smooth="yes"/>
      <point x="261" y="441"/>
      <point x="250" y="435"/>
      <point x="239" y="431" type="curve" smooth="yes"/>
      <point x="228" y="427"/>
      <point x="215" y="424"/>
      <point x="203" y="424" type="curve" smooth="yes"/>
      <point x="191" y="424"/>
      <point x="179" y="427"/>
      <point x="169" y="431" type="curve" smooth="yes"/>
      <point x="159" y="435"/>
      <point x="150" y="441"/>
      <point x="143" y="451" type="curve" smooth="yes"/>
      <point x="136" y="461"/>
      <point x="132" y="473"/>
      <point x="129" y="488" type="curve" smooth="yes"/>
      <point x="126" y="503"/>
      <point x="126" y="522"/>
      <point x="129" y="544" type="curve" smooth="yes"/>
      <point x="132" y="566"/>
      <point x="137" y="585"/>
      <point x="143" y="600" type="curve" smooth="yes"/>
      <point x="149" y="615"/>
      <point x="157" y="627"/>
      <point x="166" y="637" type="curve" smooth="yes"/>
      <point x="175" y="647"/>
      <point x="186" y="654"/>
      <point x="197" y="658" type="curve" smooth="yes"/>
      <point x="208" y="662"/>
      <point x="221" y="665"/>
      <point x="233" y="665" type="curve" smooth="yes"/>
      <point x="245" y="665"/>
      <point x="257" y="662"/>
      <point x="267" y="658" type="curve" smooth="yes"/>
      <point x="277" y="654"/>
      <point x="285" y="647"/>
      <point x="292" y="637" type="curve" smooth="yes"/>
      <point x="299" y="627"/>
      <point x="304" y="614"/>
      <point x="307" y="599" type="curve" smooth="yes"/>
      <point x="310" y="584"/>
      <point x="310" y="566"/>
    </contour>
    <contour>
      <point x="646" y="698" type="curve" smooth="yes"/>
      <point x="40" y="0" type="line"/>
      <point x="106" y="0" type="line" smooth="yes"/>
      <point x="112" y="0"/>
      <point x="117" y="1"/>
      <point x="122" y="4" type="curve" smooth="yes"/>
      <point x="127" y="7"/>
      <point x="132" y="10"/>
      <point x="136" y="14" type="curve"/>
      <point x="745" y="716" type="line"/>
      <point x="681" y="716" type="line" smooth="yes"/>
      <point x="673" y="716"/>
      <point x="667" y="715"/>
      <point x="662" y="712" type="curve" smooth="yes"/>
      <point x="657" y="709"/>
      <point x="651" y="704"/>
    </contour>
    <contour>
      <point x="727" y="169" type="curve" smooth="yes"/>
      <point x="731" y="198"/>
      <point x="729" y="224"/>
      <point x="724" y="246" type="curve" smooth="yes"/>
      <point x="719" y="268"/>
      <point x="710" y="287"/>
      <point x="698" y="302" type="curve" smooth="yes"/>
      <point x="686" y="317"/>
      <point x="669" y="329"/>
      <point x="651" y="337" type="curve" smooth="yes"/>
      <point x="633" y="345"/>
      <point x="612" y="349"/>
      <point x="590" y="349" type="curve" smooth="yes"/>
      <point x="567" y="349"/>
      <point x="546" y="345"/>
      <point x="526" y="337" type="curve" smooth="yes"/>
      <point x="506" y="329"/>
      <point x="488" y="317"/>
      <point x="472" y="302" type="curve" smooth="yes"/>
      <point x="456" y="287"/>
      <point x="442" y="268"/>
      <point x="431" y="246" type="curve" smooth="yes"/>
      <point x="420" y="224"/>
      <point x="414" y="198"/>
      <point x="410" y="169" type="curve" smooth="yes"/>
      <point x="407" y="141"/>
      <point x="408" y="116"/>
      <point x="413" y="94" type="curve" smooth="yes"/>
      <point x="418" y="72"/>
      <point x="427" y="53"/>
      <point x="439" y="38" type="curve" smooth="yes"/>
      <point x="451" y="23"/>
      <point x="467" y="12"/>
      <point x="485" y="4" type="curve" smooth="yes"/>
      <point x="503" y="-4"/>
      <point x="523" y="-8"/>
      <point x="546" y="-8" type="curve" smooth="yes"/>
      <point x="567" y="-8"/>
      <point x="588" y="-4"/>
      <point x="608" y="4" type="curve" smooth="yes"/>
      <point x="628" y="12"/>
      <point x="647" y="23"/>
      <point x="663" y="38" type="curve" smooth="yes"/>
      <point x="679" y="53"/>
      <point x="694" y="72"/>
      <point x="705" y="94" type="curve" smooth="yes"/>
      <point x="716" y="116"/>
      <point x="724" y="141"/>
    </contour>
    <contour>
      <point x="658" y="169" type="curve" smooth="yes"/>
      <point x="655" y="147"/>
      <point x="651" y="129"/>
      <point x="644" y="114" type="curve" smooth="yes"/>
      <point x="637" y="99"/>
      <point x="629" y="87"/>
      <point x="620" y="77" type="curve" smooth="yes"/>
      <point x="611" y="67"/>
      <point x="600" y="61"/>
      <point x="589" y="57" type="curve" smooth="yes"/>
      <point x="578" y="53"/>
      <point x="566" y="50"/>
      <point x="554" y="50" type="curve" smooth="yes"/>
      <point x="542" y="50"/>
      <point x="530" y="53"/>
      <point x="520" y="57" type="curve" smooth="yes"/>
      <point x="510" y="61"/>
      <point x="501" y="67"/>
      <point x="494" y="77" type="curve" smooth="yes"/>
      <point x="487" y="87"/>
      <point x="483" y="99"/>
      <point x="480" y="114" type="curve" smooth="yes"/>
      <point x="477" y="129"/>
      <point x="477" y="147"/>
      <point x="480" y="169" type="curve" smooth="yes"/>
      <point x="483" y="191"/>
      <point x="487" y="209"/>
      <point x="493" y="225" type="curve" smooth="yes"/>
      <point x="499" y="241"/>
      <point x="508" y="253"/>
      <point x="517" y="263" type="curve" smooth="yes"/>
      <point x="526" y="273"/>
      <point x="537" y="280"/>
      <point x="548" y="284" type="curve" smooth="yes"/>
      <point x="559" y="288"/>
      <point x="571" y="290"/>
      <point x="583" y="290" type="curve" smooth="yes"/>
      <point x="595" y="290"/>
      <point x="607" y="288"/>
      <point x="617" y="284" type="curve" smooth="yes"/>
      <point x="627" y="280"/>
      <point x="636" y="273"/>
      <point x="643" y="263" type="curve" smooth="yes"/>
      <point x="650" y="253"/>
      <point x="655" y="241"/>
      <point x="658" y="225" type="curve" smooth="yes"/>
      <point x="661" y="209"/>
      <point x="661" y="191"/>
    </contour>
  </outline>
</glyph>
<glyph name="ampersand" format="1">
  <advance width="684"/>
  <unicode hex="0026"/>
  <note>
    ampersand
  </note>
  <outline>
    <contour>
      <point x="390" y="724" type="curve" smooth="yes"/>
      <point x="360" y="724"/>
      <point x="333" y="720"/>
      <point x="308" y="711" type="curve" smooth="yes"/>
      <point x="283" y="702"/>
      <point x="262" y="689"/>
      <point x="243" y="673" type="curve" smooth="yes"/>
      <point x="224" y="657"/>
      <point x="209" y="638"/>
      <point x="198" y="617" type="curve" smooth="yes"/>
      <point x="187" y="596"/>
      <point x="179" y="573"/>
      <point x="176" y="549" type="curve" smooth="yes"/>
      <point x="173" y="523"/>
      <point x="174" y="497"/>
      <point x="181" y="473" type="curve" smooth="yes"/>
      <point x="188" y="449"/>
      <point x="200" y="424"/>
      <point x="217" y="398" type="curve"/>
      <point x="193" y="388"/>
      <point x="171" y="376"/>
      <point x="150" y="362" type="curve" smooth="yes"/>
      <point x="129" y="348"/>
      <point x="111" y="333"/>
      <point x="95" y="315" type="curve" smooth="yes"/>
      <point x="79" y="297"/>
      <point x="66" y="278"/>
      <point x="56" y="257" type="curve" smooth="yes"/>
      <point x="46" y="236"/>
      <point x="39" y="214"/>
      <point x="36" y="191" type="curve" smooth="yes"/>
      <point x="32" y="160"/>
      <point x="35" y="132"/>
      <point x="44" y="107" type="curve" smooth="yes"/>
      <point x="53" y="82"/>
      <point x="67" y="62"/>
      <point x="85" y="45" type="curve" smooth="yes"/>
      <point x="103" y="28"/>
      <point x="124" y="14"/>
      <point x="149" y="5" type="curve" smooth="yes"/>
      <point x="174" y="-4"/>
      <point x="199" y="-8"/>
      <point x="226" y="-8" type="curve" smooth="yes"/>
      <point x="275" y="-8"/>
      <point x="321" y="0"/>
      <point x="364" y="18" type="curve" smooth="yes"/>
      <point x="407" y="36"/>
      <point x="446" y="60"/>
      <point x="481" y="90" type="curve"/>
      <point x="544" y="18" type="line" smooth="yes"/>
      <point x="550" y="11"/>
      <point x="556" y="5"/>
      <point x="562" y="3" type="curve" smooth="yes"/>
      <point x="568" y="1"/>
      <point x="575" y="0"/>
      <point x="585" y="0" type="curve" smooth="yes"/>
      <point x="671" y="0" type="line"/>
      <point x="540" y="152" type="line"/>
      <point x="566" y="184"/>
      <point x="587" y="219"/>
      <point x="603" y="256" type="curve" smooth="yes"/>
      <point x="619" y="293"/>
      <point x="631" y="331"/>
      <point x="636" y="369" type="curve"/>
      <point x="581" y="369" type="line" smooth="yes"/>
      <point x="575" y="369"/>
      <point x="570" y="367"/>
      <point x="566" y="363" type="curve" smooth="yes"/>
      <point x="562" y="359"/>
      <point x="559" y="354"/>
      <point x="558" y="348" type="curve"/>
      <point x="552" y="323"/>
      <point x="545" y="299"/>
      <point x="534" y="275" type="curve" smooth="yes"/>
      <point x="523" y="251"/>
      <point x="510" y="226"/>
      <point x="495" y="204" type="curve"/>
      <point x="315" y="414" type="line" smooth="yes"/>
      <point x="304" y="427"/>
      <point x="294" y="438"/>
      <point x="286" y="450" type="curve" smooth="yes"/>
      <point x="278" y="462"/>
      <point x="273" y="473"/>
      <point x="269" y="484" type="curve" smooth="yes"/>
      <point x="265" y="495"/>
      <point x="262" y="505"/>
      <point x="260" y="516" type="curve" smooth="yes"/>
      <point x="258" y="527"/>
      <point x="259" y="537"/>
      <point x="260" y="549" type="curve"/>
      <point x="262" y="564"/>
      <point x="266" y="578"/>
      <point x="273" y="591" type="curve" smooth="yes"/>
      <point x="280" y="604"/>
      <point x="288" y="615"/>
      <point x="299" y="625" type="curve"/>
      <point x="310" y="634"/>
      <point x="322" y="642"/>
      <point x="336" y="647" type="curve" smooth="yes"/>
      <point x="350" y="652"/>
      <point x="365" y="655"/>
      <point x="382" y="655" type="curve" smooth="yes"/>
      <point x="397" y="655"/>
      <point x="410" y="652"/>
      <point x="421" y="647" type="curve" smooth="yes"/>
      <point x="432" y="642"/>
      <point x="441" y="636"/>
      <point x="448" y="628" type="curve" smooth="yes"/>
      <point x="455" y="620"/>
      <point x="461" y="612"/>
      <point x="465" y="603" type="curve" smooth="yes"/>
      <point x="469" y="594"/>
      <point x="472" y="585"/>
      <point x="473" y="576" type="curve"/>
      <point x="474" y="570"/>
      <point x="476" y="565"/>
      <point x="480" y="563" type="curve" smooth="yes"/>
      <point x="484" y="561"/>
      <point x="487" y="560"/>
      <point x="491" y="560" type="curve" smooth="yes"/>
      <point x="496" y="560" type="line"/>
      <point x="553" y="571" type="line"/>
      <point x="554" y="591"/>
      <point x="551" y="611"/>
      <point x="544" y="629" type="curve" smooth="yes"/>
      <point x="537" y="647"/>
      <point x="527" y="664"/>
      <point x="513" y="678" type="curve" smooth="yes"/>
      <point x="499" y="692"/>
      <point x="482" y="704"/>
      <point x="461" y="712" type="curve" smooth="yes"/>
      <point x="440" y="720"/>
      <point x="416" y="724"/>
    </contour>
    <contour>
      <point x="127" y="198" type="curve" smooth="yes"/>
      <point x="131" y="229"/>
      <point x="143" y="259"/>
      <point x="164" y="285" type="curve" smooth="yes"/>
      <point x="185" y="311"/>
      <point x="215" y="334"/>
      <point x="253" y="353" type="curve"/>
      <point x="438" y="139" type="line"/>
      <point x="413" y="116"/>
      <point x="384" y="99"/>
      <point x="353" y="85" type="curve" smooth="yes"/>
      <point x="322" y="71"/>
      <point x="287" y="64"/>
      <point x="250" y="64" type="curve" smooth="yes"/>
      <point x="233" y="64"/>
      <point x="216" y="67"/>
      <point x="200" y="73" type="curve" smooth="yes"/>
      <point x="184" y="79"/>
      <point x="170" y="88"/>
      <point x="158" y="99" type="curve" smooth="yes"/>
      <point x="146" y="110"/>
      <point x="138" y="125"/>
      <point x="132" y="141" type="curve" smooth="yes"/>
      <point x="126" y="157"/>
      <point x="124" y="176"/>
    </contour>
  </outline>
</glyph>
<glyph name="quotesingle" format="1">
  <advance width="234"/>
  <unicode hex="0027"/>
  <note>
    quotesingle
  </note>
  <outline>
    <contour>
      <point x="148" y="572" type="line"/>
      <point x="165" y="716" type="line"/>
      <point x="88" y="716" type="line"/>
      <point x="70" y="572" type="line"/>
      <point x="69" y="494" type="line"/>
      <point x="70" y="483"/>
      <point x="72" y="475"/>
      <point x="76" y="469" type="curve" smooth="yes"/>
      <point x="80" y="463"/>
      <point x="86" y="460"/>
      <point x="95" y="460" type="curve" smooth="yes"/>
      <point x="105" y="460"/>
      <point x="113" y="463"/>
      <point x="118" y="469" type="curve" smooth="yes"/>
      <point x="123" y="475"/>
      <point x="128" y="483"/>
      <point x="130" y="494" type="curve"/>
    </contour>
  </outline>
</glyph>
<glyph name="parenleft" format="1">
  <advance width="324"/>
  <unicode hex="0028"/>
  <note>
    parenleft
  </note>
  <outline>
    <contour>
      <point x="128" y="314" type="curve" smooth="yes"/>
      <point x="137" y="385"/>
      <point x="155" y="455"/>
      <point x="181" y="522" type="curve" smooth="yes"/>
      <point x="207" y="589"/>
      <point x="242" y="653"/>
      <point x="284" y="714" type="curve" smooth="yes"/>
      <point x="288" y="720"/>
      <point x="290" y="727"/>
      <point x="291" y="732" type="curve" smooth="yes"/>
      <point x="292" y="737"/>
      <point x="291" y="740"/>
      <point x="289" y="743" type="curve" smooth="yes"/>
      <point x="287" y="746"/>
      <point x="284" y="749"/>
      <point x="281" y="751" type="curve" smooth="yes"/>
      <point x="245" y="776" type="line"/>
      <point x="215" y="737"/>
      <point x="189" y="699"/>
      <point x="167" y="661" type="curve" smooth="yes"/>
      <point x="145" y="623"/>
      <point x="125" y="586"/>
      <point x="110" y="548" type="curve" smooth="yes"/>
      <point x="95" y="510"/>
      <point x="83" y="472"/>
      <point x="73" y="433" type="curve" smooth="yes"/>
      <point x="63" y="394"/>
      <point x="56" y="354"/>
      <point x="51" y="314" type="curve" smooth="yes"/>
      <point x="46" y="273"/>
      <point x="44" y="234"/>
      <point x="44" y="196" type="curve" smooth="yes"/>
      <point x="44" y="158"/>
      <point x="47" y="119"/>
      <point x="53" y="81" type="curve" smooth="yes"/>
      <point x="59" y="43"/>
      <point x="69" y="6"/>
      <point x="82" y="-32" type="curve" smooth="yes"/>
      <point x="95" y="-70"/>
      <point x="111" y="-108"/>
      <point x="131" y="-146" type="curve"/>
      <point x="174" y="-122" type="line"/>
      <point x="178" y="-120"/>
      <point x="181" y="-117"/>
      <point x="184" y="-114" type="curve" smooth="yes"/>
      <point x="187" y="-111"/>
      <point x="188" y="-108"/>
      <point x="189" y="-103" type="curve"/>
      <point x="189" y="-95" type="line" smooth="yes"/>
      <point x="189" y="-92"/>
      <point x="188" y="-90"/>
      <point x="186" y="-86" type="curve"/>
      <point x="159" y="-25"/>
      <point x="140" y="40"/>
      <point x="130" y="107" type="curve" smooth="yes"/>
      <point x="120" y="174"/>
      <point x="119" y="243"/>
    </contour>
  </outline>
</glyph>
<glyph name="parenright" format="1">
  <advance width="324"/>
  <unicode hex="0029"/>
  <note>
    parenright
  </note>
  <outline>
    <contour>
      <point x="195" y="314" type="curve" smooth="yes"/>
      <point x="186" y="243"/>
      <point x="169" y="174"/>
      <point x="142" y="107" type="curve" smooth="yes"/>
      <point x="115" y="40"/>
      <point x="81" y="-25"/>
      <point x="39" y="-86" type="curve"/>
      <point x="37" y="-90"/>
      <point x="35" y="-92"/>
      <point x="34" y="-95" type="curve" smooth="yes"/>
      <point x="33" y="-98"/>
      <point x="32" y="-100"/>
      <point x="32" y="-103" type="curve"/>
      <point x="31" y="-108"/>
      <point x="32" y="-111"/>
      <point x="34" y="-114" type="curve" smooth="yes"/>
      <point x="36" y="-117"/>
      <point x="39" y="-120"/>
      <point x="42" y="-122" type="curve" smooth="yes"/>
      <point x="78" y="-146" type="line"/>
      <point x="108" y="-108"/>
      <point x="134" y="-70"/>
      <point x="156" y="-32" type="curve" smooth="yes"/>
      <point x="178" y="6"/>
      <point x="197" y="43"/>
      <point x="213" y="81" type="curve" smooth="yes"/>
      <point x="228" y="119"/>
      <point x="240" y="158"/>
      <point x="250" y="196" type="curve" smooth="yes"/>
      <point x="260" y="234"/>
      <point x="267" y="274"/>
      <point x="272" y="315" type="curve" smooth="yes"/>
      <point x="277" y="355"/>
      <point x="280" y="394"/>
      <point x="280" y="433" type="curve" smooth="yes"/>
      <point x="280" y="472"/>
      <point x="276" y="510"/>
      <point x="270" y="548" type="curve" smooth="yes"/>
      <point x="264" y="586"/>
      <point x="254" y="623"/>
      <point x="241" y="661" type="curve" smooth="yes"/>
      <point x="228" y="699"/>
      <point x="212" y="737"/>
      <point x="192" y="776" type="curve"/>
      <point x="149" y="751" type="line"/>
      <point x="145" y="749"/>
      <point x="142" y="746"/>
      <point x="139" y="743" type="curve" smooth="yes"/>
      <point x="136" y="740"/>
      <point x="135" y="737"/>
      <point x="134" y="732" type="curve" smooth="yes"/>
      <point x="133" y="727"/>
      <point x="134" y="720"/>
      <point x="137" y="714" type="curve" smooth="yes"/>
      <point x="165" y="653"/>
      <point x="183" y="589"/>
      <point x="193" y="522" type="curve" smooth="yes"/>
      <point x="203" y="455"/>
      <point x="204" y="385"/>
    </contour>
  </outline>
</glyph>
<glyph name="asterisk" format="1">
  <advance width="441"/>
  <unicode hex="002A"/>
  <note>
    asterisk
  </note>
  <outline>
    <contour>
      <point x="191" y="530" type="curve"/>
      <point x="179" y="432" type="line"/>
      <point x="223" y="432" type="line"/>
      <point x="235" y="530" type="line" smooth="yes"/>
      <point x="237" y="543"/>
      <point x="235" y="555"/>
      <point x="231" y="566" type="curve"/>
      <point x="234" y="561"/>
      <point x="238" y="557"/>
      <point x="242" y="553" type="curve" smooth="yes"/>
      <point x="246" y="549"/>
      <point x="251" y="546"/>
      <point x="257" y="542" type="curve" smooth="yes"/>
      <point x="337" y="492" type="line"/>
      <point x="364" y="530" type="line"/>
      <point x="284" y="580" type="line"/>
      <point x="279" y="584"/>
      <point x="273" y="586"/>
      <point x="268" y="588" type="curve" smooth="yes"/>
      <point x="263" y="590"/>
      <point x="257" y="591"/>
      <point x="251" y="592" type="curve"/>
      <point x="257" y="593"/>
      <point x="263" y="594"/>
      <point x="269" y="596" type="curve" smooth="yes"/>
      <point x="275" y="598"/>
      <point x="281" y="600"/>
      <point x="287" y="604" type="curve"/>
      <point x="379" y="654" type="line"/>
      <point x="361" y="692" type="line"/>
      <point x="269" y="642" type="line"/>
      <point x="263" y="638"/>
      <point x="258" y="636"/>
      <point x="253" y="632" type="curve" smooth="yes"/>
      <point x="248" y="628"/>
      <point x="243" y="623"/>
      <point x="239" y="618" type="curve"/>
      <point x="245" y="628"/>
      <point x="248" y="640"/>
      <point x="250" y="654" type="curve" smooth="yes"/>
      <point x="262" y="753" type="line"/>
      <point x="218" y="753" type="line"/>
      <point x="206" y="654" type="line" smooth="yes"/>
      <point x="205" y="647"/>
      <point x="206" y="641"/>
      <point x="206" y="635" type="curve" smooth="yes"/>
      <point x="206" y="629"/>
      <point x="208" y="622"/>
      <point x="210" y="616" type="curve"/>
      <point x="204" y="627"/>
      <point x="195" y="635"/>
      <point x="184" y="642" type="curve" smooth="yes"/>
      <point x="104" y="692" type="line"/>
      <point x="77" y="655" type="line"/>
      <point x="158" y="604" type="line" smooth="yes"/>
      <point x="164" y="600"/>
      <point x="168" y="598"/>
      <point x="174" y="596" type="curve" smooth="yes"/>
      <point x="180" y="594"/>
      <point x="186" y="593"/>
      <point x="193" y="592" type="curve"/>
      <point x="181" y="591"/>
      <point x="168" y="587"/>
      <point x="155" y="580" type="curve" smooth="yes"/>
      <point x="62" y="530" type="line"/>
      <point x="80" y="492" type="line"/>
      <point x="172" y="542" type="line" smooth="yes"/>
      <point x="184" y="549"/>
      <point x="193" y="556"/>
      <point x="201" y="564" type="curve"/>
      <point x="198" y="559"/>
      <point x="196" y="554"/>
      <point x="194" y="548" type="curve" smooth="yes"/>
      <point x="192" y="542"/>
      <point x="192" y="536"/>
    </contour>
  </outline>
</glyph>
<glyph name="plus" format="1">
  <advance width="591"/>
  <unicode hex="002B"/>
  <note>
    plus
  </note>
  <outline>
    <contour>
      <point x="335" y="370" type="line"/>
      <point x="362" y="583" type="line"/>
      <point x="289" y="583" type="line"/>
      <point x="262" y="370" type="line"/>
      <point x="60" y="370" type="line"/>
      <point x="52" y="302" type="line"/>
      <point x="254" y="302" type="line"/>
      <point x="228" y="87" type="line"/>
      <point x="301" y="87" type="line"/>
      <point x="327" y="302" type="line"/>
      <point x="530" y="302" type="line"/>
      <point x="539" y="370" type="line"/>
    </contour>
  </outline>
</glyph>
<glyph name="comma" format="1">
  <advance width="227"/>
  <unicode hex="002C"/>
  <note>
    comma
  </note>
  <outline>
    <contour>
      <point x="61" y="62" type="curve" smooth="yes"/>
      <point x="60" y="53"/>
      <point x="61" y="45"/>
      <point x="63" y="37" type="curve" smooth="yes"/>
      <point x="65" y="29"/>
      <point x="68" y="23"/>
      <point x="72" y="17" type="curve" smooth="yes"/>
      <point x="76" y="11"/>
      <point x="82" y="7"/>
      <point x="89" y="4" type="curve" smooth="yes"/>
      <point x="96" y="1"/>
      <point x="103" y="0"/>
      <point x="112" y="0" type="curve" smooth="yes"/>
      <point x="118" y="0" type="line"/>
      <point x="115" y="-11"/>
      <point x="111" y="-21"/>
      <point x="105" y="-31" type="curve" smooth="yes"/>
      <point x="99" y="-41"/>
      <point x="93" y="-50"/>
      <point x="87" y="-58" type="curve" smooth="yes"/>
      <point x="81" y="-66"/>
      <point x="74" y="-73"/>
      <point x="68" y="-79" type="curve" smooth="yes"/>
      <point x="62" y="-85"/>
      <point x="58" y="-90"/>
      <point x="54" y="-94" type="curve" smooth="yes"/>
      <point x="49" y="-99"/>
      <point x="46" y="-103"/>
      <point x="45" y="-107" type="curve"/>
      <point x="44" y="-112"/>
      <point x="46" y="-117"/>
      <point x="50" y="-121" type="curve"/>
      <point x="63" y="-136" type="line"/>
      <point x="80" y="-123"/>
      <point x="94" y="-109"/>
      <point x="108" y="-94" type="curve" smooth="yes"/>
      <point x="122" y="-79"/>
      <point x="134" y="-64"/>
      <point x="144" y="-48" type="curve" smooth="yes"/>
      <point x="154" y="-32"/>
      <point x="162" y="-16"/>
      <point x="168" y="0" type="curve" smooth="yes"/>
      <point x="174" y="16"/>
      <point x="179" y="32"/>
      <point x="181" y="47" type="curve" smooth="yes"/>
      <point x="182" y="57"/>
      <point x="182" y="67"/>
      <point x="180" y="75" type="curve" smooth="yes"/>
      <point x="178" y="83"/>
      <point x="175" y="91"/>
      <point x="171" y="97" type="curve" smooth="yes"/>
      <point x="167" y="103"/>
      <point x="160" y="109"/>
      <point x="153" y="113" type="curve" smooth="yes"/>
      <point x="146" y="117"/>
      <point x="137" y="118"/>
      <point x="127" y="118" type="curve" smooth="yes"/>
      <point x="118" y="118"/>
      <point x="111" y="117"/>
      <point x="103" y="114" type="curve" smooth="yes"/>
      <point x="95" y="111"/>
      <point x="88" y="106"/>
      <point x="82" y="101" type="curve" smooth="yes"/>
      <point x="76" y="96"/>
      <point x="72" y="90"/>
      <point x="68" y="83" type="curve" smooth="yes"/>
      <point x="64" y="76"/>
      <point x="62" y="70"/>
    </contour>
  </outline>
</glyph>
<glyph name="hyphen" format="1">
  <advance width="337"/>
  <unicode hex="002D"/>
  <note>
    hyphen
  </note>
  <outline>
    <contour>
      <point x="297" y="338" type="line"/>
      <point x="50" y="338" type="line"/>
      <point x="40" y="262" type="line"/>
      <point x="288" y="262" type="line"/>
    </contour>
  </outline>
</glyph>
<glyph name="period" format="1">
  <advance width="215"/>
  <unicode hex="002E"/>
  <note>
    period
  </note>
  <outline>
    <contour>
      <point x="46" y="55" type="curve" smooth="yes"/>
      <point x="45" y="46"/>
      <point x="45" y="38"/>
      <point x="47" y="30" type="curve" smooth="yes"/>
      <point x="49" y="22"/>
      <point x="53" y="16"/>
      <point x="58" y="10" type="curve" smooth="yes"/>
      <point x="63" y="4"/>
      <point x="69" y="0"/>
      <point x="76" y="-3" type="curve" smooth="yes"/>
      <point x="83" y="-6"/>
      <point x="91" y="-8"/>
      <point x="100" y="-8" type="curve" smooth="yes"/>
      <point x="109" y="-8"/>
      <point x="117" y="-6"/>
      <point x="125" y="-3" type="curve" smooth="yes"/>
      <point x="133" y="0"/>
      <point x="141" y="4"/>
      <point x="147" y="10" type="curve" smooth="yes"/>
      <point x="153" y="16"/>
      <point x="158" y="22"/>
      <point x="162" y="30" type="curve" smooth="yes"/>
      <point x="166" y="38"/>
      <point x="169" y="46"/>
      <point x="170" y="55" type="curve" smooth="yes"/>
      <point x="171" y="64"/>
      <point x="170" y="72"/>
      <point x="168" y="80" type="curve" smooth="yes"/>
      <point x="166" y="88"/>
      <point x="163" y="93"/>
      <point x="158" y="99" type="curve" smooth="yes"/>
      <point x="153" y="105"/>
      <point x="146" y="110"/>
      <point x="139" y="113" type="curve" smooth="yes"/>
      <point x="132" y="116"/>
      <point x="124" y="118"/>
      <point x="115" y="118" type="curve" smooth="yes"/>
      <point x="106" y="118"/>
      <point x="98" y="116"/>
      <point x="90" y="113" type="curve" smooth="yes"/>
      <point x="82" y="110"/>
      <point x="75" y="105"/>
      <point x="69" y="99" type="curve" smooth="yes"/>
      <point x="63" y="93"/>
      <point x="57" y="88"/>
      <point x="53" y="80" type="curve" smooth="yes"/>
      <point x="49" y="72"/>
      <point x="47" y="64"/>
    </contour>
  </outline>
</glyph>
<glyph name="slash" format="1">
  <advance width="536"/>
  <unicode hex="002F"/>
  <note>
    slash
  </note>
  <outline>
    <contour>
      <point x="118" y="-10" type="curve" smooth="yes"/>
      <point x="508" y="736" type="line"/>
      <point x="470" y="736" type="line" smooth="yes"/>
      <point x="459" y="736"/>
      <point x="450" y="734"/>
      <point x="441" y="728" type="curve" smooth="yes"/>
      <point x="432" y="722"/>
      <point x="425" y="715"/>
      <point x="419" y="704" type="curve" smooth="yes"/>
      <point x="27" y="-45" type="line"/>
      <point x="65" y="-45" type="line" smooth="yes"/>
      <point x="75" y="-45"/>
      <point x="84" y="-42"/>
      <point x="94" y="-36" type="curve" smooth="yes"/>
      <point x="104" y="-30"/>
      <point x="112" y="-22"/>
    </contour>
  </outline>
</glyph>
<glyph name="zero" format="1">
  <advance width="588"/>
  <unicode hex="0030"/>
  <note>
    zero
  </note>
  <outline>
    <contour>
      <point x="553" y="358" type="curve" smooth="yes"/>
      <point x="561" y="421"/>
      <point x="561" y="475"/>
      <point x="553" y="521" type="curve" smooth="yes"/>
      <point x="545" y="567"/>
      <point x="531" y="605"/>
      <point x="511" y="635" type="curve" smooth="yes"/>
      <point x="491" y="665"/>
      <point x="467" y="687"/>
      <point x="437" y="702" type="curve" smooth="yes"/>
      <point x="407" y="717"/>
      <point x="373" y="724"/>
      <point x="337" y="724" type="curve" smooth="yes"/>
      <point x="300" y="724"/>
      <point x="265" y="717"/>
      <point x="232" y="702" type="curve" smooth="yes"/>
      <point x="199" y="687"/>
      <point x="169" y="665"/>
      <point x="142" y="635" type="curve" smooth="yes"/>
      <point x="115" y="605"/>
      <point x="92" y="567"/>
      <point x="73" y="521" type="curve" smooth="yes"/>
      <point x="54" y="475"/>
      <point x="41" y="421"/>
      <point x="33" y="358" type="curve" smooth="yes"/>
      <point x="25" y="295"/>
      <point x="25" y="241"/>
      <point x="33" y="195" type="curve" smooth="yes"/>
      <point x="41" y="149"/>
      <point x="54" y="111"/>
      <point x="74" y="81" type="curve" smooth="yes"/>
      <point x="94" y="51"/>
      <point x="118" y="29"/>
      <point x="148" y="14" type="curve" smooth="yes"/>
      <point x="178" y="-1"/>
      <point x="210" y="-8"/>
      <point x="247" y="-8" type="curve" smooth="yes"/>
      <point x="283" y="-8"/>
      <point x="318" y="-1"/>
      <point x="352" y="14" type="curve" smooth="yes"/>
      <point x="386" y="29"/>
      <point x="416" y="51"/>
      <point x="443" y="81" type="curve" smooth="yes"/>
      <point x="470" y="111"/>
      <point x="494" y="149"/>
      <point x="513" y="195" type="curve" smooth="yes"/>
      <point x="532" y="241"/>
      <point x="545" y="295"/>
    </contour>
    <contour>
      <point x="460" y="358" type="curve" smooth="yes"/>
      <point x="453" y="303"/>
      <point x="444" y="257"/>
      <point x="430" y="220" type="curve" smooth="yes"/>
      <point x="416" y="183"/>
      <point x="400" y="154"/>
      <point x="382" y="131" type="curve" smooth="yes"/>
      <point x="364" y="108"/>
      <point x="344" y="92"/>
      <point x="322" y="82" type="curve" smooth="yes"/>
      <point x="300" y="72"/>
      <point x="279" y="67"/>
      <point x="257" y="67" type="curve" smooth="yes"/>
      <point x="235" y="67"/>
      <point x="214" y="72"/>
      <point x="195" y="82" type="curve" smooth="yes"/>
      <point x="176" y="92"/>
      <point x="160" y="108"/>
      <point x="147" y="131" type="curve" smooth="yes"/>
      <point x="134" y="154"/>
      <point x="127" y="183"/>
      <point x="122" y="220" type="curve" smooth="yes"/>
      <point x="117" y="257"/>
      <point x="118" y="303"/>
      <point x="125" y="358" type="curve" smooth="yes"/>
      <point x="132" y="413"/>
      <point x="141" y="459"/>
      <point x="155" y="496" type="curve" smooth="yes"/>
      <point x="169" y="533"/>
      <point x="185" y="562"/>
      <point x="203" y="585" type="curve" smooth="yes"/>
      <point x="221" y="608"/>
      <point x="241" y="624"/>
      <point x="263" y="634" type="curve" smooth="yes"/>
      <point x="285" y="644"/>
      <point x="306" y="649"/>
      <point x="328" y="649" type="curve" smooth="yes"/>
      <point x="350" y="649"/>
      <point x="371" y="644"/>
      <point x="390" y="634" type="curve" smooth="yes"/>
      <point x="409" y="624"/>
      <point x="424" y="608"/>
      <point x="437" y="585" type="curve" smooth="yes"/>
      <point x="450" y="562"/>
      <point x="458" y="533"/>
      <point x="463" y="496" type="curve" smooth="yes"/>
      <point x="468" y="459"/>
      <point x="467" y="413"/>
    </contour>
  </outline>
</glyph>
<glyph name="one" format="1">
  <advance width="563"/>
  <unicode hex="0031"/>
  <note>
    one
  </note>
  <outline>
    <contour>
      <point x="463" y="58" type="curve"/>
      <point x="457" y="59"/>
      <point x="415" y="62"/>
      <point x="337" y="68" type="curve"/>
      <point x="417" y="718" type="line"/>
      <point x="345" y="718" type="line"/>
      <point x="109" y="534" type="line"/>
      <point x="132" y="495" type="line" smooth="yes"/>
      <point x="136" y="488"/>
      <point x="144" y="484"/>
      <point x="155" y="484" type="curve" smooth="yes"/>
      <point x="161" y="484"/>
      <point x="167" y="487"/>
      <point x="174" y="492" type="curve"/>
      <point x="315" y="601" type="line"/>
      <point x="312" y="586"/>
      <point x="310" y="571"/>
      <point x="308" y="556" type="curve" smooth="yes"/>
      <point x="248" y="68" type="line"/>
      <point x="107" y="58" type="line"/>
      <point x="97" y="56"/>
      <point x="92" y="50"/>
      <point x="91" y="40" type="curve" smooth="yes"/>
      <point x="90" y="30" type="line"/>
      <point x="86" y="0" type="line"/>
      <point x="470" y="0" type="line"/>
      <point x="475" y="40" type="line" smooth="yes"/>
      <point x="476" y="50"/>
      <point x="472" y="56"/>
    </contour>
  </outline>
</glyph>
<glyph name="two" format="1">
  <advance width="652"/>
  <unicode hex="0032"/>
  <note>
    two
  </note>
  <outline>
    <contour>
      <point x="193" y="73" type="curve"/>
      <point x="405" y="265" type="line" smooth="yes"/>
      <point x="466" y="320"/>
      <point x="528" y="375"/>
      <point x="564" y="451" type="curve" smooth="yes"/>
      <point x="584" y="492"/>
      <point x="596" y="558"/>
      <point x="579" y="609" type="curve" smooth="yes"/>
      <point x="556" y="682"/>
      <point x="491" y="724"/>
      <point x="395" y="724" type="curve" smooth="yes"/>
      <point x="364" y="724"/>
      <point x="336" y="720"/>
      <point x="308" y="711" type="curve" smooth="yes"/>
      <point x="220" y="683"/>
      <point x="161" y="615"/>
      <point x="136" y="522" type="curve"/>
      <point x="182" y="514" type="line"/>
      <point x="186" y="513"/>
      <point x="189" y="513"/>
      <point x="193" y="513" type="curve" smooth="yes"/>
      <point x="213" y="513"/>
      <point x="222" y="525"/>
      <point x="229" y="541" type="curve"/>
      <point x="234" y="557"/>
      <point x="242" y="571"/>
      <point x="252" y="584" type="curve" smooth="yes"/>
      <point x="278" y="619"/>
      <point x="321" y="648"/>
      <point x="381" y="648" type="curve" smooth="yes"/>
      <point x="439" y="648"/>
      <point x="477" y="623"/>
      <point x="491" y="578" type="curve" smooth="yes"/>
      <point x="502" y="540"/>
      <point x="491" y="493"/>
      <point x="478" y="463" type="curve" smooth="yes"/>
      <point x="448" y="395"/>
      <point x="394" y="348"/>
      <point x="340" y="299" type="curve" smooth="yes"/>
      <point x="82" y="68" type="line"/>
      <point x="71" y="59"/>
      <point x="63" y="47"/>
      <point x="61" y="31" type="curve" smooth="yes"/>
      <point x="57" y="0" type="line"/>
      <point x="535" y="0" type="line"/>
      <point x="542" y="62" type="line" smooth="yes"/>
      <point x="546" y="95"/>
      <point x="550" y="126"/>
      <point x="554" y="159" type="curve"/>
      <point x="506" y="159" type="line" smooth="yes"/>
      <point x="496" y="159"/>
      <point x="486" y="152"/>
      <point x="483" y="142" type="curve"/>
      <point x="482" y="138"/>
      <point x="477" y="112"/>
      <point x="471" y="84" type="curve"/>
      <point x="274" y="84" type="line" smooth="yes"/>
      <point x="245" y="84"/>
      <point x="217" y="79"/>
    </contour>
  </outline>
</glyph>
<glyph name="three" format="1">
  <advance width="634"/>
  <unicode hex="0033"/>
  <note>
    three
  </note>
  <outline>
    <contour>
      <point x="376" y="724" type="curve" smooth="yes"/>
      <point x="345" y="724"/>
      <point x="317" y="720"/>
      <point x="289" y="711" type="curve" smooth="yes"/>
      <point x="261" y="702"/>
      <point x="237" y="689"/>
      <point x="214" y="672" type="curve" smooth="yes"/>
      <point x="191" y="655"/>
      <point x="171" y="634"/>
      <point x="155" y="609" type="curve" smooth="yes"/>
      <point x="139" y="584"/>
      <point x="127" y="555"/>
      <point x="118" y="522" type="curve"/>
      <point x="163" y="514" type="line"/>
      <point x="169" y="514" type="line"/>
      <point x="175" y="514" type="line" smooth="yes"/>
      <point x="183" y="514"/>
      <point x="190" y="516"/>
      <point x="196" y="520" type="curve" smooth="yes"/>
      <point x="202" y="524"/>
      <point x="206" y="531"/>
      <point x="210" y="541" type="curve" smooth="yes"/>
      <point x="216" y="556"/>
      <point x="224" y="571"/>
      <point x="234" y="584" type="curve" smooth="yes"/>
      <point x="244" y="597"/>
      <point x="255" y="608"/>
      <point x="268" y="618" type="curve"/>
      <point x="281" y="627"/>
      <point x="295" y="635"/>
      <point x="311" y="640" type="curve" smooth="yes"/>
      <point x="327" y="645"/>
      <point x="344" y="648"/>
      <point x="362" y="648" type="curve" smooth="yes"/>
      <point x="380" y="648"/>
      <point x="396" y="645"/>
      <point x="411" y="640" type="curve" smooth="yes"/>
      <point x="426" y="635"/>
      <point x="439" y="628"/>
      <point x="449" y="618" type="curve" smooth="yes"/>
      <point x="459" y="608"/>
      <point x="466" y="595"/>
      <point x="471" y="580" type="curve" smooth="yes"/>
      <point x="476" y="565"/>
      <point x="477" y="547"/>
      <point x="474" y="526" type="curve"/>
      <point x="472" y="507"/>
      <point x="467" y="490"/>
      <point x="459" y="475" type="curve" smooth="yes"/>
      <point x="451" y="460"/>
      <point x="439" y="447"/>
      <point x="424" y="436" type="curve" smooth="yes"/>
      <point x="409" y="425"/>
      <point x="390" y="416"/>
      <point x="368" y="410" type="curve" smooth="yes"/>
      <point x="346" y="404"/>
      <point x="319" y="400"/>
      <point x="289" y="400" type="curve"/>
      <point x="281" y="335" type="line"/>
      <point x="318" y="335"/>
      <point x="349" y="332"/>
      <point x="372" y="325" type="curve" smooth="yes"/>
      <point x="395" y="318"/>
      <point x="412" y="310"/>
      <point x="424" y="298" type="curve" smooth="yes"/>
      <point x="436" y="286"/>
      <point x="444" y="272"/>
      <point x="447" y="256" type="curve" smooth="yes"/>
      <point x="450" y="240"/>
      <point x="450" y="222"/>
      <point x="448" y="203" type="curve" smooth="yes"/>
      <point x="446" y="187"/>
      <point x="441" y="172"/>
      <point x="433" y="156" type="curve" smooth="yes"/>
      <point x="425" y="140"/>
      <point x="414" y="125"/>
      <point x="400" y="112" type="curve" smooth="yes"/>
      <point x="386" y="99"/>
      <point x="369" y="88"/>
      <point x="349" y="80" type="curve" smooth="yes"/>
      <point x="329" y="72"/>
      <point x="306" y="68"/>
      <point x="281" y="68" type="curve" smooth="yes"/>
      <point x="256" y="68"/>
      <point x="236" y="72"/>
      <point x="220" y="79" type="curve" smooth="yes"/>
      <point x="204" y="86"/>
      <point x="191" y="95"/>
      <point x="181" y="106" type="curve" smooth="yes"/>
      <point x="171" y="117"/>
      <point x="163" y="128"/>
      <point x="158" y="140" type="curve" smooth="yes"/>
      <point x="153" y="152"/>
      <point x="148" y="163"/>
      <point x="145" y="173" type="curve"/>
      <point x="145" y="175"/>
      <point x="144" y="176"/>
      <point x="144" y="178" type="curve" smooth="yes"/>
      <point x="144" y="179"/>
      <point x="143" y="181"/>
      <point x="142" y="182" type="curve"/>
      <point x="140" y="188"/>
      <point x="137" y="192"/>
      <point x="132" y="195" type="curve" smooth="yes"/>
      <point x="127" y="198"/>
      <point x="122" y="199"/>
      <point x="115" y="199" type="curve" smooth="yes"/>
      <point x="108" y="199"/>
      <point x="100" y="198"/>
      <point x="93" y="195" type="curve" smooth="yes"/>
      <point x="54" y="179" type="line"/>
      <point x="59" y="152"/>
      <point x="66" y="128"/>
      <point x="75" y="105" type="curve" smooth="yes"/>
      <point x="84" y="82"/>
      <point x="97" y="62"/>
      <point x="114" y="45" type="curve" smooth="yes"/>
      <point x="131" y="28"/>
      <point x="151" y="16"/>
      <point x="177" y="6" type="curve" smooth="yes"/>
      <point x="203" y="-4"/>
      <point x="235" y="-8"/>
      <point x="273" y="-8" type="curve" smooth="yes"/>
      <point x="306" y="-8"/>
      <point x="338" y="-3"/>
      <point x="368" y="7" type="curve" smooth="yes"/>
      <point x="398" y="17"/>
      <point x="425" y="31"/>
      <point x="449" y="49" type="curve" smooth="yes"/>
      <point x="473" y="67"/>
      <point x="492" y="90"/>
      <point x="508" y="116" type="curve" smooth="yes"/>
      <point x="524" y="142"/>
      <point x="534" y="172"/>
      <point x="538" y="205" type="curve" smooth="yes"/>
      <point x="543" y="249"/>
      <point x="536" y="285"/>
      <point x="516" y="314" type="curve" smooth="yes"/>
      <point x="496" y="343"/>
      <point x="463" y="364"/>
      <point x="418" y="376" type="curve"/>
      <point x="438" y="382"/>
      <point x="457" y="390"/>
      <point x="473" y="399" type="curve" smooth="yes"/>
      <point x="489" y="408"/>
      <point x="504" y="419"/>
      <point x="516" y="433" type="curve" smooth="yes"/>
      <point x="528" y="447"/>
      <point x="539" y="462"/>
      <point x="547" y="480" type="curve" smooth="yes"/>
      <point x="555" y="498"/>
      <point x="560" y="518"/>
      <point x="563" y="541" type="curve" smooth="yes"/>
      <point x="566" y="569"/>
      <point x="565" y="593"/>
      <point x="557" y="616" type="curve" smooth="yes"/>
      <point x="549" y="639"/>
      <point x="538" y="658"/>
      <point x="521" y="674" type="curve" smooth="yes"/>
      <point x="504" y="690"/>
      <point x="484" y="702"/>
      <point x="459" y="711" type="curve" smooth="yes"/>
      <point x="434" y="720"/>
      <point x="406" y="724"/>
    </contour>
  </outline>
</glyph>
<glyph name="four" format="1">
  <advance width="600"/>
  <unicode hex="0034"/>
  <note>
    four
  </note>
  <outline>
    <contour>
      <point x="565" y="258" type="line"/>
      <point x="456" y="258" type="line"/>
      <point x="512" y="716" type="line"/>
      <point x="429" y="716" type="line"/>
      <point x="24" y="254" type="line"/>
      <point x="27" y="208" type="line"/>
      <point x="28" y="202"/>
      <point x="31" y="198"/>
      <point x="35" y="194" type="curve" smooth="yes"/>
      <point x="39" y="190"/>
      <point x="44" y="188"/>
      <point x="51" y="188" type="curve" smooth="yes"/>
      <point x="369" y="188" type="line"/>
      <point x="346" y="0" type="line"/>
      <point x="424" y="0" type="line"/>
      <point x="447" y="188" type="line"/>
      <point x="536" y="188" type="line" smooth="yes"/>
      <point x="543" y="188"/>
      <point x="548" y="190"/>
      <point x="552" y="194" type="curve" smooth="yes"/>
      <point x="556" y="198"/>
      <point x="557" y="203"/>
      <point x="558" y="208" type="curve"/>
    </contour>
    <contour>
      <point x="414" y="554" type="curve" smooth="yes"/>
      <point x="378" y="258" type="line"/>
      <point x="121" y="258" type="line"/>
      <point x="425" y="613" type="line"/>
      <point x="422" y="602"/>
      <point x="420" y="592"/>
      <point x="418" y="582" type="curve" smooth="yes"/>
      <point x="416" y="572"/>
      <point x="415" y="563"/>
    </contour>
  </outline>
</glyph>
<glyph name="five" format="1">
  <advance width="648"/>
  <unicode hex="0035"/>
  <note>
    five
  </note>
  <outline>
    <contour>
      <point x="573" y="678" type="curve" smooth="yes"/>
      <point x="578" y="716" type="line"/>
      <point x="238" y="716" type="line"/>
      <point x="139" y="382" type="line"/>
      <point x="193" y="365" type="line"/>
      <point x="214" y="372"/>
      <point x="235" y="377"/>
      <point x="255" y="380" type="curve" smooth="yes"/>
      <point x="275" y="383"/>
      <point x="293" y="384"/>
      <point x="311" y="384" type="curve" smooth="yes"/>
      <point x="337" y="384"/>
      <point x="360" y="381"/>
      <point x="379" y="374" type="curve" smooth="yes"/>
      <point x="398" y="367"/>
      <point x="413" y="357"/>
      <point x="425" y="344" type="curve" smooth="yes"/>
      <point x="437" y="331"/>
      <point x="445" y="316"/>
      <point x="449" y="298" type="curve" smooth="yes"/>
      <point x="453" y="280"/>
      <point x="454" y="260"/>
      <point x="451" y="238" type="curve" smooth="yes"/>
      <point x="448" y="212"/>
      <point x="441" y="189"/>
      <point x="431" y="168" type="curve" smooth="yes"/>
      <point x="421" y="147"/>
      <point x="408" y="130"/>
      <point x="392" y="115" type="curve" smooth="yes"/>
      <point x="376" y="100"/>
      <point x="357" y="88"/>
      <point x="336" y="80" type="curve" smooth="yes"/>
      <point x="315" y="72"/>
      <point x="292" y="68"/>
      <point x="267" y="68" type="curve" smooth="yes"/>
      <point x="245" y="68"/>
      <point x="226" y="71"/>
      <point x="210" y="76" type="curve" smooth="yes"/>
      <point x="194" y="81"/>
      <point x="181" y="88"/>
      <point x="170" y="94" type="curve" smooth="yes"/>
      <point x="159" y="100"/>
      <point x="150" y="106"/>
      <point x="142" y="111" type="curve" smooth="yes"/>
      <point x="134" y="116"/>
      <point x="126" y="119"/>
      <point x="120" y="119" type="curve" smooth="yes"/>
      <point x="110" y="119"/>
      <point x="102" y="115"/>
      <point x="95" y="106" type="curve"/>
      <point x="63" y="68" type="line"/>
      <point x="73" y="58"/>
      <point x="84" y="48"/>
      <point x="97" y="39" type="curve" smooth="yes"/>
      <point x="110" y="30"/>
      <point x="125" y="22"/>
      <point x="141" y="15" type="curve" smooth="yes"/>
      <point x="157" y="8"/>
      <point x="174" y="2"/>
      <point x="193" y="-2" type="curve" smooth="yes"/>
      <point x="212" y="-6"/>
      <point x="232" y="-8"/>
      <point x="253" y="-8" type="curve" smooth="yes"/>
      <point x="289" y="-8"/>
      <point x="323" y="-2"/>
      <point x="356" y="10" type="curve" smooth="yes"/>
      <point x="389" y="22"/>
      <point x="418" y="38"/>
      <point x="444" y="60" type="curve" smooth="yes"/>
      <point x="470" y="82"/>
      <point x="492" y="108"/>
      <point x="509" y="139" type="curve" smooth="yes"/>
      <point x="526" y="170"/>
      <point x="536" y="204"/>
      <point x="541" y="242" type="curve" smooth="yes"/>
      <point x="545" y="273"/>
      <point x="544" y="302"/>
      <point x="537" y="328" type="curve" smooth="yes"/>
      <point x="530" y="354"/>
      <point x="519" y="377"/>
      <point x="502" y="396" type="curve" smooth="yes"/>
      <point x="485" y="415"/>
      <point x="463" y="431"/>
      <point x="436" y="442" type="curve" smooth="yes"/>
      <point x="409" y="453"/>
      <point x="376" y="458"/>
      <point x="339" y="458" type="curve" smooth="yes"/>
      <point x="307" y="458"/>
      <point x="272" y="454"/>
      <point x="234" y="446" type="curve"/>
      <point x="290" y="634" type="line"/>
      <point x="515" y="634" type="line" smooth="yes"/>
      <point x="534" y="634"/>
      <point x="548" y="638"/>
      <point x="557" y="646" type="curve" smooth="yes"/>
      <point x="566" y="654"/>
      <point x="571" y="665"/>
    </contour>
  </outline>
</glyph>
<glyph name="six" format="1">
  <advance width="571"/>
  <unicode hex="0036"/>
  <note>
    six
  </note>
  <outline>
    <contour>
      <point x="343" y="439" type="curve" smooth="yes"/>
      <point x="319" y="439"/>
      <point x="296" y="435"/>
      <point x="275" y="429" type="curve" smooth="yes"/>
      <point x="254" y="423"/>
      <point x="233" y="414"/>
      <point x="215" y="402" type="curve"/>
      <point x="502" y="716" type="line"/>
      <point x="423" y="716" type="line" smooth="yes"/>
      <point x="412" y="716"/>
      <point x="403" y="714"/>
      <point x="394" y="710" type="curve" smooth="yes"/>
      <point x="385" y="706"/>
      <point x="377" y="701"/>
      <point x="372" y="695" type="curve" smooth="yes"/>
      <point x="161" y="450" type="line" smooth="yes"/>
      <point x="126" y="409"/>
      <point x="98" y="371"/>
      <point x="80" y="336" type="curve" smooth="yes"/>
      <point x="62" y="301"/>
      <point x="51" y="267"/>
      <point x="47" y="236" type="curve" smooth="yes"/>
      <point x="42" y="199"/>
      <point x="44" y="165"/>
      <point x="51" y="135" type="curve" smooth="yes"/>
      <point x="58" y="105"/>
      <point x="72" y="79"/>
      <point x="90" y="58" type="curve" smooth="yes"/>
      <point x="108" y="37"/>
      <point x="130" y="21"/>
      <point x="158" y="9" type="curve" smooth="yes"/>
      <point x="186" y="-3"/>
      <point x="218" y="-8"/>
      <point x="254" y="-8" type="curve" smooth="yes"/>
      <point x="290" y="-8"/>
      <point x="324" y="-2"/>
      <point x="356" y="10" type="curve" smooth="yes"/>
      <point x="388" y="22"/>
      <point x="416" y="39"/>
      <point x="440" y="60" type="curve" smooth="yes"/>
      <point x="464" y="81"/>
      <point x="484" y="106"/>
      <point x="499" y="134" type="curve" smooth="yes"/>
      <point x="514" y="162"/>
      <point x="525" y="193"/>
      <point x="529" y="226" type="curve" smooth="yes"/>
      <point x="533" y="260"/>
      <point x="531" y="290"/>
      <point x="523" y="316" type="curve" smooth="yes"/>
      <point x="515" y="342"/>
      <point x="502" y="365"/>
      <point x="485" y="383" type="curve" smooth="yes"/>
      <point x="468" y="401"/>
      <point x="447" y="415"/>
      <point x="423" y="425" type="curve" smooth="yes"/>
      <point x="399" y="435"/>
      <point x="372" y="439"/>
    </contour>
    <contour>
      <point x="131" y="221" type="curve" smooth="yes"/>
      <point x="133" y="241"/>
      <point x="140" y="260"/>
      <point x="149" y="278" type="curve" smooth="yes"/>
      <point x="158" y="296"/>
      <point x="171" y="312"/>
      <point x="186" y="326" type="curve" smooth="yes"/>
      <point x="201" y="340"/>
      <point x="219" y="351"/>
      <point x="239" y="359" type="curve" smooth="yes"/>
      <point x="259" y="367"/>
      <point x="282" y="371"/>
      <point x="306" y="371" type="curve" smooth="yes"/>
      <point x="328" y="371"/>
      <point x="348" y="368"/>
      <point x="366" y="361" type="curve" smooth="yes"/>
      <point x="384" y="354"/>
      <point x="398" y="343"/>
      <point x="410" y="330" type="curve" smooth="yes"/>
      <point x="422" y="317"/>
      <point x="430" y="301"/>
      <point x="435" y="282" type="curve" smooth="yes"/>
      <point x="440" y="263"/>
      <point x="441" y="242"/>
      <point x="438" y="219" type="curve" smooth="yes"/>
      <point x="435" y="197"/>
      <point x="430" y="177"/>
      <point x="420" y="158" type="curve" smooth="yes"/>
      <point x="410" y="139"/>
      <point x="398" y="124"/>
      <point x="382" y="110" type="curve" smooth="yes"/>
      <point x="366" y="96"/>
      <point x="348" y="86"/>
      <point x="328" y="78" type="curve" smooth="yes"/>
      <point x="308" y="70"/>
      <point x="286" y="66"/>
      <point x="262" y="66" type="curve" smooth="yes"/>
      <point x="238" y="66"/>
      <point x="218" y="69"/>
      <point x="200" y="77" type="curve" smooth="yes"/>
      <point x="182" y="85"/>
      <point x="168" y="95"/>
      <point x="157" y="109" type="curve" smooth="yes"/>
      <point x="146" y="123"/>
      <point x="137" y="139"/>
      <point x="133" y="158" type="curve" smooth="yes"/>
      <point x="129" y="177"/>
      <point x="128" y="198"/>
    </contour>
  </outline>
</glyph>
<glyph name="seven" format="1">
  <advance width="623"/>
  <unicode hex="0037"/>
  <note>
    seven
  </note>
  <outline>
    <contour>
      <point x="572" y="716" type="line"/>
      <point x="85" y="716" type="line"/>
      <point x="64" y="542" type="line"/>
      <point x="113" y="542" type="line" smooth="yes"/>
      <point x="124" y="542"/>
      <point x="131" y="548"/>
      <point x="135" y="559" type="curve"/>
      <point x="137" y="563"/>
      <point x="142" y="588"/>
      <point x="151" y="634" type="curve"/>
      <point x="471" y="634" type="line"/>
      <point x="460" y="623"/>
      <point x="450" y="609"/>
      <point x="438" y="591" type="curve" smooth="yes"/>
      <point x="64" y="0" type="line"/>
      <point x="128" y="0" type="line" smooth="yes"/>
      <point x="150" y="0"/>
      <point x="167" y="11"/>
      <point x="180" y="32" type="curve" smooth="yes"/>
      <point x="550" y="630" type="line" smooth="yes"/>
      <point x="559" y="644"/>
      <point x="566" y="659"/>
      <point x="568" y="676" type="curve" smooth="yes"/>
    </contour>
  </outline>
</glyph>
<glyph name="eight" format="1">
  <advance width="603"/>
  <unicode hex="0038"/>
  <note>
    eight
  </note>
  <outline>
    <contour>
      <point x="269" y="-8" type="curve" smooth="yes"/>
      <point x="305" y="-8"/>
      <point x="337" y="-4"/>
      <point x="368" y="6" type="curve" smooth="yes"/>
      <point x="399" y="16"/>
      <point x="427" y="29"/>
      <point x="450" y="47" type="curve" smooth="yes"/>
      <point x="473" y="65"/>
      <point x="492" y="86"/>
      <point x="507" y="111" type="curve" smooth="yes"/>
      <point x="522" y="136"/>
      <point x="531" y="165"/>
      <point x="535" y="196" type="curve" smooth="yes"/>
      <point x="541" y="242"/>
      <point x="533" y="280"/>
      <point x="513" y="310" type="curve" smooth="yes"/>
      <point x="493" y="340"/>
      <point x="461" y="361"/>
      <point x="418" y="374" type="curve"/>
      <point x="457" y="388"/>
      <point x="488" y="408"/>
      <point x="511" y="436" type="curve" smooth="yes"/>
      <point x="534" y="464"/>
      <point x="547" y="497"/>
      <point x="552" y="536" type="curve" smooth="yes"/>
      <point x="555" y="562"/>
      <point x="554" y="587"/>
      <point x="546" y="610" type="curve" smooth="yes"/>
      <point x="538" y="633"/>
      <point x="526" y="653"/>
      <point x="509" y="670" type="curve" smooth="yes"/>
      <point x="492" y="687"/>
      <point x="470" y="700"/>
      <point x="445" y="710" type="curve" smooth="yes"/>
      <point x="420" y="720"/>
      <point x="391" y="724"/>
      <point x="359" y="724" type="curve" smooth="yes"/>
      <point x="326" y="724"/>
      <point x="296" y="720"/>
      <point x="268" y="710" type="curve" smooth="yes"/>
      <point x="240" y="700"/>
      <point x="216" y="687"/>
      <point x="195" y="670" type="curve" smooth="yes"/>
      <point x="174" y="653"/>
      <point x="157" y="633"/>
      <point x="144" y="610" type="curve" smooth="yes"/>
      <point x="131" y="587"/>
      <point x="122" y="562"/>
      <point x="119" y="536" type="curve" smooth="yes"/>
      <point x="114" y="497"/>
      <point x="120" y="464"/>
      <point x="136" y="436" type="curve" smooth="yes"/>
      <point x="152" y="408"/>
      <point x="177" y="387"/>
      <point x="213" y="373" type="curve"/>
      <point x="167" y="360"/>
      <point x="130" y="340"/>
      <point x="102" y="310" type="curve" smooth="yes"/>
      <point x="74" y="280"/>
      <point x="58" y="242"/>
      <point x="52" y="196" type="curve" smooth="yes"/>
      <point x="48" y="165"/>
      <point x="50" y="136"/>
      <point x="59" y="111" type="curve" smooth="yes"/>
      <point x="68" y="86"/>
      <point x="82" y="65"/>
      <point x="101" y="47" type="curve" smooth="yes"/>
      <point x="120" y="29"/>
      <point x="144" y="16"/>
      <point x="172" y="6" type="curve" smooth="yes"/>
      <point x="201" y="-4"/>
      <point x="233" y="-8"/>
    </contour>
    <contour>
      <point x="277" y="63" type="curve" smooth="yes"/>
      <point x="254" y="63"/>
      <point x="234" y="67"/>
      <point x="216" y="73" type="curve" smooth="yes"/>
      <point x="198" y="79"/>
      <point x="183" y="88"/>
      <point x="172" y="100" type="curve" smooth="yes"/>
      <point x="161" y="112"/>
      <point x="153" y="127"/>
      <point x="148" y="143" type="curve" smooth="yes"/>
      <point x="143" y="159"/>
      <point x="142" y="177"/>
      <point x="144" y="197" type="curve" smooth="yes"/>
      <point x="147" y="222"/>
      <point x="154" y="243"/>
      <point x="164" y="261" type="curve" smooth="yes"/>
      <point x="174" y="279"/>
      <point x="188" y="292"/>
      <point x="203" y="303" type="curve" smooth="yes"/>
      <point x="218" y="314"/>
      <point x="234" y="323"/>
      <point x="253" y="328" type="curve" smooth="yes"/>
      <point x="272" y="333"/>
      <point x="291" y="335"/>
      <point x="311" y="335" type="curve" smooth="yes"/>
      <point x="331" y="335"/>
      <point x="349" y="333"/>
      <point x="366" y="328" type="curve" smooth="yes"/>
      <point x="383" y="323"/>
      <point x="399" y="314"/>
      <point x="411" y="303" type="curve" smooth="yes"/>
      <point x="423" y="292"/>
      <point x="433" y="279"/>
      <point x="439" y="261" type="curve" smooth="yes"/>
      <point x="445" y="243"/>
      <point x="446" y="222"/>
      <point x="443" y="197" type="curve" smooth="yes"/>
      <point x="441" y="177"/>
      <point x="435" y="159"/>
      <point x="426" y="143" type="curve" smooth="yes"/>
      <point x="417" y="127"/>
      <point x="406" y="112"/>
      <point x="392" y="100" type="curve" smooth="yes"/>
      <point x="378" y="88"/>
      <point x="360" y="79"/>
      <point x="341" y="73" type="curve" smooth="yes"/>
      <point x="322" y="67"/>
      <point x="300" y="63"/>
    </contour>
    <contour>
      <point x="320" y="407" type="curve" smooth="yes"/>
      <point x="297" y="407"/>
      <point x="277" y="411"/>
      <point x="261" y="418" type="curve" smooth="yes"/>
      <point x="245" y="425"/>
      <point x="234" y="434"/>
      <point x="225" y="446" type="curve" smooth="yes"/>
      <point x="216" y="458"/>
      <point x="210" y="472"/>
      <point x="207" y="487" type="curve" smooth="yes"/>
      <point x="204" y="502"/>
      <point x="204" y="518"/>
      <point x="206" y="534" type="curve" smooth="yes"/>
      <point x="208" y="551"/>
      <point x="213" y="566"/>
      <point x="220" y="581" type="curve" smooth="yes"/>
      <point x="227" y="596"/>
      <point x="237" y="609"/>
      <point x="249" y="620" type="curve" smooth="yes"/>
      <point x="261" y="631"/>
      <point x="276" y="640"/>
      <point x="293" y="646" type="curve" smooth="yes"/>
      <point x="310" y="652"/>
      <point x="329" y="655"/>
      <point x="350" y="655" type="curve" smooth="yes"/>
      <point x="371" y="655"/>
      <point x="390" y="652"/>
      <point x="405" y="646" type="curve" smooth="yes"/>
      <point x="420" y="640"/>
      <point x="434" y="631"/>
      <point x="443" y="620" type="curve" smooth="yes"/>
      <point x="452" y="609"/>
      <point x="458" y="596"/>
      <point x="462" y="581" type="curve" smooth="yes"/>
      <point x="466" y="566"/>
      <point x="467" y="551"/>
      <point x="465" y="534" type="curve" smooth="yes"/>
      <point x="463" y="518"/>
      <point x="459" y="502"/>
      <point x="452" y="487" type="curve" smooth="yes"/>
      <point x="445" y="472"/>
      <point x="437" y="458"/>
      <point x="425" y="446" type="curve" smooth="yes"/>
      <point x="413" y="434"/>
      <point x="398" y="425"/>
      <point x="381" y="418" type="curve" smooth="yes"/>
      <point x="364" y="411"/>
      <point x="343" y="407"/>
    </contour>
  </outline>
</glyph>
<glyph name="nine" format="1">
  <advance width="552"/>
  <unicode hex="0039"/>
  <note>
    nine
  </note>
  <outline>
    <contour>
      <point x="217" y="294" type="curve" smooth="yes"/>
      <point x="243" y="294"/>
      <point x="268" y="298"/>
      <point x="292" y="306" type="curve" smooth="yes"/>
      <point x="316" y="314"/>
      <point x="338" y="324"/>
      <point x="358" y="339" type="curve"/>
      <point x="351" y="330"/>
      <point x="344" y="322"/>
      <point x="337" y="313" type="curve" smooth="yes"/>
      <point x="330" y="304"/>
      <point x="322" y="296"/>
      <point x="313" y="286" type="curve" smooth="yes"/>
      <point x="60" y="0" type="line"/>
      <point x="142" y="0" type="line" smooth="yes"/>
      <point x="152" y="0"/>
      <point x="162" y="2"/>
      <point x="170" y="6" type="curve" smooth="yes"/>
      <point x="178" y="10"/>
      <point x="185" y="15"/>
      <point x="190" y="21" type="curve" smooth="yes"/>
      <point x="396" y="273" type="line" smooth="yes"/>
      <point x="411" y="292"/>
      <point x="425" y="309"/>
      <point x="437" y="327" type="curve" smooth="yes"/>
      <point x="449" y="345"/>
      <point x="460" y="362"/>
      <point x="470" y="380" type="curve" smooth="yes"/>
      <point x="480" y="398"/>
      <point x="487" y="415"/>
      <point x="493" y="434" type="curve" smooth="yes"/>
      <point x="499" y="452"/>
      <point x="503" y="472"/>
      <point x="506" y="493" type="curve" smooth="yes"/>
      <point x="510" y="527"/>
      <point x="509" y="559"/>
      <point x="502" y="587" type="curve" smooth="yes"/>
      <point x="495" y="615"/>
      <point x="482" y="640"/>
      <point x="464" y="660" type="curve" smooth="yes"/>
      <point x="446" y="680"/>
      <point x="425" y="697"/>
      <point x="398" y="708" type="curve" smooth="yes"/>
      <point x="371" y="719"/>
      <point x="341" y="725"/>
      <point x="307" y="725" type="curve" smooth="yes"/>
      <point x="272" y="725"/>
      <point x="239" y="719"/>
      <point x="209" y="707" type="curve" smooth="yes"/>
      <point x="179" y="695"/>
      <point x="151" y="679"/>
      <point x="128" y="659" type="curve" smooth="yes"/>
      <point x="105" y="639"/>
      <point x="85" y="615"/>
      <point x="70" y="588" type="curve" smooth="yes"/>
      <point x="55" y="561"/>
      <point x="46" y="531"/>
      <point x="42" y="500" type="curve" smooth="yes"/>
      <point x="38" y="467"/>
      <point x="40" y="438"/>
      <point x="48" y="412" type="curve" smooth="yes"/>
      <point x="56" y="386"/>
      <point x="67" y="365"/>
      <point x="83" y="347" type="curve" smooth="yes"/>
      <point x="99" y="329"/>
      <point x="119" y="317"/>
      <point x="142" y="308" type="curve" smooth="yes"/>
      <point x="165" y="299"/>
      <point x="190" y="294"/>
    </contour>
    <contour>
      <point x="422" y="504" type="curve" smooth="yes"/>
      <point x="420" y="486"/>
      <point x="415" y="468"/>
      <point x="406" y="451" type="curve" smooth="yes"/>
      <point x="397" y="434"/>
      <point x="385" y="419"/>
      <point x="371" y="406" type="curve" smooth="yes"/>
      <point x="357" y="393"/>
      <point x="339" y="382"/>
      <point x="320" y="374" type="curve" smooth="yes"/>
      <point x="301" y="366"/>
      <point x="279" y="363"/>
      <point x="255" y="363" type="curve" smooth="yes"/>
      <point x="233" y="363"/>
      <point x="215" y="366"/>
      <point x="198" y="372" type="curve" smooth="yes"/>
      <point x="181" y="378"/>
      <point x="168" y="388"/>
      <point x="157" y="400" type="curve" smooth="yes"/>
      <point x="146" y="412"/>
      <point x="138" y="427"/>
      <point x="134" y="445" type="curve" smooth="yes"/>
      <point x="130" y="463"/>
      <point x="129" y="483"/>
      <point x="132" y="506" type="curve" smooth="yes"/>
      <point x="135" y="527"/>
      <point x="141" y="546"/>
      <point x="150" y="564" type="curve" smooth="yes"/>
      <point x="159" y="582"/>
      <point x="171" y="597"/>
      <point x="185" y="610" type="curve" smooth="yes"/>
      <point x="199" y="623"/>
      <point x="216" y="632"/>
      <point x="235" y="639" type="curve" smooth="yes"/>
      <point x="254" y="646"/>
      <point x="275" y="650"/>
      <point x="297" y="650" type="curve" smooth="yes"/>
      <point x="318" y="650"/>
      <point x="336" y="647"/>
      <point x="353" y="640" type="curve" smooth="yes"/>
      <point x="370" y="633"/>
      <point x="384" y="624"/>
      <point x="395" y="611" type="curve" smooth="yes"/>
      <point x="406" y="598"/>
      <point x="414" y="582"/>
      <point x="419" y="564" type="curve" smooth="yes"/>
      <point x="424" y="546"/>
      <point x="425" y="526"/>
    </contour>
  </outline>
</glyph>
<glyph name="colon" format="1">
  <advance width="261"/>
  <unicode hex="003A"/>
  <note>
    colon
  </note>
  <outline>
    <contour>
      <point x="45" y="55" type="curve" smooth="yes"/>
      <point x="44" y="46"/>
      <point x="45" y="38"/>
      <point x="47" y="30" type="curve" smooth="yes"/>
      <point x="49" y="22"/>
      <point x="52" y="16"/>
      <point x="57" y="10" type="curve" smooth="yes"/>
      <point x="62" y="4"/>
      <point x="68" y="0"/>
      <point x="75" y="-3" type="curve" smooth="yes"/>
      <point x="82" y="-6"/>
      <point x="90" y="-8"/>
      <point x="99" y="-8" type="curve" smooth="yes"/>
      <point x="108" y="-8"/>
      <point x="116" y="-6"/>
      <point x="124" y="-3" type="curve" smooth="yes"/>
      <point x="132" y="0"/>
      <point x="140" y="4"/>
      <point x="146" y="10" type="curve" smooth="yes"/>
      <point x="152" y="16"/>
      <point x="158" y="22"/>
      <point x="162" y="30" type="curve" smooth="yes"/>
      <point x="166" y="38"/>
      <point x="169" y="46"/>
      <point x="170" y="55" type="curve" smooth="yes"/>
      <point x="171" y="64"/>
      <point x="170" y="72"/>
      <point x="168" y="80" type="curve" smooth="yes"/>
      <point x="166" y="88"/>
      <point x="162" y="93"/>
      <point x="157" y="99" type="curve" smooth="yes"/>
      <point x="152" y="105"/>
      <point x="146" y="110"/>
      <point x="139" y="113" type="curve" smooth="yes"/>
      <point x="132" y="116"/>
      <point x="124" y="118"/>
      <point x="115" y="118" type="curve" smooth="yes"/>
      <point x="106" y="118"/>
      <point x="98" y="116"/>
      <point x="90" y="113" type="curve" smooth="yes"/>
      <point x="82" y="110"/>
      <point x="74" y="105"/>
      <point x="68" y="99" type="curve" smooth="yes"/>
      <point x="62" y="93"/>
      <point x="57" y="88"/>
      <point x="53" y="80" type="curve" smooth="yes"/>
      <point x="49" y="72"/>
      <point x="46" y="64"/>
    </contour>
    <contour>
      <point x="91" y="430" type="curve" smooth="yes"/>
      <point x="90" y="421"/>
      <point x="91" y="413"/>
      <point x="93" y="405" type="curve" smooth="yes"/>
      <point x="95" y="397"/>
      <point x="98" y="392"/>
      <point x="103" y="386" type="curve" smooth="yes"/>
      <point x="108" y="380"/>
      <point x="114" y="375"/>
      <point x="121" y="372" type="curve" smooth="yes"/>
      <point x="128" y="369"/>
      <point x="136" y="368"/>
      <point x="145" y="368" type="curve" smooth="yes"/>
      <point x="154" y="368"/>
      <point x="162" y="369"/>
      <point x="170" y="372" type="curve" smooth="yes"/>
      <point x="178" y="375"/>
      <point x="186" y="380"/>
      <point x="192" y="386" type="curve" smooth="yes"/>
      <point x="198" y="392"/>
      <point x="204" y="397"/>
      <point x="208" y="405" type="curve" smooth="yes"/>
      <point x="212" y="413"/>
      <point x="215" y="421"/>
      <point x="216" y="430" type="curve" smooth="yes"/>
      <point x="217" y="439"/>
      <point x="216" y="447"/>
      <point x="214" y="455" type="curve" smooth="yes"/>
      <point x="212" y="463"/>
      <point x="208" y="469"/>
      <point x="203" y="475" type="curve" smooth="yes"/>
      <point x="198" y="481"/>
      <point x="192" y="485"/>
      <point x="185" y="488" type="curve" smooth="yes"/>
      <point x="178" y="491"/>
      <point x="170" y="493"/>
      <point x="161" y="493" type="curve" smooth="yes"/>
      <point x="152" y="493"/>
      <point x="144" y="491"/>
      <point x="136" y="488" type="curve" smooth="yes"/>
      <point x="128" y="485"/>
      <point x="120" y="481"/>
      <point x="114" y="475" type="curve" smooth="yes"/>
      <point x="108" y="469"/>
      <point x="103" y="463"/>
      <point x="99" y="455" type="curve" smooth="yes"/>
      <point x="95" y="447"/>
      <point x="92" y="439"/>
    </contour>
  </outline>
</glyph>
<glyph name="semicolon" format="1">
  <advance width="273"/>
  <unicode hex="003B"/>
  <note>
    semicolon
  </note>
  <outline>
    <contour>
      <point x="61" y="62" type="curve" smooth="yes"/>
      <point x="60" y="53"/>
      <point x="60" y="45"/>
      <point x="62" y="37" type="curve" smooth="yes"/>
      <point x="64" y="29"/>
      <point x="68" y="23"/>
      <point x="72" y="17" type="curve" smooth="yes"/>
      <point x="76" y="11"/>
      <point x="81" y="7"/>
      <point x="88" y="4" type="curve" smooth="yes"/>
      <point x="95" y="1"/>
      <point x="102" y="0"/>
      <point x="111" y="0" type="curve" smooth="yes"/>
      <point x="118" y="0" type="line"/>
      <point x="115" y="-11"/>
      <point x="110" y="-21"/>
      <point x="104" y="-31" type="curve" smooth="yes"/>
      <point x="98" y="-41"/>
      <point x="92" y="-50"/>
      <point x="86" y="-58" type="curve" smooth="yes"/>
      <point x="80" y="-66"/>
      <point x="74" y="-73"/>
      <point x="68" y="-79" type="curve" smooth="yes"/>
      <point x="53" y="-94" type="line" smooth="yes"/>
      <point x="48" y="-99"/>
      <point x="46" y="-103"/>
      <point x="45" y="-107" type="curve"/>
      <point x="44" y="-112"/>
      <point x="45" y="-117"/>
      <point x="49" y="-121" type="curve" smooth="yes"/>
      <point x="63" y="-136" type="line"/>
      <point x="80" y="-123"/>
      <point x="94" y="-109"/>
      <point x="108" y="-94" type="curve" smooth="yes"/>
      <point x="122" y="-79"/>
      <point x="133" y="-64"/>
      <point x="143" y="-48" type="curve" smooth="yes"/>
      <point x="153" y="-32"/>
      <point x="162" y="-16"/>
      <point x="168" y="0" type="curve" smooth="yes"/>
      <point x="174" y="16"/>
      <point x="178" y="32"/>
      <point x="180" y="47" type="curve" smooth="yes"/>
      <point x="181" y="57"/>
      <point x="181" y="67"/>
      <point x="179" y="75" type="curve" smooth="yes"/>
      <point x="177" y="83"/>
      <point x="174" y="91"/>
      <point x="170" y="97" type="curve" smooth="yes"/>
      <point x="166" y="103"/>
      <point x="160" y="109"/>
      <point x="153" y="113" type="curve" smooth="yes"/>
      <point x="146" y="117"/>
      <point x="137" y="118"/>
      <point x="127" y="118" type="curve" smooth="yes"/>
      <point x="118" y="118"/>
      <point x="110" y="117"/>
      <point x="102" y="114" type="curve" smooth="yes"/>
      <point x="94" y="111"/>
      <point x="88" y="106"/>
      <point x="82" y="101" type="curve" smooth="yes"/>
      <point x="76" y="96"/>
      <point x="72" y="90"/>
      <point x="68" y="83" type="curve" smooth="yes"/>
      <point x="64" y="76"/>
      <point x="62" y="70"/>
    </contour>
    <contour>
      <point x="103" y="430" type="curve" smooth="yes"/>
      <point x="102" y="421"/>
      <point x="103" y="413"/>
      <point x="105" y="405" type="curve" smooth="yes"/>
      <point x="107" y="397"/>
      <point x="110" y="392"/>
      <point x="115" y="386" type="curve" smooth="yes"/>
      <point x="120" y="380"/>
      <point x="126" y="375"/>
      <point x="133" y="372" type="curve" smooth="yes"/>
      <point x="140" y="369"/>
      <point x="148" y="368"/>
      <point x="157" y="368" type="curve" smooth="yes"/>
      <point x="166" y="368"/>
      <point x="174" y="369"/>
      <point x="182" y="372" type="curve" smooth="yes"/>
      <point x="190" y="375"/>
      <point x="198" y="380"/>
      <point x="204" y="386" type="curve" smooth="yes"/>
      <point x="210" y="392"/>
      <point x="216" y="397"/>
      <point x="220" y="405" type="curve" smooth="yes"/>
      <point x="224" y="413"/>
      <point x="227" y="421"/>
      <point x="228" y="430" type="curve" smooth="yes"/>
      <point x="229" y="439"/>
      <point x="228" y="447"/>
      <point x="226" y="455" type="curve" smooth="yes"/>
      <point x="224" y="463"/>
      <point x="220" y="469"/>
      <point x="215" y="475" type="curve" smooth="yes"/>
      <point x="210" y="481"/>
      <point x="204" y="485"/>
      <point x="197" y="488" type="curve" smooth="yes"/>
      <point x="190" y="491"/>
      <point x="182" y="493"/>
      <point x="173" y="493" type="curve" smooth="yes"/>
      <point x="164" y="493"/>
      <point x="156" y="491"/>
      <point x="148" y="488" type="curve" smooth="yes"/>
      <point x="140" y="485"/>
      <point x="132" y="481"/>
      <point x="126" y="475" type="curve" smooth="yes"/>
      <point x="120" y="469"/>
      <point x="115" y="463"/>
      <point x="111" y="455" type="curve" smooth="yes"/>
      <point x="107" y="447"/>
      <point x="104" y="439"/>
    </contour>
  </outline>
</glyph>
<glyph name="less" format="1">
  <advance width="505"/>
  <unicode hex="003C"/>
  <note>
    less
  </note>
  <outline>
    <contour>
      <point x="471" y="556" type="line"/>
      <point x="59" y="355" type="line"/>
      <point x="55" y="318" type="line"/>
      <point x="417" y="117" type="line"/>
      <point x="425" y="181" type="line"/>
      <point x="426" y="186"/>
      <point x="424" y="192"/>
      <point x="422" y="196" type="curve" smooth="yes"/>
      <point x="420" y="200"/>
      <point x="416" y="204"/>
      <point x="410" y="207" type="curve" smooth="yes"/>
      <point x="199" y="320" type="line" smooth="yes"/>
      <point x="193" y="323"/>
      <point x="186" y="327"/>
      <point x="179" y="330" type="curve" smooth="yes"/>
      <point x="172" y="333"/>
      <point x="164" y="334"/>
      <point x="156" y="336" type="curve"/>
      <point x="165" y="338"/>
      <point x="173" y="341"/>
      <point x="181" y="343" type="curve" smooth="yes"/>
      <point x="189" y="345"/>
      <point x="196" y="348"/>
      <point x="203" y="352" type="curve"/>
      <point x="442" y="466" type="line"/>
      <point x="449" y="469"/>
      <point x="454" y="473"/>
      <point x="457" y="477" type="curve" smooth="yes"/>
      <point x="460" y="481"/>
      <point x="462" y="486"/>
      <point x="463" y="492" type="curve"/>
    </contour>
  </outline>
</glyph>
<glyph name="equal" format="1">
  <advance width="594"/>
  <unicode hex="003D"/>
  <note>
    equal
  </note>
  <outline>
    <contour>
      <point x="506" y="287" type="line"/>
      <point x="76" y="287" type="line"/>
      <point x="68" y="220" type="line"/>
      <point x="497" y="220" type="line"/>
    </contour>
    <contour>
      <point x="526" y="454" type="line"/>
      <point x="97" y="454" type="line"/>
      <point x="89" y="387" type="line"/>
      <point x="518" y="387" type="line"/>
    </contour>
  </outline>
</glyph>
<glyph name="greater" format="1">
  <advance width="504"/>
  <unicode hex="003E"/>
  <note>
    greater
  </note>
  <outline>
    <contour>
      <point x="62" y="181" type="curve"/>
      <point x="55" y="117" type="line"/>
      <point x="466" y="318" type="line"/>
      <point x="470" y="355" type="line"/>
      <point x="108" y="556" type="line"/>
      <point x="101" y="492" type="line"/>
      <point x="100" y="486"/>
      <point x="101" y="481"/>
      <point x="103" y="477" type="curve" smooth="yes"/>
      <point x="105" y="473"/>
      <point x="109" y="469"/>
      <point x="115" y="466" type="curve" smooth="yes"/>
      <point x="326" y="352" type="line"/>
      <point x="332" y="348"/>
      <point x="338" y="345"/>
      <point x="345" y="343" type="curve" smooth="yes"/>
      <point x="352" y="341"/>
      <point x="360" y="338"/>
      <point x="368" y="336" type="curve"/>
      <point x="359" y="334"/>
      <point x="351" y="333"/>
      <point x="344" y="330" type="curve" smooth="yes"/>
      <point x="337" y="327"/>
      <point x="329" y="324"/>
      <point x="322" y="321" type="curve"/>
      <point x="84" y="207" type="line"/>
      <point x="77" y="204"/>
      <point x="71" y="200"/>
      <point x="68" y="196" type="curve" smooth="yes"/>
      <point x="65" y="192"/>
      <point x="63" y="186"/>
    </contour>
  </outline>
</glyph>
<glyph name="question" format="1">
  <advance width="425"/>
  <unicode hex="003F"/>
  <note>
    question
  </note>
  <outline>
    <contour>
      <point x="33" y="652" type="curve"/>
      <point x="52" y="615" type="line" smooth="yes"/>
      <point x="56" y="607"/>
      <point x="62" y="604"/>
      <point x="70" y="604" type="curve" smooth="yes"/>
      <point x="74" y="604"/>
      <point x="80" y="606"/>
      <point x="87" y="611" type="curve" smooth="yes"/>
      <point x="94" y="616"/>
      <point x="102" y="622"/>
      <point x="113" y="628" type="curve" smooth="yes"/>
      <point x="124" y="634"/>
      <point x="137" y="639"/>
      <point x="152" y="644" type="curve" smooth="yes"/>
      <point x="167" y="649"/>
      <point x="185" y="652"/>
      <point x="205" y="652" type="curve" smooth="yes"/>
      <point x="220" y="652"/>
      <point x="233" y="649"/>
      <point x="246" y="645" type="curve" smooth="yes"/>
      <point x="259" y="641"/>
      <point x="269" y="634"/>
      <point x="278" y="626" type="curve" smooth="yes"/>
      <point x="287" y="618"/>
      <point x="294" y="608"/>
      <point x="298" y="596" type="curve" smooth="yes"/>
      <point x="302" y="584"/>
      <point x="303" y="572"/>
      <point x="301" y="558" type="curve"/>
      <point x="299" y="538"/>
      <point x="293" y="521"/>
      <point x="284" y="506" type="curve" smooth="yes"/>
      <point x="275" y="491"/>
      <point x="263" y="478"/>
      <point x="250" y="466" type="curve" smooth="yes"/>
      <point x="237" y="454"/>
      <point x="224" y="445"/>
      <point x="210" y="435" type="curve" smooth="yes"/>
      <point x="196" y="425"/>
      <point x="182" y="416"/>
      <point x="169" y="406" type="curve"/>
      <point x="156" y="397"/>
      <point x="146" y="387"/>
      <point x="137" y="376" type="curve" smooth="yes"/>
      <point x="128" y="365"/>
      <point x="123" y="353"/>
      <point x="121" y="339" type="curve" smooth="yes"/>
      <point x="120" y="333" type="line"/>
      <point x="116" y="250" type="line"/>
      <point x="177" y="250" type="line"/>
      <point x="195" y="327" type="line"/>
      <point x="198" y="338"/>
      <point x="204" y="348"/>
      <point x="214" y="357" type="curve" smooth="yes"/>
      <point x="224" y="366"/>
      <point x="235" y="375"/>
      <point x="248" y="384" type="curve" smooth="yes"/>
      <point x="261" y="393"/>
      <point x="274" y="402"/>
      <point x="289" y="412" type="curve" smooth="yes"/>
      <point x="304" y="422"/>
      <point x="319" y="434"/>
      <point x="332" y="448" type="curve" smooth="yes"/>
      <point x="345" y="462"/>
      <point x="356" y="479"/>
      <point x="366" y="497" type="curve" smooth="yes"/>
      <point x="376" y="515"/>
      <point x="382" y="537"/>
      <point x="385" y="562" type="curve" smooth="yes"/>
      <point x="388" y="587"/>
      <point x="387" y="610"/>
      <point x="380" y="630" type="curve" smooth="yes"/>
      <point x="373" y="650"/>
      <point x="362" y="667"/>
      <point x="347" y="681" type="curve" smooth="yes"/>
      <point x="332" y="695"/>
      <point x="315" y="705"/>
      <point x="293" y="713" type="curve" smooth="yes"/>
      <point x="271" y="721"/>
      <point x="247" y="725"/>
      <point x="221" y="725" type="curve" smooth="yes"/>
      <point x="201" y="725"/>
      <point x="183" y="723"/>
      <point x="165" y="719" type="curve" smooth="yes"/>
      <point x="147" y="715"/>
      <point x="131" y="710"/>
      <point x="115" y="703" type="curve" smooth="yes"/>
      <point x="99" y="696"/>
      <point x="85" y="689"/>
      <point x="71" y="680" type="curve" smooth="yes"/>
      <point x="57" y="671"/>
      <point x="45" y="662"/>
    </contour>
    <contour>
      <point x="58" y="55" type="curve" smooth="yes"/>
      <point x="57" y="46"/>
      <point x="58" y="38"/>
      <point x="60" y="30" type="curve" smooth="yes"/>
      <point x="62" y="22"/>
      <point x="65" y="17"/>
      <point x="70" y="11" type="curve" smooth="yes"/>
      <point x="75" y="5"/>
      <point x="82" y="0"/>
      <point x="89" y="-3" type="curve" smooth="yes"/>
      <point x="96" y="-6"/>
      <point x="103" y="-7"/>
      <point x="112" y="-7" type="curve" smooth="yes"/>
      <point x="121" y="-7"/>
      <point x="130" y="-6"/>
      <point x="138" y="-3" type="curve" smooth="yes"/>
      <point x="146" y="0"/>
      <point x="153" y="5"/>
      <point x="159" y="11" type="curve" smooth="yes"/>
      <point x="165" y="17"/>
      <point x="171" y="22"/>
      <point x="175" y="30" type="curve" smooth="yes"/>
      <point x="179" y="38"/>
      <point x="182" y="46"/>
      <point x="183" y="55" type="curve" smooth="yes"/>
      <point x="184" y="64"/>
      <point x="183" y="72"/>
      <point x="181" y="80" type="curve" smooth="yes"/>
      <point x="179" y="88"/>
      <point x="175" y="94"/>
      <point x="170" y="100" type="curve" smooth="yes"/>
      <point x="165" y="106"/>
      <point x="159" y="110"/>
      <point x="152" y="113" type="curve" smooth="yes"/>
      <point x="145" y="116"/>
      <point x="137" y="118"/>
      <point x="128" y="118" type="curve" smooth="yes"/>
      <point x="119" y="118"/>
      <point x="111" y="116"/>
      <point x="103" y="113" type="curve" smooth="yes"/>
      <point x="95" y="110"/>
      <point x="87" y="106"/>
      <point x="81" y="100" type="curve" smooth="yes"/>
      <point x="75" y="94"/>
      <point x="70" y="88"/>
      <point x="66" y="80" type="curve" smooth="yes"/>
      <point x="62" y="72"/>
      <point x="59" y="64"/>
    </contour>
  </outline>
</glyph>
<glyph name="at" format="1">
  <advance width="839"/>
  <unicode hex="0040"/>
  <note>
    at
  </note>
  <outline>
    <contour>
      <point x="564" y="93" type="curve" smooth="yes"/>
      <point x="592" y="93"/>
      <point x="619" y="99"/>
      <point x="645" y="112" type="curve" smooth="yes"/>
      <point x="671" y="125"/>
      <point x="693" y="142"/>
      <point x="714" y="164" type="curve" smooth="yes"/>
      <point x="735" y="186"/>
      <point x="752" y="214"/>
      <point x="766" y="244" type="curve" smooth="yes"/>
      <point x="780" y="274"/>
      <point x="789" y="308"/>
      <point x="793" y="344" type="curve" smooth="yes"/>
      <point x="797" y="380"/>
      <point x="797" y="413"/>
      <point x="792" y="443" type="curve" smooth="yes"/>
      <point x="787" y="473"/>
      <point x="778" y="501"/>
      <point x="765" y="526" type="curve" smooth="yes"/>
      <point x="752" y="551"/>
      <point x="737" y="573"/>
      <point x="717" y="592" type="curve" smooth="yes"/>
      <point x="697" y="611"/>
      <point x="675" y="627"/>
      <point x="650" y="640" type="curve" smooth="yes"/>
      <point x="625" y="653"/>
      <point x="600" y="663"/>
      <point x="571" y="670" type="curve" smooth="yes"/>
      <point x="542" y="677"/>
      <point x="513" y="680"/>
      <point x="482" y="680" type="curve" smooth="yes"/>
      <point x="446" y="680"/>
      <point x="411" y="675"/>
      <point x="377" y="665" type="curve" smooth="yes"/>
      <point x="343" y="656"/>
      <point x="310" y="642"/>
      <point x="279" y="625" type="curve" smooth="yes"/>
      <point x="248" y="608"/>
      <point x="220" y="587"/>
      <point x="194" y="563" type="curve" smooth="yes"/>
      <point x="168" y="539"/>
      <point x="144" y="512"/>
      <point x="124" y="483" type="curve" smooth="yes"/>
      <point x="104" y="454"/>
      <point x="87" y="423"/>
      <point x="74" y="389" type="curve" smooth="yes"/>
      <point x="61" y="355"/>
      <point x="51" y="320"/>
      <point x="47" y="284" type="curve" smooth="yes"/>
      <point x="39" y="221"/>
      <point x="42" y="164"/>
      <point x="57" y="114" type="curve" smooth="yes"/>
      <point x="72" y="64"/>
      <point x="96" y="21"/>
      <point x="128" y="-13" type="curve" smooth="yes"/>
      <point x="160" y="-47"/>
      <point x="200" y="-74"/>
      <point x="247" y="-92" type="curve" smooth="yes"/>
      <point x="294" y="-110"/>
      <point x="347" y="-119"/>
      <point x="405" y="-119" type="curve" smooth="yes"/>
      <point x="463" y="-119"/>
      <point x="515" y="-113"/>
      <point x="562" y="-99" type="curve" smooth="yes"/>
      <point x="609" y="-85"/>
      <point x="652" y="-66"/>
      <point x="691" y="-42" type="curve"/>
      <point x="682" y="-9" type="line" smooth="yes"/>
      <point x="680" y="-1"/>
      <point x="675" y="3"/>
      <point x="668" y="3" type="curve" smooth="yes"/>
      <point x="664" y="3"/>
      <point x="659" y="1"/>
      <point x="654" y="-2" type="curve" smooth="yes"/>
      <point x="624" y="-19"/>
      <point x="589" y="-33"/>
      <point x="549" y="-44" type="curve" smooth="yes"/>
      <point x="509" y="-55"/>
      <point x="463" y="-60"/>
      <point x="412" y="-60" type="curve" smooth="yes"/>
      <point x="364" y="-60"/>
      <point x="321" y="-53"/>
      <point x="281" y="-38" type="curve" smooth="yes"/>
      <point x="241" y="-23"/>
      <point x="208" y="-2"/>
      <point x="181" y="27" type="curve" smooth="yes"/>
      <point x="154" y="56"/>
      <point x="134" y="92"/>
      <point x="121" y="135" type="curve" smooth="yes"/>
      <point x="108" y="178"/>
      <point x="106" y="227"/>
      <point x="113" y="284" type="curve" smooth="yes"/>
      <point x="119" y="332"/>
      <point x="132" y="377"/>
      <point x="154" y="418" type="curve" smooth="yes"/>
      <point x="176" y="459"/>
      <point x="203" y="495"/>
      <point x="236" y="525" type="curve" smooth="yes"/>
      <point x="269" y="555"/>
      <point x="305" y="578"/>
      <point x="346" y="595" type="curve" smooth="yes"/>
      <point x="387" y="612"/>
      <point x="430" y="621"/>
      <point x="475" y="621" type="curve" smooth="yes"/>
      <point x="516" y="621"/>
      <point x="552" y="615"/>
      <point x="586" y="603" type="curve" smooth="yes"/>
      <point x="620" y="592"/>
      <point x="649" y="574"/>
      <point x="672" y="551" type="curve" smooth="yes"/>
      <point x="695" y="528"/>
      <point x="711" y="500"/>
      <point x="722" y="465" type="curve" smooth="yes"/>
      <point x="733" y="430"/>
      <point x="735" y="390"/>
      <point x="729" y="344" type="curve" smooth="yes"/>
      <point x="725" y="315"/>
      <point x="719" y="288"/>
      <point x="710" y="264" type="curve" smooth="yes"/>
      <point x="701" y="240"/>
      <point x="689" y="220"/>
      <point x="676" y="203" type="curve" smooth="yes"/>
      <point x="663" y="186"/>
      <point x="648" y="173"/>
      <point x="632" y="164" type="curve" smooth="yes"/>
      <point x="616" y="155"/>
      <point x="600" y="150"/>
      <point x="584" y="150" type="curve" smooth="yes"/>
      <point x="576" y="150"/>
      <point x="570" y="150"/>
      <point x="563" y="152" type="curve" smooth="yes"/>
      <point x="556" y="154"/>
      <point x="551" y="157"/>
      <point x="546" y="161" type="curve" smooth="yes"/>
      <point x="541" y="165"/>
      <point x="538" y="172"/>
      <point x="536" y="180" type="curve" smooth="yes"/>
      <point x="534" y="188"/>
      <point x="534" y="198"/>
      <point x="535" y="210" type="curve"/>
      <point x="537" y="226"/>
      <point x="543" y="247"/>
      <point x="552" y="272" type="curve" smooth="yes"/>
      <point x="621" y="452" type="line"/>
      <point x="607" y="459"/>
      <point x="591" y="463"/>
      <point x="575" y="467" type="curve" smooth="yes"/>
      <point x="559" y="471"/>
      <point x="539" y="473"/>
      <point x="517" y="473" type="curve" smooth="yes"/>
      <point x="475" y="473"/>
      <point x="438" y="466"/>
      <point x="404" y="451" type="curve" smooth="yes"/>
      <point x="370" y="436"/>
      <point x="341" y="417"/>
      <point x="317" y="394" type="curve" smooth="yes"/>
      <point x="293" y="371"/>
      <point x="273" y="345"/>
      <point x="259" y="316" type="curve" smooth="yes"/>
      <point x="245" y="287"/>
      <point x="235" y="258"/>
      <point x="232" y="230" type="curve" smooth="yes"/>
      <point x="230" y="211"/>
      <point x="230" y="193"/>
      <point x="233" y="176" type="curve" smooth="yes"/>
      <point x="236" y="159"/>
      <point x="242" y="145"/>
      <point x="250" y="133" type="curve" smooth="yes"/>
      <point x="258" y="121"/>
      <point x="269" y="111"/>
      <point x="283" y="104" type="curve" smooth="yes"/>
      <point x="297" y="97"/>
      <point x="314" y="94"/>
      <point x="334" y="94" type="curve" smooth="yes"/>
      <point x="360" y="94"/>
      <point x="385" y="100"/>
      <point x="409" y="112" type="curve" smooth="yes"/>
      <point x="433" y="124"/>
      <point x="456" y="143"/>
      <point x="479" y="170" type="curve"/>
      <point x="480" y="144"/>
      <point x="488" y="124"/>
      <point x="503" y="112" type="curve" smooth="yes"/>
      <point x="518" y="100"/>
      <point x="538" y="93"/>
    </contour>
    <contour>
      <point x="358" y="153" type="curve" smooth="yes"/>
      <point x="336" y="153"/>
      <point x="321" y="161"/>
      <point x="312" y="175" type="curve" smooth="yes"/>
      <point x="303" y="189"/>
      <point x="300" y="209"/>
      <point x="303" y="233" type="curve" smooth="yes"/>
      <point x="306" y="256"/>
      <point x="313" y="278"/>
      <point x="324" y="300" type="curve" smooth="yes"/>
      <point x="335" y="322"/>
      <point x="349" y="342"/>
      <point x="366" y="359" type="curve" smooth="yes"/>
      <point x="383" y="376"/>
      <point x="403" y="390"/>
      <point x="425" y="400" type="curve" smooth="yes"/>
      <point x="447" y="410"/>
      <point x="471" y="416"/>
      <point x="496" y="416" type="curve" smooth="yes"/>
      <point x="511" y="416"/>
      <point x="525" y="414"/>
      <point x="538" y="411" type="curve"/>
      <point x="482" y="264" type="line" smooth="yes"/>
      <point x="474" y="242"/>
      <point x="464" y="224"/>
      <point x="454" y="210" type="curve" smooth="yes"/>
      <point x="444" y="196"/>
      <point x="434" y="184"/>
      <point x="423" y="176" type="curve" smooth="yes"/>
      <point x="412" y="168"/>
      <point x="401" y="161"/>
      <point x="390" y="158" type="curve" smooth="yes"/>
      <point x="379" y="155"/>
      <point x="368" y="153"/>
    </contour>
  </outline>
</glyph>
<glyph name="B" format="1">
  <advance width="719"/>
  <unicode hex="0042"/>
  <note>
    B
  </note>
  <outline>
    <contour>
      <point x="520" y="368" type="curve"/>
      <point x="566" y="382"/>
      <point x="602" y="404"/>
      <point x="629" y="433" type="curve" smooth="yes"/>
      <point x="642" y="447"/>
      <point x="652" y="462"/>
      <point x="660" y="478" type="curve" smooth="yes"/>
      <point x="668" y="494"/>
      <point x="672" y="515"/>
      <point x="675" y="538" type="curve" smooth="yes"/>
      <point x="678" y="561"/>
      <point x="676" y="585"/>
      <point x="669" y="608" type="curve" smooth="yes"/>
      <point x="647" y="680"/>
      <point x="572" y="716"/>
      <point x="444" y="716" type="curve" smooth="yes"/>
      <point x="144" y="716" type="line"/>
      <point x="139" y="674" type="line" smooth="yes"/>
      <point x="138" y="664"/>
      <point x="141" y="657"/>
      <point x="151" y="655" type="curve" smooth="yes"/>
      <point x="157" y="654"/>
      <point x="176" y="650"/>
      <point x="207" y="644" type="curve"/>
      <point x="137" y="73" type="line"/>
      <point x="79" y="62" type="line" smooth="yes"/>
      <point x="69" y="60"/>
      <point x="62" y="53"/>
      <point x="61" y="43" type="curve" smooth="yes"/>
      <point x="56" y="0" type="line"/>
      <point x="381" y="0" type="line" smooth="yes"/>
      <point x="460" y="0"/>
      <point x="524" y="18"/>
      <point x="574" y="56" type="curve" smooth="yes"/>
      <point x="622" y="93"/>
      <point x="650" y="142"/>
      <point x="658" y="204" type="curve" smooth="yes"/>
      <point x="669" y="293"/>
      <point x="623" y="347"/>
    </contour>
    <contour>
      <point x="274" y="396" type="line"/>
      <point x="304" y="640" type="line"/>
      <point x="435" y="640" type="line" smooth="yes"/>
      <point x="488" y="640"/>
      <point x="526" y="630"/>
      <point x="549" y="610" type="curve" smooth="yes"/>
      <point x="572" y="590"/>
      <point x="581" y="560"/>
      <point x="576" y="518" type="curve" smooth="yes"/>
      <point x="574" y="500"/>
      <point x="568" y="483"/>
      <point x="560" y="468" type="curve" smooth="yes"/>
      <point x="534" y="420"/>
      <point x="482" y="396"/>
      <point x="402" y="396" type="curve" smooth="yes"/>
    </contour>
    <contour>
      <point x="389" y="77" type="curve" smooth="yes"/>
      <point x="234" y="77" type="line"/>
      <point x="265" y="326" type="line"/>
      <point x="420" y="326" type="line" smooth="yes"/>
      <point x="473" y="326"/>
      <point x="510" y="316"/>
      <point x="534" y="294" type="curve" smooth="yes"/>
      <point x="558" y="272"/>
      <point x="568" y="243"/>
      <point x="563" y="206" type="curve" smooth="yes"/>
      <point x="561" y="187"/>
      <point x="555" y="170"/>
      <point x="547" y="154" type="curve" smooth="yes"/>
      <point x="521" y="102"/>
      <point x="469" y="77"/>
    </contour>
    <contour>
      <point x="348" y="0" type="move" name="bottom"/>
    </contour>
    <contour>
      <point x="434" y="716" type="move" name="top"/>
    </contour>
  </outline>
</glyph>
<glyph name="C" format="1">
  <advance width="712"/>
  <unicode hex="0043"/>
  <note>
    C
  </note>
  <outline>
    <contour>
      <point x="457" y="724" type="curve" smooth="yes"/>
      <point x="347" y="724"/>
      <point x="255" y="690"/>
      <point x="180" y="622" type="curve" smooth="yes"/>
      <point x="105" y="554"/>
      <point x="60" y="466"/>
      <point x="47" y="358" type="curve" smooth="yes"/>
      <point x="34" y="249"/>
      <point x="55" y="161"/>
      <point x="109" y="94" type="curve" smooth="yes"/>
      <point x="163" y="26"/>
      <point x="241" y="-8"/>
      <point x="344" y="-8" type="curve" smooth="yes"/>
      <point x="454" y="-8"/>
      <point x="544" y="28"/>
      <point x="615" y="100" type="curve"/>
      <point x="582" y="142" type="line"/>
      <point x="578" y="146"/>
      <point x="574" y="148"/>
      <point x="569" y="148" type="curve" smooth="yes"/>
      <point x="564" y="148"/>
      <point x="557" y="145"/>
      <point x="551" y="140" type="curve" smooth="yes"/>
      <point x="522" y="117"/>
      <point x="490" y="100"/>
      <point x="456" y="88" type="curve" smooth="yes"/>
      <point x="434" y="80"/>
      <point x="402" y="76"/>
      <point x="360" y="76" type="curve" smooth="yes"/>
      <point x="288" y="76"/>
      <point x="232" y="100"/>
      <point x="193" y="150" type="curve" smooth="yes"/>
      <point x="151" y="202"/>
      <point x="135" y="271"/>
      <point x="146" y="358" type="curve" smooth="yes"/>
      <point x="157" y="444"/>
      <point x="190" y="513"/>
      <point x="245" y="564" type="curve" smooth="yes"/>
      <point x="330" y="644"/>
      <point x="444" y="661"/>
      <point x="588" y="614" type="curve"/>
      <point x="588" y="610"/>
      <point x="587" y="594"/>
      <point x="586" y="568" type="curve" smooth="yes"/>
      <point x="585" y="542"/>
      <point x="584" y="527"/>
      <point x="585" y="523" type="curve"/>
      <point x="586" y="512"/>
      <point x="593" y="506"/>
      <point x="604" y="506" type="curve" smooth="yes"/>
      <point x="652" y="506" type="line"/>
      <point x="666" y="617" type="line"/>
      <point x="673" y="673" type="line"/>
      <point x="586" y="707"/>
      <point x="514" y="724"/>
    </contour>
    <contour>
      <point x="310" y="0" type="move" name="bottom"/>
    </contour>
    <contour>
      <point x="446" y="716" type="move" name="top"/>
    </contour>
  </outline>
</glyph>
<glyph name="D" format="1">
  <advance width="830"/>
  <unicode hex="0044"/>
  <note>
    D
  </note>
  <outline>
    <contour>
      <point x="783" y="358" type="curve" smooth="yes"/>
      <point x="796" y="465"/>
      <point x="774" y="552"/>
      <point x="717" y="618" type="curve" smooth="yes"/>
      <point x="660" y="684"/>
      <point x="580" y="716"/>
      <point x="474" y="716" type="curve" smooth="yes"/>
      <point x="143" y="716" type="line"/>
      <point x="138" y="674" type="line" smooth="yes"/>
      <point x="137" y="664"/>
      <point x="141" y="657"/>
      <point x="151" y="655" type="curve" smooth="yes"/>
      <point x="157" y="654"/>
      <point x="176" y="650"/>
      <point x="207" y="644" type="curve"/>
      <point x="136" y="73" type="line"/>
      <point x="78" y="62" type="line" smooth="yes"/>
      <point x="68" y="60"/>
      <point x="62" y="53"/>
      <point x="61" y="43" type="curve" smooth="yes"/>
      <point x="56" y="0" type="line"/>
      <point x="386" y="0" type="line" smooth="yes"/>
      <point x="491" y="0"/>
      <point x="581" y="32"/>
      <point x="654" y="98" type="curve" smooth="yes"/>
      <point x="689" y="129"/>
      <point x="717" y="168"/>
      <point x="739" y="212" type="curve" smooth="yes"/>
      <point x="761" y="256"/>
      <point x="776" y="304"/>
    </contour>
    <contour>
      <point x="683" y="358" type="curve" smooth="yes"/>
      <point x="672" y="271"/>
      <point x="641" y="202"/>
      <point x="589" y="152" type="curve" smooth="yes"/>
      <point x="538" y="103"/>
      <point x="474" y="78"/>
      <point x="396" y="78" type="curve" smooth="yes"/>
      <point x="235" y="78" type="line"/>
      <point x="303" y="638" type="line"/>
      <point x="464" y="638" type="line" smooth="yes"/>
      <point x="542" y="638"/>
      <point x="601" y="613"/>
      <point x="640" y="564" type="curve" smooth="yes"/>
      <point x="659" y="540"/>
      <point x="672" y="511"/>
      <point x="680" y="476" type="curve" smooth="yes"/>
      <point x="688" y="441"/>
      <point x="688" y="402"/>
    </contour>
    <contour>
      <point x="403" y="0" type="move" name="bottom"/>
    </contour>
    <contour>
      <point x="446" y="358" type="move" name="center"/>
    </contour>
    <contour>
      <point x="489" y="716" type="move" name="top"/>
    </contour>
  </outline>
</glyph>
<glyph name="E" format="1">
  <advance width="702"/>
  <unicode hex="0045"/>
  <note>
    E
  </note>
  <outline>
    <contour>
      <point x="657" y="716" type="line"/>
      <point x="143" y="716" type="line"/>
      <point x="138" y="674" type="line" smooth="yes"/>
      <point x="137" y="664"/>
      <point x="141" y="657"/>
      <point x="151" y="655" type="curve" smooth="yes"/>
      <point x="157" y="654"/>
      <point x="176" y="650"/>
      <point x="207" y="644" type="curve"/>
      <point x="136" y="73" type="line"/>
      <point x="78" y="62" type="line" smooth="yes"/>
      <point x="68" y="60"/>
      <point x="62" y="53"/>
      <point x="61" y="43" type="curve" smooth="yes"/>
      <point x="56" y="0" type="line"/>
      <point x="569" y="0" type="line"/>
      <point x="590" y="167" type="line"/>
      <point x="542" y="167" type="line" smooth="yes"/>
      <point x="530" y="167"/>
      <point x="522" y="161"/>
      <point x="518" y="150" type="curve" smooth="yes"/>
      <point x="517" y="147"/>
      <point x="512" y="123"/>
      <point x="503" y="79" type="curve"/>
      <point x="235" y="79" type="line"/>
      <point x="265" y="324" type="line"/>
      <point x="529" y="324" type="line"/>
      <point x="538" y="400" type="line"/>
      <point x="274" y="400" type="line"/>
      <point x="303" y="638" type="line"/>
      <point x="571" y="638" type="line"/>
      <point x="569" y="590"/>
      <point x="569" y="564"/>
      <point x="569" y="561" type="curve"/>
      <point x="570" y="549"/>
      <point x="576" y="544"/>
      <point x="588" y="544" type="curve" smooth="yes"/>
      <point x="636" y="544" type="line"/>
    </contour>
    <contour>
      <point x="321" y="0" type="move" name="bottom"/>
    </contour>
    <contour>
      <point x="551" y="10" type="move" name="ogonek"/>
    </contour>
    <contour>
      <point x="407" y="716" type="move" name="top"/>
    </contour>
    <contour>
      <point x="140" y="716" type="move" name="topleft"/>
    </contour>
  </outline>
</glyph>
<glyph name="F" format="1">
  <advance width="724"/>
  <unicode hex="0046"/>
  <note>
    F
  </note>
  <outline>
    <contour>
      <point x="674" y="716" type="line"/>
      <point x="215" y="716" type="line"/>
      <point x="143" y="716" type="line"/>
      <point x="138" y="674" type="line" smooth="yes"/>
      <point x="137" y="664"/>
      <point x="141" y="657"/>
      <point x="151" y="655" type="curve" smooth="yes"/>
      <point x="157" y="654"/>
      <point x="176" y="650"/>
      <point x="207" y="644" type="curve"/>
      <point x="136" y="73" type="line"/>
      <point x="78" y="62" type="line" smooth="yes"/>
      <point x="68" y="60"/>
      <point x="62" y="53"/>
      <point x="61" y="43" type="curve" smooth="yes"/>
      <point x="56" y="0" type="line"/>
      <point x="297" y="0" type="line"/>
      <point x="302" y="43" type="line" smooth="yes"/>
      <point x="303" y="53"/>
      <point x="300" y="60"/>
      <point x="290" y="62" type="curve" smooth="yes"/>
      <point x="261" y="68"/>
      <point x="242" y="71"/>
      <point x="234" y="73" type="curve"/>
      <point x="263" y="308" type="line"/>
      <point x="535" y="308" type="line"/>
      <point x="545" y="387" type="line"/>
      <point x="273" y="387" type="line"/>
      <point x="303" y="638" type="line"/>
      <point x="588" y="638" type="line"/>
      <point x="586" y="590"/>
      <point x="586" y="564"/>
      <point x="586" y="561" type="curve"/>
      <point x="587" y="549"/>
      <point x="593" y="544"/>
      <point x="604" y="544" type="curve" smooth="yes"/>
      <point x="653" y="544" type="line"/>
    </contour>
    <contour>
      <point x="326" y="0" type="move" name="bottom"/>
    </contour>
    <contour>
      <point x="412" y="716" type="move" name="top"/>
    </contour>
  </outline>
</glyph>
<glyph name="G" format="1">
  <advance width="780"/>
  <unicode hex="0047"/>
  <note>
    G
  </note>
  <outline>
    <contour>
      <point x="373" y="70" type="curve" smooth="yes"/>
      <point x="295" y="70"/>
      <point x="236" y="95"/>
      <point x="194" y="146" type="curve" smooth="yes"/>
      <point x="151" y="198"/>
      <point x="135" y="269"/>
      <point x="146" y="358" type="curve" smooth="yes"/>
      <point x="157" y="445"/>
      <point x="189" y="513"/>
      <point x="243" y="564" type="curve" smooth="yes"/>
      <point x="269" y="588"/>
      <point x="299" y="608"/>
      <point x="333" y="621" type="curve" smooth="yes"/>
      <point x="367" y="634"/>
      <point x="410" y="640"/>
      <point x="458" y="640" type="curve" smooth="yes"/>
      <point x="506" y="640"/>
      <point x="549" y="635"/>
      <point x="585" y="625" type="curve"/>
      <point x="594" y="622"/>
      <point x="607" y="619"/>
      <point x="622" y="614" type="curve"/>
      <point x="620" y="559"/>
      <point x="618" y="528"/>
      <point x="618" y="523" type="curve"/>
      <point x="619" y="512"/>
      <point x="625" y="506"/>
      <point x="637" y="506" type="curve" smooth="yes"/>
      <point x="685" y="506" type="line"/>
      <point x="705" y="673" type="line"/>
      <point x="618" y="707"/>
      <point x="537" y="724"/>
      <point x="459" y="724" type="curve" smooth="yes"/>
      <point x="348" y="724"/>
      <point x="254" y="691"/>
      <point x="179" y="623" type="curve" smooth="yes"/>
      <point x="105" y="556"/>
      <point x="61" y="468"/>
      <point x="47" y="358" type="curve" smooth="yes"/>
      <point x="34" y="250"/>
      <point x="56" y="161"/>
      <point x="114" y="93" type="curve" smooth="yes"/>
      <point x="172" y="25"/>
      <point x="253" y="-8"/>
      <point x="357" y="-8" type="curve" smooth="yes"/>
      <point x="467" y="-8"/>
      <point x="561" y="17"/>
      <point x="639" y="69" type="curve"/>
      <point x="673" y="344" type="line"/>
      <point x="453" y="344" type="line"/>
      <point x="446" y="289" type="line"/>
      <point x="445" y="284"/>
      <point x="447" y="280"/>
      <point x="450" y="276" type="curve" smooth="yes"/>
      <point x="453" y="272"/>
      <point x="458" y="270"/>
      <point x="464" y="270" type="curve" smooth="yes"/>
      <point x="575" y="270" type="line"/>
      <point x="556" y="112" type="line"/>
      <point x="500" y="84"/>
      <point x="438" y="70"/>
    </contour>
    <contour>
      <point x="338" y="0" type="move" name="bottom"/>
    </contour>
    <contour>
      <point x="424" y="716" type="move" name="top"/>
    </contour>
  </outline>
</glyph>
<glyph name="H" format="1">
  <advance width="925"/>
  <unicode hex="0048"/>
  <note>
    H
  </note>
  <outline>
    <contour>
      <point x="788" y="644" type="line"/>
      <point x="846" y="655" type="line" smooth="yes"/>
      <point x="857" y="657"/>
      <point x="863" y="664"/>
      <point x="864" y="674" type="curve" smooth="yes"/>
      <point x="869" y="716" type="line"/>
      <point x="627" y="716" type="line"/>
      <point x="622" y="674" type="line" smooth="yes"/>
      <point x="621" y="664"/>
      <point x="624" y="658"/>
      <point x="632" y="656" type="curve" smooth="yes"/>
      <point x="640" y="654"/>
      <point x="660" y="650"/>
      <point x="691" y="644" type="curve"/>
      <point x="660" y="397" type="line"/>
      <point x="274" y="397" type="line"/>
      <point x="305" y="644" type="line"/>
      <point x="339" y="651"/>
      <point x="360" y="654"/>
      <point x="367" y="656" type="curve"/>
      <point x="374" y="657"/>
      <point x="379" y="664"/>
      <point x="380" y="674" type="curve" smooth="yes"/>
      <point x="385" y="716" type="line"/>
      <point x="144" y="716" type="line"/>
      <point x="139" y="674" type="line" smooth="yes"/>
      <point x="138" y="664"/>
      <point x="140" y="658"/>
      <point x="148" y="656" type="curve" smooth="yes"/>
      <point x="156" y="654"/>
      <point x="176" y="650"/>
      <point x="207" y="644" type="curve"/>
      <point x="137" y="73" type="line"/>
      <point x="79" y="62" type="line" smooth="yes"/>
      <point x="69" y="60"/>
      <point x="62" y="53"/>
      <point x="61" y="43" type="curve" smooth="yes"/>
      <point x="56" y="0" type="line"/>
      <point x="297" y="0" type="line"/>
      <point x="303" y="43" type="line"/>
      <point x="304" y="53"/>
      <point x="281" y="63"/>
      <point x="234" y="73" type="curve"/>
      <point x="266" y="326" type="line"/>
      <point x="652" y="326" type="line"/>
      <point x="620" y="73" type="line"/>
      <point x="562" y="62" type="line" smooth="yes"/>
      <point x="552" y="60"/>
      <point x="546" y="53"/>
      <point x="545" y="43" type="curve"/>
      <point x="539" y="0" type="line"/>
      <point x="781" y="0" type="line"/>
      <point x="787" y="43" type="line"/>
      <point x="788" y="53"/>
      <point x="785" y="59"/>
      <point x="777" y="61" type="curve" smooth="yes"/>
      <point x="769" y="63"/>
      <point x="750" y="67"/>
      <point x="718" y="73" type="curve"/>
    </contour>
    <contour>
      <point x="424" y="0" type="move" name="bottom"/>
    </contour>
    <contour>
      <point x="467" y="358" type="move" name="center"/>
    </contour>
    <contour>
      <point x="510" y="716" type="move" name="top"/>
    </contour>
    <contour>
      <point x="141" y="716" type="move" name="topleft"/>
    </contour>
  </outline>
</glyph>
<glyph name="I" format="1">
  <advance width="441"/>
  <unicode hex="0049"/>
  <note>
    I
  </note>
  <outline>
    <contour>
      <point x="304" y="644" type="line"/>
      <point x="362" y="655" type="line" smooth="yes"/>
      <point x="373" y="657"/>
      <point x="379" y="664"/>
      <point x="380" y="674" type="curve" smooth="yes"/>
      <point x="385" y="716" type="line"/>
      <point x="144" y="716" type="line"/>
      <point x="139" y="674" type="line" smooth="yes"/>
      <point x="138" y="664"/>
      <point x="140" y="658"/>
      <point x="148" y="656" type="curve" smooth="yes"/>
      <point x="156" y="654"/>
      <point x="176" y="650"/>
      <point x="207" y="644" type="curve"/>
      <point x="137" y="73" type="line"/>
      <point x="79" y="62" type="line" smooth="yes"/>
      <point x="69" y="60"/>
      <point x="62" y="53"/>
      <point x="61" y="43" type="curve" smooth="yes"/>
      <point x="56" y="0" type="line"/>
      <point x="297" y="0" type="line"/>
      <point x="303" y="43" type="line"/>
      <point x="304" y="53"/>
      <point x="301" y="59"/>
      <point x="293" y="61" type="curve" smooth="yes"/>
      <point x="285" y="63"/>
      <point x="266" y="67"/>
      <point x="234" y="73" type="curve"/>
    </contour>
    <contour>
      <point x="182" y="0" type="move" name="bottom"/>
    </contour>
    <contour>
      <point x="300" y="10" type="move" name="ogonek"/>
    </contour>
    <contour>
      <point x="268" y="716" type="move" name="top"/>
    </contour>
    <contour>
      <point x="141" y="716" type="move" name="topleft"/>
    </contour>
  </outline>
</glyph>
<glyph name="J" format="1">
  <advance width="510"/>
  <unicode hex="004A"/>
  <note>
    J
  </note>
  <outline>
    <contour>
      <point x="101" y="73" type="curve" smooth="yes"/>
      <point x="84" y="73"/>
      <point x="71" y="75"/>
      <point x="61" y="78" type="curve" smooth="yes"/>
      <point x="51" y="81"/>
      <point x="43" y="82"/>
      <point x="37" y="82" type="curve" smooth="yes"/>
      <point x="31" y="82"/>
      <point x="25" y="80"/>
      <point x="20" y="76" type="curve" smooth="yes"/>
      <point x="15" y="72"/>
      <point x="9" y="48"/>
      <point x="1" y="6" type="curve"/>
      <point x="35" y="-3"/>
      <point x="69" y="-8"/>
      <point x="103" y="-8" type="curve" smooth="yes"/>
      <point x="137" y="-8"/>
      <point x="170" y="-2"/>
      <point x="199" y="10" type="curve" smooth="yes"/>
      <point x="289" y="46"/>
      <point x="342" y="125"/>
      <point x="357" y="248" type="curve" smooth="yes"/>
      <point x="406" y="644" type="line"/>
      <point x="464" y="655" type="line" smooth="yes"/>
      <point x="474" y="657"/>
      <point x="480" y="664"/>
      <point x="481" y="674" type="curve"/>
      <point x="487" y="716" type="line"/>
      <point x="237" y="716" type="line"/>
      <point x="231" y="674" type="line"/>
      <point x="230" y="664"/>
      <point x="234" y="657"/>
      <point x="244" y="655" type="curve" smooth="yes"/>
      <point x="250" y="654"/>
      <point x="271" y="650"/>
      <point x="309" y="644" type="curve"/>
      <point x="260" y="246" type="line" smooth="yes"/>
      <point x="246" y="131"/>
      <point x="193" y="73"/>
    </contour>
    <contour>
      <point x="206" y="0" type="move" name="bottom"/>
    </contour>
    <contour>
      <point x="292" y="716" type="move" name="top"/>
    </contour>
  </outline>
</glyph>
<glyph name="K" format="1">
  <advance width="770"/>
  <unicode hex="004B"/>
  <note>
    K
  </note>
  <outline>
    <contour>
      <point x="699" y="59" type="curve" smooth="yes"/>
      <point x="693" y="60"/>
      <point x="677" y="64"/>
      <point x="650" y="70" type="curve"/>
      <point x="457" y="340" type="line" smooth="yes"/>
      <point x="443" y="359"/>
      <point x="429" y="371"/>
      <point x="415" y="376" type="curve"/>
      <point x="427" y="381"/>
      <point x="441" y="392"/>
      <point x="458" y="408" type="curve" smooth="yes"/>
      <point x="701" y="648" type="line"/>
      <point x="727" y="654"/>
      <point x="743" y="659"/>
      <point x="749" y="660" type="curve" smooth="yes"/>
      <point x="759" y="662"/>
      <point x="765" y="668"/>
      <point x="766" y="678" type="curve" smooth="yes"/>
      <point x="769" y="716" type="line"/>
      <point x="543" y="716" type="line"/>
      <point x="539" y="676" type="line" smooth="yes"/>
      <point x="538" y="666"/>
      <point x="541" y="661"/>
      <point x="550" y="659" type="curve" smooth="yes"/>
      <point x="555" y="658"/>
      <point x="570" y="655"/>
      <point x="593" y="650" type="curve"/>
      <point x="364" y="424" type="line" smooth="yes"/>
      <point x="350" y="410"/>
      <point x="332" y="402"/>
      <point x="310" y="402" type="curve" smooth="yes"/>
      <point x="274" y="402" type="line"/>
      <point x="304" y="644" type="line"/>
      <point x="312" y="645"/>
      <point x="331" y="649"/>
      <point x="362" y="655" type="curve" smooth="yes"/>
      <point x="373" y="657"/>
      <point x="379" y="664"/>
      <point x="380" y="674" type="curve" smooth="yes"/>
      <point x="385" y="716" type="line"/>
      <point x="144" y="716" type="line"/>
      <point x="139" y="674" type="line" smooth="yes"/>
      <point x="138" y="664"/>
      <point x="141" y="657"/>
      <point x="151" y="655" type="curve" smooth="yes"/>
      <point x="157" y="654"/>
      <point x="176" y="650"/>
      <point x="207" y="644" type="curve"/>
      <point x="137" y="73" type="line"/>
      <point x="79" y="62" type="line" smooth="yes"/>
      <point x="69" y="60"/>
      <point x="62" y="53"/>
      <point x="61" y="43" type="curve" smooth="yes"/>
      <point x="56" y="0" type="line"/>
      <point x="297" y="0" type="line"/>
      <point x="302" y="43" type="line" smooth="yes"/>
      <point x="303" y="53"/>
      <point x="299" y="60"/>
      <point x="289" y="62" type="curve" smooth="yes"/>
      <point x="263" y="67"/>
      <point x="244" y="71"/>
      <point x="233" y="73" type="curve"/>
      <point x="265" y="328" type="line"/>
      <point x="309" y="328" type="line" smooth="yes"/>
      <point x="317" y="328"/>
      <point x="325" y="327"/>
      <point x="334" y="326" type="curve" smooth="yes"/>
      <point x="343" y="325"/>
      <point x="352" y="318"/>
      <point x="362" y="305" type="curve" smooth="yes"/>
      <point x="540" y="66" type="line"/>
      <point x="512" y="61"/>
      <point x="497" y="59"/>
      <point x="493" y="58" type="curve"/>
      <point x="483" y="56"/>
      <point x="478" y="50"/>
      <point x="477" y="40" type="curve" smooth="yes"/>
      <point x="472" y="0" type="line"/>
      <point x="707" y="0" type="line"/>
      <point x="712" y="40" type="line" smooth="yes"/>
      <point x="713" y="50"/>
      <point x="709" y="57"/>
    </contour>
    <contour>
      <point x="376" y="0" type="move" name="bottom"/>
    </contour>
    <contour>
      <point x="462" y="716" type="move" name="top"/>
    </contour>
  </outline>
</glyph>
<glyph name="L" format="1">
  <advance width="593"/>
  <unicode hex="004C"/>
  <note>
    L
  </note>
  <outline>
    <contour>
      <point x="558" y="0" type="line"/>
      <point x="578" y="156" type="line"/>
      <point x="529" y="156" type="line" smooth="yes"/>
      <point x="519" y="156"/>
      <point x="509" y="149"/>
      <point x="506" y="139" type="curve"/>
      <point x="505" y="135"/>
      <point x="500" y="111"/>
      <point x="494" y="82" type="curve"/>
      <point x="236" y="82" type="line"/>
      <point x="305" y="644" type="line"/>
      <point x="306" y="644"/>
      <point x="354" y="653"/>
      <point x="363" y="655" type="curve" smooth="yes"/>
      <point x="372" y="657"/>
      <point x="379" y="664"/>
      <point x="380" y="673" type="curve" smooth="yes"/>
      <point x="381" y="682"/>
      <point x="386" y="716"/>
      <point x="386" y="716" type="curve" smooth="yes"/>
      <point x="314" y="716" type="line"/>
      <point x="313" y="716" type="line"/>
      <point x="217" y="716" type="line"/>
      <point x="144" y="716" type="line" smooth="yes"/>
      <point x="144" y="716"/>
      <point x="140" y="682"/>
      <point x="139" y="673" type="curve" smooth="yes"/>
      <point x="138" y="664"/>
      <point x="143" y="657"/>
      <point x="152" y="655" type="curve" smooth="yes"/>
      <point x="161" y="653"/>
      <point x="208" y="644"/>
      <point x="208" y="644" type="curve"/>
      <point x="138" y="73" type="line"/>
      <point x="138" y="73"/>
      <point x="88" y="64"/>
      <point x="79" y="62" type="curve" smooth="yes"/>
      <point x="70" y="60"/>
      <point x="63" y="52"/>
      <point x="62" y="43" type="curve" smooth="yes"/>
      <point x="61" y="34"/>
      <point x="56" y="0"/>
      <point x="56" y="0" type="curve"/>
      <point x="129" y="0" type="line"/>
      <point x="527" y="0" type="line"/>
      <point x="536" y="0" type="line"/>
    </contour>
    <contour>
      <point x="309" y="0" type="move" name="bottom"/>
    </contour>
    <contour>
      <point x="352" y="358" type="move" name="center"/>
    </contour>
    <contour>
      <point x="395" y="716" type="move" name="top"/>
    </contour>
    <contour>
      <point x="648" y="716" type="move" name="topright"/>
    </contour>
  </outline>
</glyph>
<glyph name="M" format="1">
  <advance width="1090"/>
  <unicode hex="004D"/>
  <note>
    M
  </note>
  <outline>
    <contour>
      <point x="281" y="575" type="curve"/>
      <point x="476" y="126" type="line" smooth="yes"/>
      <point x="482" y="111"/>
      <point x="494" y="103"/>
      <point x="509" y="103" type="curve" smooth="yes"/>
      <point x="523" y="103" type="line" smooth="yes"/>
      <point x="538" y="103"/>
      <point x="550" y="111"/>
      <point x="560" y="126" type="curve" smooth="yes"/>
      <point x="861" y="574" type="line"/>
      <point x="858" y="557"/>
      <point x="855" y="541"/>
      <point x="853" y="526" type="curve" smooth="yes"/>
      <point x="797" y="73" type="line"/>
      <point x="761" y="67"/>
      <point x="739" y="64"/>
      <point x="729" y="62" type="curve" smooth="yes"/>
      <point x="719" y="60"/>
      <point x="713" y="53"/>
      <point x="712" y="43" type="curve" smooth="yes"/>
      <point x="707" y="0" type="line"/>
      <point x="946" y="0" type="line"/>
      <point x="951" y="43" type="line" smooth="yes"/>
      <point x="952" y="53"/>
      <point x="948" y="60"/>
      <point x="938" y="62" type="curve" smooth="yes"/>
      <point x="932" y="63"/>
      <point x="914" y="67"/>
      <point x="882" y="73" type="curve"/>
      <point x="953" y="644" type="line"/>
      <point x="953" y="644"/>
      <point x="972" y="647"/>
      <point x="1011" y="655" type="curve" smooth="yes"/>
      <point x="1022" y="657"/>
      <point x="1028" y="664"/>
      <point x="1029" y="674" type="curve" smooth="yes"/>
      <point x="1034" y="716" type="line"/>
      <point x="890" y="716" type="line" smooth="yes"/>
      <point x="881" y="716"/>
      <point x="875" y="716"/>
      <point x="870" y="714" type="curve" smooth="yes"/>
      <point x="865" y="712"/>
      <point x="859" y="708"/>
      <point x="854" y="700" type="curve" smooth="yes"/>
      <point x="558" y="260" type="line" smooth="yes"/>
      <point x="548" y="244"/>
      <point x="537" y="226"/>
      <point x="528" y="207" type="curve"/>
      <point x="522" y="232"/>
      <point x="517" y="249"/>
      <point x="512" y="259" type="curve"/>
      <point x="319" y="700" type="line"/>
      <point x="316" y="708"/>
      <point x="311" y="712"/>
      <point x="307" y="714" type="curve" smooth="yes"/>
      <point x="303" y="716"/>
      <point x="296" y="716"/>
      <point x="287" y="716" type="curve" smooth="yes"/>
      <point x="144" y="716" type="line"/>
      <point x="139" y="674" type="line" smooth="yes"/>
      <point x="138" y="664"/>
      <point x="141" y="657"/>
      <point x="151" y="655" type="curve" smooth="yes"/>
      <point x="157" y="654"/>
      <point x="176" y="650"/>
      <point x="207" y="644" type="curve"/>
      <point x="137" y="73" type="line"/>
      <point x="79" y="62" type="line" smooth="yes"/>
      <point x="69" y="60"/>
      <point x="62" y="53"/>
      <point x="61" y="43" type="curve" smooth="yes"/>
      <point x="56" y="0" type="line"/>
      <point x="295" y="0" type="line"/>
      <point x="300" y="43" type="line" smooth="yes"/>
      <point x="301" y="53"/>
      <point x="297" y="59"/>
      <point x="288" y="61" type="curve" smooth="yes"/>
      <point x="279" y="63"/>
      <point x="257" y="67"/>
      <point x="222" y="73" type="curve"/>
      <point x="278" y="526" type="line" smooth="yes"/>
      <point x="280" y="541"/>
      <point x="281" y="558"/>
    </contour>
    <contour>
      <point x="507" y="0" type="move" name="bottom"/>
    </contour>
    <contour>
      <point x="593" y="716" type="move" name="top"/>
    </contour>
  </outline>
</glyph>
<glyph name="N" format="1">
  <advance width="903"/>
  <unicode hex="004E"/>
  <note>
    N
  </note>
  <outline>
    <contour>
      <point x="646" y="160" type="curve"/>
      <point x="297" y="700" type="line"/>
      <point x="292" y="707"/>
      <point x="288" y="711"/>
      <point x="284" y="713" type="curve" smooth="yes"/>
      <point x="280" y="715"/>
      <point x="274" y="716"/>
      <point x="265" y="716" type="curve" smooth="yes"/>
      <point x="143" y="716" type="line"/>
      <point x="138" y="674" type="line" smooth="yes"/>
      <point x="137" y="664"/>
      <point x="141" y="657"/>
      <point x="151" y="655" type="curve" smooth="yes"/>
      <point x="157" y="654"/>
      <point x="176" y="649"/>
      <point x="207" y="643" type="curve"/>
      <point x="136" y="73" type="line"/>
      <point x="78" y="61" type="line" smooth="yes"/>
      <point x="68" y="59"/>
      <point x="62" y="53"/>
      <point x="61" y="43" type="curve" smooth="yes"/>
      <point x="56" y="0" type="line"/>
      <point x="294" y="0" type="line"/>
      <point x="299" y="43" type="line" smooth="yes"/>
      <point x="300" y="53"/>
      <point x="297" y="59"/>
      <point x="287" y="61" type="curve" smooth="yes"/>
      <point x="282" y="62"/>
      <point x="260" y="66"/>
      <point x="221" y="73" type="curve"/>
      <point x="275" y="510" type="line" smooth="yes"/>
      <point x="277" y="524"/>
      <point x="278" y="540"/>
      <point x="279" y="557" type="curve"/>
      <point x="627" y="18" type="line" smooth="yes"/>
      <point x="635" y="6"/>
      <point x="646" y="0"/>
      <point x="660" y="0" type="curve" smooth="yes"/>
      <point x="708" y="0" type="line"/>
      <point x="788" y="644" type="line"/>
      <point x="846" y="655" type="line" smooth="yes"/>
      <point x="857" y="657"/>
      <point x="863" y="664"/>
      <point x="864" y="674" type="curve" smooth="yes"/>
      <point x="869" y="716" type="line"/>
      <point x="796" y="716" type="line"/>
      <point x="711" y="716" type="line"/>
      <point x="630" y="716" type="line"/>
      <point x="625" y="674" type="line" smooth="yes"/>
      <point x="624" y="664"/>
      <point x="627" y="657"/>
      <point x="637" y="655" type="curve" smooth="yes"/>
      <point x="642" y="654"/>
      <point x="665" y="650"/>
      <point x="703" y="643" type="curve"/>
      <point x="649" y="209" type="line" smooth="yes"/>
      <point x="647" y="191"/>
      <point x="646" y="174"/>
    </contour>
    <contour>
      <point x="423" y="0" type="move" name="bottom"/>
    </contour>
    <contour>
      <point x="509" y="716" type="move" name="top"/>
    </contour>
  </outline>
</glyph>
<glyph name="P" format="1">
  <advance width="680"/>
  <unicode hex="0050"/>
  <note>
    P
  </note>
  <outline>
    <contour>
      <point x="530" y="701" type="curve" smooth="yes"/>
      <point x="498" y="711"/>
      <point x="458" y="716"/>
      <point x="413" y="716" type="curve" smooth="yes"/>
      <point x="143" y="716" type="line"/>
      <point x="138" y="674" type="line" smooth="yes"/>
      <point x="137" y="664"/>
      <point x="141" y="657"/>
      <point x="151" y="655" type="curve" smooth="yes"/>
      <point x="157" y="654"/>
      <point x="176" y="649"/>
      <point x="207" y="643" type="curve"/>
      <point x="136" y="73" type="line"/>
      <point x="78" y="61" type="line" smooth="yes"/>
      <point x="68" y="59"/>
      <point x="62" y="53"/>
      <point x="61" y="43" type="curve" smooth="yes"/>
      <point x="56" y="0" type="line"/>
      <point x="296" y="0" type="line"/>
      <point x="301" y="43" type="line" smooth="yes"/>
      <point x="302" y="53"/>
      <point x="299" y="59"/>
      <point x="289" y="61" type="curve" smooth="yes"/>
      <point x="258" y="67"/>
      <point x="239" y="72"/>
      <point x="233" y="73" type="curve"/>
      <point x="257" y="268" type="line"/>
      <point x="358" y="268" type="line" smooth="yes"/>
      <point x="443" y="268"/>
      <point x="512" y="290"/>
      <point x="565" y="332" type="curve" smooth="yes"/>
      <point x="616" y="373"/>
      <point x="645" y="426"/>
      <point x="653" y="494" type="curve" smooth="yes"/>
      <point x="666" y="600"/>
      <point x="625" y="670"/>
    </contour>
    <contour>
      <point x="556" y="495" type="curve" smooth="yes"/>
      <point x="550" y="449"/>
      <point x="531" y="413"/>
      <point x="498" y="386" type="curve" smooth="yes"/>
      <point x="465" y="359"/>
      <point x="422" y="345"/>
      <point x="368" y="345" type="curve" smooth="yes"/>
      <point x="266" y="345" type="line"/>
      <point x="303" y="640" type="line"/>
      <point x="404" y="640" type="line" smooth="yes"/>
      <point x="461" y="640"/>
      <point x="502" y="628"/>
      <point x="527" y="602" type="curve" smooth="yes"/>
      <point x="552" y="576"/>
      <point x="562" y="541"/>
    </contour>
    <contour>
      <point x="326" y="0" type="move" name="bottom"/>
    </contour>
    <contour>
      <point x="412" y="716" type="move" name="top"/>
    </contour>
  </outline>
</glyph>
<glyph name="Q" format="1">
  <advance width="802"/>
  <unicode hex="0051"/>
  <note>
    Q
  </note>
  <outline>
    <contour>
      <point x="753" y="358" type="curve" smooth="yes"/>
      <point x="760" y="412"/>
      <point x="757" y="461"/>
      <point x="746" y="506" type="curve" smooth="yes"/>
      <point x="735" y="551"/>
      <point x="715" y="589"/>
      <point x="688" y="622" type="curve" smooth="yes"/>
      <point x="661" y="654"/>
      <point x="627" y="680"/>
      <point x="586" y="698" type="curve" smooth="yes"/>
      <point x="545" y="716"/>
      <point x="498" y="724"/>
      <point x="445" y="724" type="curve" smooth="yes"/>
      <point x="392" y="724"/>
      <point x="343" y="716"/>
      <point x="297" y="698" type="curve" smooth="yes"/>
      <point x="251" y="680"/>
      <point x="211" y="654"/>
      <point x="176" y="622" type="curve" smooth="yes"/>
      <point x="141" y="590"/>
      <point x="113" y="551"/>
      <point x="90" y="506" type="curve" smooth="yes"/>
      <point x="67" y="461"/>
      <point x="54" y="412"/>
      <point x="47" y="358" type="curve" smooth="yes"/>
      <point x="40" y="304"/>
      <point x="43" y="255"/>
      <point x="54" y="210" type="curve" smooth="yes"/>
      <point x="65" y="165"/>
      <point x="85" y="126"/>
      <point x="112" y="94" type="curve" smooth="yes"/>
      <point x="139" y="62"/>
      <point x="173" y="37"/>
      <point x="214" y="19" type="curve" smooth="yes"/>
      <point x="255" y="1"/>
      <point x="302" y="-8"/>
      <point x="355" y="-8" type="curve" smooth="yes"/>
      <point x="377" y="-8"/>
      <point x="399" y="-6"/>
      <point x="420" y="-3" type="curve" smooth="yes"/>
      <point x="441" y="0"/>
      <point x="461" y="5"/>
      <point x="481" y="11" type="curve"/>
      <point x="590" y="-126" type="line"/>
      <point x="597" y="-134"/>
      <point x="604" y="-140"/>
      <point x="613" y="-143" type="curve" smooth="yes"/>
      <point x="622" y="-146"/>
      <point x="632" y="-148"/>
      <point x="644" y="-148" type="curve" smooth="yes"/>
      <point x="724" y="-148" type="line"/>
      <point x="565" y="50" type="line"/>
      <point x="590" y="66"/>
      <point x="614" y="85"/>
      <point x="635" y="106" type="curve" smooth="yes"/>
      <point x="656" y="127"/>
      <point x="675" y="151"/>
      <point x="691" y="177" type="curve" smooth="yes"/>
      <point x="707" y="203"/>
      <point x="720" y="232"/>
      <point x="731" y="262" type="curve" smooth="yes"/>
      <point x="742" y="292"/>
      <point x="749" y="324"/>
    </contour>
    <contour>
      <point x="654" y="358" type="curve" smooth="yes"/>
      <point x="649" y="314"/>
      <point x="637" y="275"/>
      <point x="621" y="240" type="curve" smooth="yes"/>
      <point x="605" y="205"/>
      <point x="584" y="175"/>
      <point x="559" y="151" type="curve" smooth="yes"/>
      <point x="534" y="127"/>
      <point x="505" y="109"/>
      <point x="472" y="96" type="curve" smooth="yes"/>
      <point x="439" y="83"/>
      <point x="404" y="76"/>
      <point x="365" y="76" type="curve" smooth="yes"/>
      <point x="327" y="76"/>
      <point x="293" y="83"/>
      <point x="263" y="96" type="curve" smooth="yes"/>
      <point x="233" y="109"/>
      <point x="208" y="127"/>
      <point x="189" y="151" type="curve" smooth="yes"/>
      <point x="170" y="175"/>
      <point x="157" y="205"/>
      <point x="149" y="240" type="curve" smooth="yes"/>
      <point x="141" y="275"/>
      <point x="141" y="314"/>
      <point x="146" y="358" type="curve" smooth="yes"/>
      <point x="151" y="402"/>
      <point x="162" y="441"/>
      <point x="178" y="476" type="curve" smooth="yes"/>
      <point x="194" y="511"/>
      <point x="215" y="541"/>
      <point x="240" y="565" type="curve" smooth="yes"/>
      <point x="265" y="589"/>
      <point x="294" y="608"/>
      <point x="327" y="621" type="curve" smooth="yes"/>
      <point x="360" y="634"/>
      <point x="396" y="640"/>
      <point x="434" y="640" type="curve" smooth="yes"/>
      <point x="473" y="640"/>
      <point x="507" y="634"/>
      <point x="537" y="621" type="curve" smooth="yes"/>
      <point x="567" y="608"/>
      <point x="591" y="589"/>
      <point x="610" y="565" type="curve" smooth="yes"/>
      <point x="629" y="541"/>
      <point x="642" y="511"/>
      <point x="650" y="476" type="curve" smooth="yes"/>
      <point x="658" y="441"/>
      <point x="659" y="402"/>
    </contour>
    <contour>
      <point x="371" y="0" type="move" name="bottom"/>
    </contour>
    <contour>
      <point x="457" y="716" type="move" name="top"/>
    </contour>
  </outline>
</glyph>
<glyph name="R" format="1">
  <advance width="673"/>
  <unicode hex="0052"/>
  <note>
    R
  </note>
  <outline>
    <contour>
      <point x="659" y="62" type="curve" smooth="yes"/>
      <point x="651" y="64"/>
      <point x="610" y="72"/>
      <point x="604" y="73" type="curve"/>
      <point x="474" y="285" type="line" smooth="yes"/>
      <point x="466" y="298"/>
      <point x="457" y="308"/>
      <point x="446" y="315" type="curve"/>
      <point x="474" y="321"/>
      <point x="501" y="331"/>
      <point x="524" y="343" type="curve" smooth="yes"/>
      <point x="547" y="355"/>
      <point x="568" y="371"/>
      <point x="585" y="388" type="curve" smooth="yes"/>
      <point x="602" y="406"/>
      <point x="616" y="425"/>
      <point x="627" y="447" type="curve" smooth="yes"/>
      <point x="638" y="469"/>
      <point x="645" y="493"/>
      <point x="648" y="518" type="curve" smooth="yes"/>
      <point x="652" y="548"/>
      <point x="649" y="576"/>
      <point x="642" y="600" type="curve" smooth="yes"/>
      <point x="635" y="624"/>
      <point x="621" y="646"/>
      <point x="602" y="663" type="curve" smooth="yes"/>
      <point x="583" y="680"/>
      <point x="557" y="694"/>
      <point x="525" y="703" type="curve" smooth="yes"/>
      <point x="493" y="712"/>
      <point x="454" y="716"/>
      <point x="409" y="716" type="curve" smooth="yes"/>
      <point x="217" y="716" type="line"/>
      <point x="144" y="716" type="line" smooth="yes"/>
      <point x="144" y="716"/>
      <point x="140" y="682"/>
      <point x="139" y="673" type="curve" smooth="yes"/>
      <point x="138" y="664"/>
      <point x="143" y="657"/>
      <point x="152" y="655" type="curve" smooth="yes"/>
      <point x="161" y="653"/>
      <point x="208" y="644"/>
      <point x="208" y="644" type="curve"/>
      <point x="138" y="73" type="line"/>
      <point x="138" y="73"/>
      <point x="88" y="64"/>
      <point x="79" y="62" type="curve" smooth="yes"/>
      <point x="70" y="60"/>
      <point x="63" y="52"/>
      <point x="62" y="43" type="curve" smooth="yes"/>
      <point x="61" y="34"/>
      <point x="56" y="0"/>
      <point x="56" y="0" type="curve"/>
      <point x="129" y="0" type="line"/>
      <point x="225" y="0" type="line"/>
      <point x="225" y="0" type="line"/>
      <point x="297" y="0" type="line"/>
      <point x="297" y="0"/>
      <point x="302" y="34"/>
      <point x="303" y="43" type="curve" smooth="yes"/>
      <point x="304" y="52"/>
      <point x="299" y="60"/>
      <point x="290" y="62" type="curve" smooth="yes"/>
      <point x="281" y="64"/>
      <point x="234" y="73"/>
      <point x="234" y="73" type="curve"/>
      <point x="262" y="299" type="line"/>
      <point x="326" y="299" type="line" smooth="yes"/>
      <point x="339" y="299"/>
      <point x="349" y="297"/>
      <point x="355" y="294" type="curve"/>
      <point x="361" y="290"/>
      <point x="366" y="285"/>
      <point x="371" y="277" type="curve" smooth="yes"/>
      <point x="526" y="21" type="line"/>
      <point x="533" y="7"/>
      <point x="544" y="0"/>
      <point x="562" y="0" type="curve" smooth="yes"/>
      <point x="594" y="0" type="line"/>
      <point x="648" y="0" type="line"/>
      <point x="666" y="0" type="line"/>
      <point x="666" y="0"/>
      <point x="671" y="34"/>
      <point x="672" y="43" type="curve" smooth="yes"/>
      <point x="673" y="52"/>
      <point x="668" y="60"/>
    </contour>
    <contour>
      <point x="362" y="370" type="curve" smooth="yes"/>
      <point x="271" y="370" type="line"/>
      <point x="304" y="640" type="line"/>
      <point x="400" y="640" type="line" smooth="yes"/>
      <point x="456" y="640"/>
      <point x="496" y="630"/>
      <point x="522" y="608" type="curve" smooth="yes"/>
      <point x="548" y="586"/>
      <point x="557" y="554"/>
      <point x="552" y="511" type="curve" smooth="yes"/>
      <point x="549" y="490"/>
      <point x="543" y="471"/>
      <point x="534" y="454" type="curve" smooth="yes"/>
      <point x="525" y="437"/>
      <point x="512" y="422"/>
      <point x="496" y="409" type="curve"/>
      <point x="480" y="397"/>
      <point x="460" y="387"/>
      <point x="438" y="380" type="curve" smooth="yes"/>
      <point x="416" y="373"/>
      <point x="390" y="370"/>
    </contour>
    <contour>
      <point x="354" y="0" type="move" name="bottom"/>
    </contour>
    <contour>
      <point x="440" y="716" type="move" name="top"/>
    </contour>
  </outline>
</glyph>
<glyph name="S" format="1">
  <advance width="609"/>
  <unicode hex="0053"/>
  <note>
    S
  </note>
  <outline>
    <contour>
      <point x="433" y="379" type="curve" smooth="yes"/>
      <point x="411" y="389"/>
      <point x="371" y="404"/>
      <point x="313" y="424" type="curve" smooth="yes"/>
      <point x="293" y="431"/>
      <point x="276" y="440"/>
      <point x="261" y="449" type="curve" smooth="yes"/>
      <point x="228" y="470"/>
      <point x="213" y="497"/>
      <point x="217" y="532" type="curve" smooth="yes"/>
      <point x="221" y="565"/>
      <point x="236" y="592"/>
      <point x="261" y="612" type="curve" smooth="yes"/>
      <point x="288" y="634"/>
      <point x="322" y="644"/>
      <point x="364" y="644" type="curve" smooth="yes"/>
      <point x="398" y="644"/>
      <point x="436" y="638"/>
      <point x="479" y="625" type="curve"/>
      <point x="477" y="568"/>
      <point x="477" y="538"/>
      <point x="477" y="536" type="curve"/>
      <point x="478" y="525"/>
      <point x="483" y="519"/>
      <point x="495" y="519" type="curve" smooth="yes"/>
      <point x="543" y="519" type="line"/>
      <point x="564" y="684" type="line"/>
      <point x="499" y="711"/>
      <point x="434" y="724"/>
      <point x="368" y="724" type="curve" smooth="yes"/>
      <point x="302" y="724"/>
      <point x="247" y="704"/>
      <point x="201" y="664" type="curve" smooth="yes"/>
      <point x="158" y="626"/>
      <point x="134" y="581"/>
      <point x="127" y="528" type="curve" smooth="yes"/>
      <point x="120" y="471"/>
      <point x="132" y="426"/>
      <point x="164" y="394" type="curve" smooth="yes"/>
      <point x="178" y="380"/>
      <point x="194" y="368"/>
      <point x="214" y="359" type="curve" smooth="yes"/>
      <point x="234" y="350"/>
      <point x="274" y="336"/>
      <point x="335" y="316" type="curve" smooth="yes"/>
      <point x="355" y="309"/>
      <point x="372" y="301"/>
      <point x="387" y="292" type="curve" smooth="yes"/>
      <point x="420" y="271"/>
      <point x="434" y="242"/>
      <point x="429" y="204" type="curve" smooth="yes"/>
      <point x="424" y="165"/>
      <point x="408" y="133"/>
      <point x="379" y="109" type="curve" smooth="yes"/>
      <point x="365" y="97"/>
      <point x="349" y="88"/>
      <point x="330" y="82" type="curve" smooth="yes"/>
      <point x="311" y="76"/>
      <point x="286" y="72"/>
      <point x="255" y="72" type="curve" smooth="yes"/>
      <point x="224" y="72"/>
      <point x="184" y="82"/>
      <point x="137" y="100" type="curve"/>
      <point x="137" y="100"/>
      <point x="138" y="115"/>
      <point x="139" y="144" type="curve" smooth="yes"/>
      <point x="140" y="173"/>
      <point x="140" y="189"/>
      <point x="140" y="193" type="curve"/>
      <point x="139" y="204"/>
      <point x="133" y="210"/>
      <point x="122" y="210" type="curve" smooth="yes"/>
      <point x="74" y="210" type="line"/>
      <point x="51" y="30" type="line"/>
      <point x="79" y="20" type="line"/>
      <point x="98" y="14"/>
      <point x="123" y="8"/>
      <point x="157" y="2" type="curve" smooth="yes"/>
      <point x="191" y="-4"/>
      <point x="223" y="-8"/>
      <point x="254" y="-8" type="curve" smooth="yes"/>
      <point x="328" y="-8"/>
      <point x="390" y="14"/>
      <point x="440" y="58" type="curve" smooth="yes"/>
      <point x="487" y="99"/>
      <point x="514" y="153"/>
      <point x="522" y="218" type="curve" smooth="yes"/>
      <point x="531" y="293"/>
      <point x="501" y="346"/>
    </contour>
    <contour>
      <point x="273" y="0" type="move" name="bottom"/>
    </contour>
    <contour>
      <point x="359" y="716" type="move" name="top"/>
    </contour>
  </outline>
</glyph>
<glyph name="T" format="1">
  <advance width="645"/>
  <unicode hex="0054"/>
  <note>
    T
  </note>
  <outline>
    <contour>
      <point x="626" y="716" type="line"/>
      <point x="613" y="716" type="line"/>
      <point x="578" y="716" type="line"/>
      <point x="39" y="716" type="line"/>
      <point x="19" y="558" type="line"/>
      <point x="68" y="558" type="line" smooth="yes"/>
      <point x="79" y="558"/>
      <point x="86" y="561"/>
      <point x="88" y="568" type="curve" smooth="yes"/>
      <point x="90" y="575"/>
      <point x="96" y="597"/>
      <point x="105" y="635" type="curve"/>
      <point x="274" y="635" type="line"/>
      <point x="205" y="73" type="line"/>
      <point x="179" y="68"/>
      <point x="160" y="64"/>
      <point x="149" y="62" type="curve" smooth="yes"/>
      <point x="138" y="60"/>
      <point x="131" y="53"/>
      <point x="130" y="43" type="curve"/>
      <point x="124" y="0" type="line"/>
      <point x="366" y="0" type="line"/>
      <point x="371" y="43" type="line" smooth="yes"/>
      <point x="372" y="53"/>
      <point x="370" y="59"/>
      <point x="363" y="61" type="curve" smooth="yes"/>
      <point x="356" y="63"/>
      <point x="340" y="65"/>
      <point x="315" y="70" type="curve"/>
      <point x="307" y="72"/>
      <point x="302" y="73"/>
      <point x="302" y="73" type="curve"/>
      <point x="371" y="635" type="line"/>
      <point x="540" y="635" type="line"/>
      <point x="540" y="568" type="line" smooth="yes"/>
      <point x="540" y="561"/>
      <point x="547" y="558"/>
      <point x="559" y="558" type="curve" smooth="yes"/>
      <point x="607" y="558" type="line"/>
    </contour>
    <contour>
      <point x="256" y="0" type="move" name="bottom"/>
    </contour>
    <contour>
      <point x="319" y="358" type="move" name="center"/>
    </contour>
    <contour>
      <point x="362" y="716" type="move" name="top"/>
    </contour>
  </outline>
</glyph>
<glyph name="U" format="1">
  <advance width="766"/>
  <unicode hex="0055"/>
  <note>
    U
  </note>
  <outline>
    <contour>
      <point x="743" y="716" type="line"/>
      <point x="670" y="716" type="line"/>
      <point x="574" y="716" type="line"/>
      <point x="492" y="716" type="line"/>
      <point x="487" y="674" type="line" smooth="yes"/>
      <point x="486" y="664"/>
      <point x="490" y="657"/>
      <point x="500" y="655" type="curve" smooth="yes"/>
      <point x="505" y="654"/>
      <point x="527" y="651"/>
      <point x="565" y="644" type="curve"/>
      <point x="521" y="281" type="line" smooth="yes"/>
      <point x="514" y="220"/>
      <point x="491" y="171"/>
      <point x="453" y="134" type="curve" smooth="yes"/>
      <point x="414" y="96"/>
      <point x="365" y="77"/>
      <point x="307" y="77" type="curve" smooth="yes"/>
      <point x="249" y="77"/>
      <point x="205" y="96"/>
      <point x="175" y="134" type="curve" smooth="yes"/>
      <point x="146" y="171"/>
      <point x="136" y="221"/>
      <point x="143" y="282" type="curve" smooth="yes"/>
      <point x="188" y="644" type="line"/>
      <point x="228" y="651"/>
      <point x="250" y="654"/>
      <point x="255" y="655" type="curve" smooth="yes"/>
      <point x="266" y="657"/>
      <point x="272" y="664"/>
      <point x="273" y="674" type="curve" smooth="yes"/>
      <point x="278" y="716" type="line"/>
      <point x="28" y="716" type="line"/>
      <point x="23" y="674" type="line" smooth="yes"/>
      <point x="22" y="664"/>
      <point x="25" y="657"/>
      <point x="35" y="655" type="curve" smooth="yes"/>
      <point x="41" y="654"/>
      <point x="60" y="650"/>
      <point x="91" y="644" type="curve"/>
      <point x="47" y="281" type="line" smooth="yes"/>
      <point x="37" y="197"/>
      <point x="54" y="128"/>
      <point x="98" y="74" type="curve" smooth="yes"/>
      <point x="144" y="19"/>
      <point x="209" y="-8"/>
      <point x="296" y="-8" type="curve" smooth="yes"/>
      <point x="383" y="-8"/>
      <point x="457" y="19"/>
      <point x="516" y="74" type="curve" smooth="yes"/>
      <point x="573" y="128"/>
      <point x="607" y="197"/>
      <point x="617" y="281" type="curve" smooth="yes"/>
      <point x="662" y="644" type="line"/>
      <point x="720" y="655" type="line" smooth="yes"/>
      <point x="731" y="657"/>
      <point x="737" y="664"/>
      <point x="738" y="674" type="curve" smooth="yes"/>
    </contour>
    <contour>
      <point x="321" y="0" type="move" name="bottom"/>
    </contour>
    <contour>
      <point x="385" y="10" type="move" name="ogonek"/>
    </contour>
    <contour>
      <point x="407" y="716" type="move" name="top"/>
    </contour>
    <contour>
      <point x="751" y="716" type="move" name="topright"/>
    </contour>
  </outline>
</glyph>
<glyph name="V" format="1">
  <advance width="745"/>
  <unicode hex="0056"/>
  <note>
    V
  </note>
  <outline>
    <contour>
      <point x="799" y="716" type="line"/>
      <point x="561" y="716" type="line"/>
      <point x="556" y="674" type="line" smooth="yes"/>
      <point x="555" y="664"/>
      <point x="558" y="657"/>
      <point x="568" y="655" type="curve" smooth="yes"/>
      <point x="574" y="654"/>
      <point x="593" y="650"/>
      <point x="624" y="644" type="curve"/>
      <point x="387" y="188" type="line" smooth="yes"/>
      <point x="377" y="170"/>
      <point x="367" y="144"/>
      <point x="355" y="110" type="curve"/>
      <point x="350" y="146"/>
      <point x="346" y="171"/>
      <point x="341" y="188" type="curve" smooth="yes"/>
      <point x="214" y="643" type="line"/>
      <point x="236" y="647"/>
      <point x="255" y="651"/>
      <point x="268" y="654" type="curve" smooth="yes"/>
      <point x="281" y="657"/>
      <point x="289" y="663"/>
      <point x="290" y="673" type="curve" smooth="yes"/>
      <point x="295" y="716" type="line"/>
      <point x="57" y="716" type="line"/>
      <point x="52" y="673" type="line" smooth="yes"/>
      <point x="51" y="663"/>
      <point x="54" y="657"/>
      <point x="64" y="655" type="curve" smooth="yes"/>
      <point x="70" y="654"/>
      <point x="87" y="649"/>
      <point x="114" y="643" type="curve"/>
      <point x="297" y="0" type="line"/>
      <point x="384" y="0" type="line"/>
      <point x="726" y="643" type="line"/>
      <point x="777" y="655" type="line" smooth="yes"/>
      <point x="787" y="657"/>
      <point x="793" y="663"/>
      <point x="794" y="673" type="curve" smooth="yes"/>
    </contour>
    <contour>
      <point x="377" y="0" type="move" name="bottom"/>
    </contour>
    <contour>
      <point x="463" y="716" type="move" name="top"/>
    </contour>
  </outline>
</glyph>
<glyph name="W" format="1">
  <advance width="1099"/>
  <unicode hex="0057"/>
  <note>
    W
  </note>
  <outline>
    <contour>
      <point x="1150" y="716" type="line"/>
      <point x="1108" y="716" type="line"/>
      <point x="913" y="716" type="line"/>
      <point x="908" y="674" type="line" smooth="yes"/>
      <point x="907" y="664"/>
      <point x="911" y="657"/>
      <point x="921" y="655" type="curve" smooth="yes"/>
      <point x="954" y="648"/>
      <point x="972" y="645"/>
      <point x="976" y="644" type="curve"/>
      <point x="788" y="196" type="line" smooth="yes"/>
      <point x="784" y="187"/>
      <point x="781" y="177"/>
      <point x="778" y="167" type="curve" smooth="yes"/>
      <point x="775" y="157"/>
      <point x="771" y="147"/>
      <point x="768" y="136" type="curve"/>
      <point x="766" y="158"/>
      <point x="764" y="179"/>
      <point x="760" y="196" type="curve" smooth="yes"/>
      <point x="653" y="694" type="line" smooth="yes"/>
      <point x="650" y="709"/>
      <point x="640" y="716"/>
      <point x="623" y="716" type="curve" smooth="yes"/>
      <point x="595" y="716" type="line" smooth="yes"/>
      <point x="587" y="716"/>
      <point x="579" y="714"/>
      <point x="573" y="709" type="curve" smooth="yes"/>
      <point x="567" y="704"/>
      <point x="562" y="700"/>
      <point x="559" y="694" type="curve" smooth="yes"/>
      <point x="330" y="196" type="line" smooth="yes"/>
      <point x="325" y="185"/>
      <point x="317" y="164"/>
      <point x="307" y="134" type="curve"/>
      <point x="306" y="160"/>
      <point x="303" y="181"/>
      <point x="301" y="196" type="curve"/>
      <point x="223" y="644" type="line"/>
      <point x="227" y="645"/>
      <point x="246" y="648"/>
      <point x="281" y="655" type="curve" smooth="yes"/>
      <point x="291" y="657"/>
      <point x="298" y="664"/>
      <point x="299" y="674" type="curve" smooth="yes"/>
      <point x="304" y="716" type="line"/>
      <point x="61" y="716" type="line"/>
      <point x="56" y="674" type="line" smooth="yes"/>
      <point x="55" y="664"/>
      <point x="58" y="657"/>
      <point x="68" y="655" type="curve" smooth="yes"/>
      <point x="74" y="654"/>
      <point x="91" y="650"/>
      <point x="118" y="644" type="curve"/>
      <point x="239" y="0" type="line"/>
      <point x="326" y="0" type="line"/>
      <point x="576" y="546" type="line"/>
      <point x="578" y="551"/>
      <point x="580" y="558"/>
      <point x="582" y="564" type="curve" smooth="yes"/>
      <point x="584" y="570"/>
      <point x="588" y="576"/>
      <point x="590" y="582" type="curve"/>
      <point x="591" y="568"/>
      <point x="593" y="556"/>
      <point x="595" y="546" type="curve" smooth="yes"/>
      <point x="710" y="0" type="line"/>
      <point x="797" y="0" type="line"/>
      <point x="1077" y="644" type="line"/>
      <point x="1128" y="655" type="line" smooth="yes"/>
      <point x="1138" y="657"/>
      <point x="1144" y="664"/>
      <point x="1145" y="674" type="curve" smooth="yes"/>
    </contour>
    <contour>
      <point x="553" y="0" type="move" name="bottom"/>
    </contour>
    <contour>
      <point x="639" y="716" type="move" name="top"/>
    </contour>
  </outline>
</glyph>
<glyph name="X" format="1">
  <advance width="774"/>
  <unicode hex="0058"/>
  <note>
    X
  </note>
  <outline>
    <contour>
      <point x="688" y="62" type="curve" smooth="yes"/>
      <point x="682" y="63"/>
      <point x="661" y="67"/>
      <point x="623" y="73" type="curve"/>
      <point x="463" y="372" type="line"/>
      <point x="683" y="644" type="line"/>
      <point x="721" y="650"/>
      <point x="744" y="654"/>
      <point x="753" y="656" type="curve" smooth="yes"/>
      <point x="762" y="658"/>
      <point x="767" y="664"/>
      <point x="768" y="674" type="curve" smooth="yes"/>
      <point x="773" y="716" type="line"/>
      <point x="516" y="716" type="line"/>
      <point x="511" y="674" type="line" smooth="yes"/>
      <point x="510" y="664"/>
      <point x="514" y="657"/>
      <point x="524" y="655" type="curve" smooth="yes"/>
      <point x="549" y="650"/>
      <point x="568" y="647"/>
      <point x="580" y="644" type="curve"/>
      <point x="417" y="439" type="line" smooth="yes"/>
      <point x="411" y="431"/>
      <point x="407" y="423"/>
      <point x="404" y="416" type="curve"/>
      <point x="282" y="645" type="line"/>
      <point x="304" y="649"/>
      <point x="321" y="653"/>
      <point x="332" y="655" type="curve" smooth="yes"/>
      <point x="343" y="657"/>
      <point x="349" y="664"/>
      <point x="350" y="674" type="curve" smooth="yes"/>
      <point x="355" y="716" type="line"/>
      <point x="100" y="716" type="line"/>
      <point x="95" y="674" type="line" smooth="yes"/>
      <point x="94" y="664"/>
      <point x="98" y="657"/>
      <point x="108" y="655" type="curve" smooth="yes"/>
      <point x="114" y="654"/>
      <point x="135" y="650"/>
      <point x="173" y="644" type="curve"/>
      <point x="326" y="368" type="line"/>
      <point x="92" y="73" type="line"/>
      <point x="49" y="66"/>
      <point x="26" y="63"/>
      <point x="24" y="62" type="curve"/>
      <point x="14" y="60"/>
      <point x="8" y="53"/>
      <point x="7" y="43" type="curve"/>
      <point x="1" y="0" type="line"/>
      <point x="259" y="0" type="line"/>
      <point x="264" y="43" type="line" smooth="yes"/>
      <point x="265" y="53"/>
      <point x="262" y="60"/>
      <point x="252" y="62" type="curve" smooth="yes"/>
      <point x="218" y="69"/>
      <point x="199" y="72"/>
      <point x="196" y="73" type="curve"/>
      <point x="375" y="299" type="line"/>
      <point x="379" y="305"/>
      <point x="383" y="312"/>
      <point x="386" y="319" type="curve"/>
      <point x="513" y="73" type="line"/>
      <point x="513" y="73"/>
      <point x="503" y="72"/>
      <point x="486" y="68" type="curve" smooth="yes"/>
      <point x="469" y="64"/>
      <point x="459" y="63"/>
      <point x="455" y="62" type="curve"/>
      <point x="445" y="60"/>
      <point x="438" y="53"/>
      <point x="437" y="43" type="curve" smooth="yes"/>
      <point x="432" y="0" type="line"/>
      <point x="695" y="0" type="line"/>
      <point x="701" y="43" type="line"/>
      <point x="702" y="53"/>
      <point x="698" y="60"/>
    </contour>
    <contour>
      <point x="351" y="0" type="move" name="bottom"/>
    </contour>
    <contour>
      <point x="437" y="716" type="move" name="top"/>
    </contour>
  </outline>
</glyph>
<glyph name="Y" format="1">
  <advance width="674"/>
  <unicode hex="0059"/>
  <note>
    Y
  </note>
  <outline>
    <contour>
      <point x="725" y="716" type="line"/>
      <point x="484" y="716" type="line"/>
      <point x="479" y="674" type="line" smooth="yes"/>
      <point x="478" y="664"/>
      <point x="481" y="657"/>
      <point x="491" y="655" type="curve" smooth="yes"/>
      <point x="524" y="648"/>
      <point x="543" y="645"/>
      <point x="547" y="644" type="curve"/>
      <point x="385" y="416" type="line" smooth="yes"/>
      <point x="373" y="399"/>
      <point x="361" y="377"/>
      <point x="349" y="352" type="curve"/>
      <point x="343" y="376"/>
      <point x="336" y="397"/>
      <point x="328" y="416" type="curve"/>
      <point x="222" y="644" type="line"/>
      <point x="226" y="645"/>
      <point x="244" y="648"/>
      <point x="279" y="655" type="curve" smooth="yes"/>
      <point x="290" y="657"/>
      <point x="296" y="664"/>
      <point x="297" y="674" type="curve"/>
      <point x="303" y="716" type="line"/>
      <point x="62" y="716" type="line"/>
      <point x="56" y="674" type="line"/>
      <point x="55" y="664"/>
      <point x="59" y="657"/>
      <point x="68" y="655" type="curve" smooth="yes"/>
      <point x="77" y="653"/>
      <point x="94" y="650"/>
      <point x="118" y="644" type="curve"/>
      <point x="292" y="285" type="line"/>
      <point x="266" y="73" type="line"/>
      <point x="207" y="62" type="line" smooth="yes"/>
      <point x="197" y="60"/>
      <point x="191" y="53"/>
      <point x="190" y="43" type="curve" smooth="yes"/>
      <point x="185" y="0" type="line"/>
      <point x="257" y="0" type="line"/>
      <point x="353" y="0" type="line"/>
      <point x="425" y="0" type="line"/>
      <point x="430" y="43" type="line" smooth="yes"/>
      <point x="431" y="53"/>
      <point x="428" y="60"/>
      <point x="418" y="62" type="curve" smooth="yes"/>
      <point x="385" y="69"/>
      <point x="367" y="72"/>
      <point x="362" y="73" type="curve"/>
      <point x="388" y="285" type="line"/>
      <point x="651" y="644" type="line"/>
      <point x="705" y="656" type="line" smooth="yes"/>
      <point x="714" y="658"/>
      <point x="719" y="664"/>
      <point x="720" y="674" type="curve" smooth="yes"/>
    </contour>
    <contour>
      <point x="342" y="0" type="move" name="bottom"/>
    </contour>
    <contour>
      <point x="428" y="716" type="move" name="top"/>
    </contour>
    <contour>
      <point x="122" y="716" type="move" name="topleft"/>
    </contour>
  </outline>
</glyph>
<glyph name="Z" format="1">
  <advance width="699"/>
  <unicode hex="005A"/>
  <note>
    Z
  </note>
  <outline>
    <contour>
      <point x="171" y="79" type="line"/>
      <point x="646" y="648" type="line" smooth="yes"/>
      <point x="654" y="658"/>
      <point x="660" y="669"/>
      <point x="661" y="680" type="curve" smooth="yes"/>
      <point x="665" y="716" type="line"/>
      <point x="141" y="716" type="line"/>
      <point x="131" y="638" type="line"/>
      <point x="120" y="542" type="line"/>
      <point x="168" y="542" type="line" smooth="yes"/>
      <point x="179" y="542"/>
      <point x="187" y="548"/>
      <point x="191" y="559" type="curve"/>
      <point x="193" y="563"/>
      <point x="197" y="589"/>
      <point x="207" y="637" type="curve"/>
      <point x="528" y="637" type="line"/>
      <point x="52" y="66" type="line" smooth="yes"/>
      <point x="45" y="57"/>
      <point x="40" y="48"/>
      <point x="39" y="38" type="curve" smooth="yes"/>
      <point x="34" y="0" type="line"/>
      <point x="570" y="0" type="line"/>
      <point x="580" y="79" type="line"/>
      <point x="591" y="174" type="line"/>
      <point x="543" y="174" type="line" smooth="yes"/>
      <point x="532" y="174"/>
      <point x="524" y="168"/>
      <point x="520" y="157" type="curve"/>
      <point x="519" y="153"/>
      <point x="514" y="127"/>
      <point x="504" y="79" type="curve"/>
    </contour>
    <contour>
      <point x="311" y="0" type="move" name="bottom"/>
    </contour>
    <contour>
      <point x="397" y="716" type="move" name="top"/>
    </contour>
  </outline>
</glyph>
<glyph name="bracketleft" format="1">
  <advance width="435"/>
  <unicode hex="005B"/>
  <note>
    bracketleft
  </note>
  <outline>
    <contour>
      <point x="200" y="766" type="line"/>
      <point x="88" y="-144" type="line"/>
      <point x="272" y="-144" type="line"/>
      <point x="276" y="-110" type="line" smooth="yes"/>
      <point x="277" y="-102"/>
      <point x="276" y="-96"/>
      <point x="272" y="-92" type="curve" smooth="yes"/>
      <point x="268" y="-88"/>
      <point x="262" y="-86"/>
      <point x="255" y="-86" type="curve" smooth="yes"/>
      <point x="170" y="-86" type="line"/>
      <point x="268" y="708" type="line"/>
      <point x="352" y="708" type="line" smooth="yes"/>
      <point x="359" y="708"/>
      <point x="366" y="710"/>
      <point x="371" y="714" type="curve" smooth="yes"/>
      <point x="376" y="718"/>
      <point x="379" y="725"/>
      <point x="380" y="732" type="curve" smooth="yes"/>
      <point x="384" y="766" type="line"/>
    </contour>
  </outline>
</glyph>
<glyph name="backslash" format="1">
  <advance width="346"/>
  <unicode hex="005C"/>
  <note>
    backslash
  </note>
  <outline>
    <contour>
      <point x="66" y="736" type="curve" smooth="yes"/>
      <point x="28" y="736" type="line"/>
      <point x="236" y="-10" type="line" smooth="yes"/>
      <point x="239" y="-22"/>
      <point x="244" y="-30"/>
      <point x="253" y="-36" type="curve" smooth="yes"/>
      <point x="262" y="-42"/>
      <point x="271" y="-45"/>
      <point x="281" y="-45" type="curve" smooth="yes"/>
      <point x="318" y="-45" type="line"/>
      <point x="109" y="704" type="line" smooth="yes"/>
      <point x="106" y="715"/>
      <point x="101" y="722"/>
      <point x="94" y="728" type="curve" smooth="yes"/>
      <point x="87" y="734"/>
      <point x="77" y="736"/>
    </contour>
  </outline>
</glyph>
<glyph name="bracketright" format="1">
  <advance width="435"/>
  <unicode hex="005D"/>
  <note>
    bracketright
  </note>
  <outline>
    <contour>
      <point x="55" y="-110" type="curve" smooth="yes"/>
      <point x="51" y="-144" type="line"/>
      <point x="235" y="-144" type="line"/>
      <point x="347" y="766" type="line"/>
      <point x="163" y="766" type="line"/>
      <point x="159" y="732" type="line" smooth="yes"/>
      <point x="158" y="725"/>
      <point x="159" y="720"/>
      <point x="163" y="715" type="curve"/>
      <point x="167" y="711"/>
      <point x="173" y="708"/>
      <point x="180" y="708" type="curve" smooth="yes"/>
      <point x="265" y="708" type="line"/>
      <point x="167" y="-86" type="line"/>
      <point x="83" y="-86" type="line" smooth="yes"/>
      <point x="76" y="-86"/>
      <point x="69" y="-87"/>
      <point x="64" y="-92" type="curve" smooth="yes"/>
      <point x="59" y="-97"/>
      <point x="56" y="-103"/>
    </contour>
  </outline>
</glyph>
<glyph name="asciicircum" format="1">
  <advance width="502"/>
  <unicode hex="005E"/>
  <note>
    asciicircum
  </note>
  <outline>
    <contour>
      <point x="320" y="716" type="line"/>
      <point x="262" y="716" type="line"/>
      <point x="43" y="394" type="line"/>
      <point x="111" y="394" type="line" smooth="yes"/>
      <point x="118" y="394"/>
      <point x="124" y="395"/>
      <point x="128" y="398" type="curve" smooth="yes"/>
      <point x="132" y="401"/>
      <point x="136" y="405"/>
      <point x="139" y="410" type="curve"/>
      <point x="258" y="586" type="line" smooth="yes"/>
      <point x="267" y="600"/>
      <point x="276" y="615"/>
      <point x="282" y="630" type="curve"/>
      <point x="283" y="623"/>
      <point x="285" y="616"/>
      <point x="287" y="609" type="curve" smooth="yes"/>
      <point x="289" y="602"/>
      <point x="293" y="594"/>
      <point x="296" y="586" type="curve"/>
      <point x="372" y="410" type="line" smooth="yes"/>
      <point x="374" y="405"/>
      <point x="377" y="401"/>
      <point x="381" y="398" type="curve" smooth="yes"/>
      <point x="385" y="395"/>
      <point x="389" y="394"/>
      <point x="395" y="394" type="curve" smooth="yes"/>
      <point x="459" y="394" type="line"/>
    </contour>
  </outline>
</glyph>
<glyph name="underscore" format="1">
  <advance width="401"/>
  <unicode hex="005F"/>
  <note>
    underscore
  </note>
  <outline>
    <contour>
      <point x="394" y="-142" type="line"/>
      <point x="401" y="-82" type="line"/>
      <point x="7" y="-82" type="line"/>
      <point x="0" y="-142" type="line"/>
    </contour>
  </outline>
</glyph>
<glyph name="grave" format="1">
  <advance width="260"/>
  <unicode hex="0060"/>
  <note>
    grave
  </note>
  <outline>
    <contour>
      <point x="124" y="724" type="curve" smooth="yes"/>
      <point x="40" y="724" type="line"/>
      <point x="141" y="596" type="line" smooth="yes"/>
      <point x="145" y="591"/>
      <point x="149" y="587"/>
      <point x="153" y="585" type="curve" smooth="yes"/>
      <point x="157" y="583"/>
      <point x="162" y="582"/>
      <point x="169" y="582" type="curve" smooth="yes"/>
      <point x="220" y="582" type="line"/>
      <point x="161" y="702" type="line" smooth="yes"/>
      <point x="157" y="710"/>
      <point x="153" y="715"/>
      <point x="148" y="719" type="curve" smooth="yes"/>
      <point x="143" y="723"/>
      <point x="135" y="724"/>
    </contour>
  </outline>
</glyph>
<glyph name="a" format="1">
  <advance width="513"/>
  <unicode hex="0061"/>
  <note>
    a
  </note>
  <outline>
    <contour>
      <point x="373" y="0" type="curve" smooth="yes"/>
      <point x="419" y="0" type="line"/>
      <point x="500" y="0" type="line"/>
      <point x="500" y="43" type="line" smooth="yes"/>
      <point x="500" y="52"/>
      <point x="494" y="60"/>
      <point x="485" y="62" type="curve" smooth="yes"/>
      <point x="477" y="64"/>
      <point x="431" y="72"/>
      <point x="428" y="73" type="curve"/>
      <point x="480" y="490" type="line"/>
      <point x="444" y="506"/>
      <point x="405" y="513"/>
      <point x="356" y="513" type="curve" smooth="yes"/>
      <point x="253" y="513"/>
      <point x="179" y="466"/>
      <point x="128" y="410" type="curve" smooth="yes"/>
      <point x="77" y="354"/>
      <point x="36" y="275"/>
      <point x="36" y="171" type="curve" smooth="yes"/>
      <point x="36" y="74"/>
      <point x="73" y="-7"/>
      <point x="168" y="-7" type="curve" smooth="yes"/>
      <point x="186" y="-7"/>
      <point x="204" y="-4"/>
      <point x="221" y="3" type="curve" smooth="yes"/>
      <point x="280" y="27"/>
      <point x="321" y="77"/>
      <point x="352" y="132" type="curve"/>
      <point x="343" y="31" type="line"/>
      <point x="343" y="11"/>
      <point x="352" y="0"/>
    </contour>
    <contour>
      <point x="387" y="439" type="curve"/>
      <point x="365" y="267" type="line"/>
      <point x="348" y="213"/>
      <point x="324" y="162"/>
      <point x="294" y="124" type="curve" smooth="yes"/>
      <point x="273" y="97"/>
      <point x="242" y="67"/>
      <point x="201" y="67" type="curve" smooth="yes"/>
      <point x="150" y="67"/>
      <point x="124" y="107"/>
      <point x="124" y="187" type="curve" smooth="yes"/>
      <point x="124" y="265"/>
      <point x="153" y="325"/>
      <point x="189" y="369" type="curve" smooth="yes"/>
      <point x="223" y="410"/>
      <point x="273" y="447"/>
      <point x="344" y="447" type="curve" smooth="yes"/>
      <point x="365" y="447" type="line" smooth="yes"/>
      <point x="372" y="447"/>
      <point x="380" y="445"/>
    </contour>
    <contour>
      <point x="257" y="0" type="move" name="bottom"/>
    </contour>
    <contour>
      <point x="463" y="10" type="move" name="ogonek"/>
    </contour>
    <contour>
      <point x="317" y="506" type="move" name="top"/>
    </contour>
  </outline>
</glyph>
<glyph name="b" format="1">
  <advance width="520"/>
  <unicode hex="0062"/>
  <note>
    b
  </note>
  <outline>
    <contour>
      <point x="482" y="255" type="line"/>
      <point x="482" y="257" type="line"/>
      <point x="487" y="299"/>
      <point x="488" y="336"/>
      <point x="483" y="368" type="curve" smooth="yes"/>
      <point x="478" y="400"/>
      <point x="468" y="427"/>
      <point x="454" y="449" type="curve" smooth="yes"/>
      <point x="440" y="471"/>
      <point x="422" y="487"/>
      <point x="400" y="498" type="curve" smooth="yes"/>
      <point x="378" y="509"/>
      <point x="351" y="515"/>
      <point x="322" y="515" type="curve" smooth="yes"/>
      <point x="287" y="515"/>
      <point x="255" y="507"/>
      <point x="226" y="492" type="curve" smooth="yes"/>
      <point x="197" y="477"/>
      <point x="171" y="458"/>
      <point x="147" y="434" type="curve"/>
      <point x="184" y="737" type="line"/>
      <point x="97" y="737" type="line"/>
      <point x="94" y="737" type="line"/>
      <point x="15" y="737" type="line" smooth="yes"/>
      <point x="15" y="737"/>
      <point x="11" y="702"/>
      <point x="10" y="693" type="curve" smooth="yes"/>
      <point x="9" y="684"/>
      <point x="14" y="677"/>
      <point x="23" y="675" type="curve"/>
      <point x="30" y="673"/>
      <point x="73" y="666"/>
      <point x="85" y="664" type="curve"/>
      <point x="16" y="102" type="line"/>
      <point x="8" y="29" type="line"/>
      <point x="6" y="21" type="line"/>
      <point x="6" y="21"/>
      <point x="137" y="-7"/>
      <point x="227" y="-7" type="curve" smooth="yes"/>
      <point x="259" y="-7"/>
      <point x="288" y="-1"/>
      <point x="317" y="11" type="curve" smooth="yes"/>
      <point x="346" y="23"/>
      <point x="371" y="39"/>
      <point x="394" y="61" type="curve" smooth="yes"/>
      <point x="417" y="83"/>
      <point x="436" y="111"/>
      <point x="451" y="143" type="curve" smooth="yes"/>
      <point x="466" y="175"/>
      <point x="477" y="213"/>
      <point x="482" y="254" type="curve"/>
    </contour>
    <contour>
      <point x="333" y="112" type="curve" smooth="yes"/>
      <point x="318" y="96"/>
      <point x="301" y="84"/>
      <point x="282" y="75" type="curve" smooth="yes"/>
      <point x="265" y="67"/>
      <point x="246" y="63"/>
      <point x="226" y="62" type="curve"/>
      <point x="220" y="62" type="line" smooth="yes"/>
      <point x="214" y="62"/>
      <point x="207" y="63"/>
      <point x="201" y="63" type="curve"/>
      <point x="158" y="66"/>
      <point x="116" y="76"/>
      <point x="103" y="79" type="curve"/>
      <point x="108" y="122" type="line"/>
      <point x="124" y="249" type="line"/>
      <point x="139" y="367" type="line"/>
      <point x="160" y="391"/>
      <point x="183" y="411"/>
      <point x="206" y="424" type="curve" smooth="yes"/>
      <point x="229" y="437"/>
      <point x="255" y="444"/>
      <point x="284" y="444" type="curve" smooth="yes"/>
      <point x="304" y="444"/>
      <point x="323" y="440"/>
      <point x="338" y="433" type="curve" smooth="yes"/>
      <point x="353" y="426"/>
      <point x="365" y="415"/>
      <point x="374" y="400" type="curve" smooth="yes"/>
      <point x="383" y="385"/>
      <point x="389" y="366"/>
      <point x="392" y="342" type="curve" smooth="yes"/>
      <point x="395" y="318"/>
      <point x="394" y="290"/>
      <point x="390" y="257" type="curve"/>
      <point x="390" y="254"/>
      <point x="389" y="252"/>
      <point x="389" y="249" type="curve"/>
      <point x="385" y="220"/>
      <point x="379" y="195"/>
      <point x="370" y="172" type="curve" smooth="yes"/>
      <point x="360" y="148"/>
      <point x="348" y="128"/>
    </contour>
    <contour>
      <point x="204" y="0" type="move" name="bottom"/>
    </contour>
    <contour>
      <point x="264" y="506" type="move" name="top"/>
    </contour>
  </outline>
</glyph>
<glyph name="c" format="1">
  <advance width="481"/>
  <unicode hex="0063"/>
  <note>
    c
  </note>
  <outline>
    <contour>
      <point x="425" y="71" type="curve"/>
      <point x="404" y="104" type="line"/>
      <point x="401" y="110"/>
      <point x="396" y="112"/>
      <point x="389" y="112" type="curve" smooth="yes"/>
      <point x="382" y="112"/>
      <point x="376" y="109"/>
      <point x="369" y="104" type="curve"/>
      <point x="333" y="76"/>
      <point x="294" y="62"/>
      <point x="252" y="62" type="curve" smooth="yes"/>
      <point x="206" y="62"/>
      <point x="173" y="79"/>
      <point x="151" y="112" type="curve" smooth="yes"/>
      <point x="129" y="146"/>
      <point x="121" y="194"/>
      <point x="128" y="254" type="curve" smooth="yes"/>
      <point x="135" y="314"/>
      <point x="154" y="360"/>
      <point x="184" y="394" type="curve" smooth="yes"/>
      <point x="199" y="411"/>
      <point x="216" y="423"/>
      <point x="235" y="431" type="curve" smooth="yes"/>
      <point x="254" y="439"/>
      <point x="274" y="444"/>
      <point x="292" y="444" type="curve" smooth="yes"/>
      <point x="310" y="444"/>
      <point x="329" y="443"/>
      <point x="348" y="440" type="curve"/>
      <point x="357" y="439"/>
      <point x="368" y="436"/>
      <point x="383" y="431" type="curve"/>
      <point x="383" y="430"/>
      <point x="383" y="419"/>
      <point x="382" y="398" type="curve" smooth="yes"/>
      <point x="381" y="377"/>
      <point x="380" y="364"/>
      <point x="381" y="360" type="curve"/>
      <point x="382" y="351"/>
      <point x="386" y="346"/>
      <point x="396" y="346" type="curve" smooth="yes"/>
      <point x="436" y="346" type="line"/>
      <point x="453" y="478" type="line"/>
      <point x="395" y="503"/>
      <point x="346" y="515"/>
      <point x="307" y="515" type="curve" smooth="yes"/>
      <point x="232" y="515"/>
      <point x="170" y="490"/>
      <point x="121" y="441" type="curve" smooth="yes"/>
      <point x="74" y="394"/>
      <point x="47" y="332"/>
      <point x="37" y="254" type="curve" smooth="yes"/>
      <point x="27" y="173"/>
      <point x="41" y="109"/>
      <point x="78" y="62" type="curve" smooth="yes"/>
      <point x="113" y="16"/>
      <point x="163" y="-7"/>
      <point x="228" y="-7" type="curve" smooth="yes"/>
      <point x="310" y="-7"/>
      <point x="376" y="19"/>
    </contour>
    <contour>
      <point x="218" y="0" type="move" name="bottom"/>
    </contour>
    <contour>
      <point x="328" y="506" type="move" name="top"/>
    </contour>
  </outline>
</glyph>
<glyph name="d" format="1">
  <advance width="563"/>
  <unicode hex="0064"/>
  <note>
    d
  </note>
  <outline>
    <contour>
      <point x="290" y="516" type="curve" smooth="yes"/>
      <point x="223" y="516"/>
      <point x="166" y="491"/>
      <point x="120" y="440" type="curve" smooth="yes"/>
      <point x="75" y="391"/>
      <point x="47" y="329"/>
      <point x="38" y="252" type="curve" smooth="yes"/>
      <point x="28" y="169"/>
      <point x="38" y="104"/>
      <point x="67" y="59" type="curve" smooth="yes"/>
      <point x="95" y="15"/>
      <point x="139" y="-7"/>
      <point x="198" y="-7" type="curve" smooth="yes"/>
      <point x="264" y="-7"/>
      <point x="324" y="22"/>
      <point x="379" y="80" type="curve"/>
      <point x="379" y="18" type="line"/>
      <point x="381" y="6"/>
      <point x="388" y="0"/>
      <point x="401" y="0" type="curve" smooth="yes"/>
      <point x="526" y="0" type="line"/>
      <point x="531" y="43" type="line" smooth="yes"/>
      <point x="532" y="53"/>
      <point x="529" y="60"/>
      <point x="519" y="62" type="curve" smooth="yes"/>
      <point x="513" y="63"/>
      <point x="494" y="67"/>
      <point x="463" y="73" type="curve"/>
      <point x="545" y="737" type="line"/>
      <point x="374" y="737" type="line"/>
      <point x="368" y="694" type="line"/>
      <point x="367" y="684"/>
      <point x="371" y="677"/>
      <point x="381" y="675" type="curve" smooth="yes"/>
      <point x="391" y="673"/>
      <point x="414" y="669"/>
      <point x="447" y="664" type="curve"/>
      <point x="421" y="456" type="line"/>
      <point x="390" y="496"/>
      <point x="346" y="516"/>
    </contour>
    <contour>
      <point x="237" y="65" type="curve" smooth="yes"/>
      <point x="216" y="65"/>
      <point x="198" y="69"/>
      <point x="183" y="76" type="curve" smooth="yes"/>
      <point x="136" y="98"/>
      <point x="118" y="156"/>
      <point x="130" y="252" type="curve" smooth="yes"/>
      <point x="138" y="314"/>
      <point x="157" y="362"/>
      <point x="186" y="396" type="curve" smooth="yes"/>
      <point x="215" y="430"/>
      <point x="255" y="446"/>
      <point x="303" y="446" type="curve" smooth="yes"/>
      <point x="351" y="446"/>
      <point x="389" y="426"/>
      <point x="413" y="386" type="curve"/>
      <point x="382" y="142" type="line"/>
      <point x="337" y="91"/>
      <point x="290" y="65"/>
    </contour>
    <contour>
      <point x="272" y="0" type="move" name="bottom"/>
    </contour>
    <contour>
      <point x="302" y="253" type="move" name="center"/>
    </contour>
    <contour>
      <point x="332" y="506" type="move" name="top"/>
    </contour>
    <contour>
      <point x="584" y="506" type="move" name="topright"/>
    </contour>
  </outline>
</glyph>
<glyph name="f" format="1">
  <advance width="447"/>
  <unicode hex="0066"/>
  <note>
    f
  </note>
  <outline>
    <contour>
      <point x="423" y="727" type="curve" smooth="yes"/>
      <point x="308" y="727"/>
      <point x="240" y="652"/>
      <point x="227" y="546" type="curve" smooth="yes"/>
      <point x="221" y="496" type="line"/>
      <point x="141" y="496" type="line"/>
      <point x="137" y="460" type="line" smooth="yes"/>
      <point x="136" y="448"/>
      <point x="142" y="441"/>
      <point x="158" y="437" type="curve"/>
      <point x="213" y="430" type="line"/>
      <point x="156" y="-37" type="line" smooth="yes"/>
      <point x="150" y="-88"/>
      <point x="129" y="-114"/>
      <point x="74" y="-114" type="curve" smooth="yes"/>
      <point x="55" y="-114" type="line" smooth="yes"/>
      <point x="46" y="-114"/>
      <point x="40" y="-117"/>
      <point x="38" y="-124" type="curve"/>
      <point x="28" y="-172" type="line"/>
      <point x="45" y="-179"/>
      <point x="65" y="-182"/>
      <point x="88" y="-182" type="curve" smooth="yes"/>
      <point x="183" y="-182"/>
      <point x="234" y="-124"/>
      <point x="245" y="-38" type="curve" smooth="yes"/>
      <point x="264" y="119"/>
      <point x="283" y="275"/>
      <point x="302" y="432" type="curve"/>
      <point x="446" y="432" type="line"/>
      <point x="454" y="496" type="line"/>
      <point x="308" y="496" type="line"/>
      <point x="313" y="543" type="line" smooth="yes"/>
      <point x="322" y="620"/>
      <point x="361" y="658"/>
      <point x="429" y="658" type="curve" smooth="yes"/>
      <point x="445" y="658" type="line" smooth="yes"/>
      <point x="463" y="658"/>
      <point x="476" y="659"/>
      <point x="478" y="673" type="curve" smooth="yes"/>
      <point x="485" y="717" type="line"/>
      <point x="467" y="724"/>
      <point x="446" y="727"/>
    </contour>
    <contour>
      <point x="234" y="0" type="move" name="bottom"/>
    </contour>
    <contour>
      <point x="294" y="506" type="move" name="top"/>
    </contour>
  </outline>
</glyph>
